<?xml version="1.0" encoding="iso-8859-1"?>
<!-- Generator: Adobe Illustrator 19.0.0, SVG Export Plug-In . SVG Version: 6.00 Build 0)  -->
<svg version="1.1" id="Layer_1" xmlns="http://www.w3.org/2000/svg" xmlns:xlink="http://www.w3.org/1999/xlink" x="0px" y="0px"
	 viewBox="0 0 262.727 262.727" style="enable-background:new 0 0 262.727 262.727;" xml:space="preserve">
<g>
	<g>
		<g id="XMLID_18_">
			<g>
				<rect x="204.927" y="37.391" style="fill:#FEDE94;" width="30.822" height="208.996"/>
				<rect x="126.75" y="89.68" style="fill:#AAE1E9;" width="30.854" height="156.707"/>
				<rect x="46.298" y="137.387" style="fill:#F47C6D;" width="30.822" height="109"/>
				<path style="fill:#2D213F;" d="M252.025,246.418v8.106c0,4.486-3.62,8.138-8.138,8.138h-47.131
					c-4.486,0-8.138-3.653-8.138-8.138v-8.106L252.025,246.418L252.025,246.418z"/>
				<path style="fill:#2D213F;" d="M204.927,246.386h30.822V37.391h-30.822V246.386z M252.025,246.418h-63.407V29.252
					c0-4.518,3.653-8.138,8.138-8.138h47.131c4.518,0,8.138,3.621,8.138,8.138V246.418z"/>
				<path style="fill:#2D213F;" d="M262.727,254.557c0,4.518-3.653,8.17-8.138,8.17h-10.701v-0.064c4.518,0,8.138-3.653,8.138-8.138
					v-8.106h2.563C259.074,246.418,262.727,250.071,262.727,254.557z"/>
				<path style="fill:#2D213F;" d="M173.88,246.418v8.106c0,4.486-3.653,8.138-8.138,8.138h-47.131
					c-4.486,0-8.138-3.653-8.138-8.138v-8.106L173.88,246.418L173.88,246.418z"/>
				<path style="fill:#2D213F;" d="M173.88,246.418h-63.407V81.541c0-4.486,3.653-8.138,8.138-8.138h47.131
					c4.486,0,8.138,3.653,8.138,8.138V246.418z M126.75,246.386h30.854V89.68H126.75V246.386z"/>
				<path style="fill:#2D213F;" d="M188.619,254.525c0,4.486,3.653,8.138,8.138,8.138h47.131v0.064h-78.145v-0.064
					c4.486,0,8.138-3.653,8.138-8.138v-8.106h14.738L188.619,254.525L188.619,254.525z"/>
				<path style="fill:#2D213F;" d="M93.428,246.418v8.106c0,4.486-3.653,8.138-8.138,8.138H38.159c-4.518,0-8.138-3.653-8.138-8.138
					v-8.106L93.428,246.418L93.428,246.418z"/>
				<path style="fill:#2D213F;" d="M93.428,246.418H30.021v-117.17c0-4.518,3.621-8.138,8.138-8.138H85.29
					c4.486,0,8.138,3.621,8.138,8.138V246.418z M46.298,246.386H77.12v-109H46.298V246.386z"/>
				<path style="fill:#2D213F;" d="M118.612,262.663h47.131v0.064H85.29v-0.064c4.486,0,8.138-3.653,8.138-8.138v-8.106h17.045
					v8.106C110.473,259.01,114.126,262.663,118.612,262.663z"/>
				<path style="fill:#2D213F;" d="M38.159,262.663H85.29v0.064H8.138c-4.486,0-8.138-3.653-8.138-8.17V8.138
					C0,3.621,3.653,0,8.138,0c4.518,0,8.17,3.621,8.17,8.138v238.28h13.713v8.106C30.021,259.01,33.642,262.663,38.159,262.663z"/>
			</g>
		</g>
	</g>
</g>
<g>
</g>
<g>
</g>
<g>
</g>
<g>
</g>
<g>
</g>
<g>
</g>
<g>
</g>
<g>
</g>
<g>
</g>
<g>
</g>
<g>
</g>
<g>
</g>
<g>
</g>
<g>
</g>
<g>
</g>
</svg>
