<svg xmlns="http://www.w3.org/2000/svg" viewBox="0 0 280 280"><defs><style>.cls-1{fill:#3db1a8;}.cls-2{fill:#7bbfa8;}.cls-3{fill:#f59797;}</style></defs><title>Asset 15</title><g id="Layer_2" data-name="Layer 2"><g id="Layer_1-2" data-name="Layer 1"><polyline class="cls-1" points="280 280 0.05 279.92 0 86.48 74.25 75.91 104.91 100.66 177.22 81.46 196.84 43.7 243.43 63.43 279.74 0"/><polygon class="cls-2" points="279.72 84.33 248.3 117.17 220.43 95.71 188.8 130.32 145.58 159.02 118.64 137.43 64.85 173.82 39.56 133.56 0.06 138.31 0.06 280 279.84 280 279.72 84.33"/><polygon class="cls-3" points="279.84 133.56 221.81 173.82 179.9 155.18 138.57 199.58 97.22 186.25 70.86 212.92 35.15 180.92 0.06 191.61 0.06 280 279.72 280 279.84 133.56"/></g></g></svg>