<svg xmlns="http://www.w3.org/2000/svg" viewBox="0 0 280 280"><defs><style>.cls-1{fill:#65cade;}.cls-2{fill:#c3df67;}.cls-3{fill:#e3c874;}.cls-4{fill:#f06500;}</style></defs><title>Asset 6</title><g id="Layer_2" data-name="Layer 2"><g id="Layer_1-2" data-name="Layer 1"><ellipse class="cls-1" cx="51.41" cy="104.58" rx="13.57" ry="13.69"/><ellipse class="cls-1" cx="41.97" cy="138.65" rx="18.54" ry="18.71"/><ellipse class="cls-2" cx="103.76" cy="107.31" rx="20.42" ry="20.6"/><ellipse class="cls-3" cx="78.07" cy="185.82" rx="17.56" ry="17.72"/><ellipse class="cls-4" cx="184.9" cy="117.25" rx="21.17" ry="21.36"/><ellipse class="cls-3" cx="152.01" cy="211.48" rx="16.49" ry="16.63"/><ellipse class="cls-3" cx="236.78" cy="123.94" rx="16.49" ry="16.63"/><ellipse class="cls-3" cx="228" cy="164.21" rx="16.49" ry="16.63"/><ellipse class="cls-1" cx="127.6" cy="38.5" rx="12.35" ry="12.46"/><ellipse class="cls-4" cx="131.88" cy="145.21" rx="12.35" ry="12.46"/><ellipse class="cls-2" cx="196.6" cy="172.54" rx="12.35" ry="12.46"/><ellipse class="cls-3" cx="96.99" cy="213.94" rx="12.35" ry="12.46"/><ellipse class="cls-1" cx="249.77" cy="147.58" rx="7.73" ry="7.8"/><ellipse class="cls-1" cx="130.04" cy="60.25" rx="7.73" ry="7.8"/><ellipse class="cls-1" cx="134.66" cy="232.38" rx="7.73" ry="7.8"/><ellipse class="cls-3" cx="130.04" cy="60.25" rx="7.73" ry="7.8"/><ellipse class="cls-1" cx="190.15" cy="57.49" rx="7.73" ry="7.8"/><ellipse class="cls-1" cx="48.06" cy="168.11" rx="7.73" ry="7.8"/><ellipse class="cls-3" cx="216.7" cy="104.58" rx="5.79" ry="5.84"/><ellipse class="cls-4" cx="160.99" cy="134.68" rx="5.79" ry="5.84"/><ellipse class="cls-2" cx="154.68" cy="90.89" rx="5.79" ry="5.84"/><ellipse class="cls-1" cx="41.97" cy="81.57" rx="6.91" ry="6.97"/><ellipse class="cls-3" cx="213" cy="201.49" rx="13.93" ry="14.06"/><ellipse class="cls-2" cx="155.2" cy="185" rx="6.91" ry="6.97"/><ellipse class="cls-3" cx="180.22" cy="194.85" rx="11.47" ry="11.57"/><ellipse class="cls-1" cx="208.95" cy="44.4" rx="11.47" ry="11.57"/><ellipse class="cls-1" cx="146.87" cy="21.38" rx="11.47" ry="11.57"/><ellipse class="cls-1" cx="156.29" cy="245.59" rx="13.09" ry="13.2"/><ellipse class="cls-1" cx="207.8" cy="67.81" rx="9.31" ry="9.39"/><ellipse class="cls-3" cx="154.68" cy="49.74" rx="13.09" ry="13.2"/><ellipse class="cls-2" cx="213" cy="133.05" rx="6.54" ry="6.6"/><ellipse class="cls-3" cx="172.56" cy="229.23" rx="6.54" ry="6.6"/><ellipse class="cls-1" cx="226.83" cy="224.58" rx="6.54" ry="6.6"/><ellipse class="cls-3" cx="74.16" cy="97.62" rx="6.54" ry="6.6"/><ellipse class="cls-1" cx="90.45" cy="32.95" rx="6.54" ry="6.6"/><ellipse class="cls-1" cx="96.99" cy="47.11" rx="6.54" ry="6.6"/><ellipse class="cls-2" cx="164.54" cy="95.89" rx="4.45" ry="4.49"/><ellipse class="cls-2" cx="164.78" cy="86.06" rx="4.45" ry="4.49"/><ellipse class="cls-1" cx="222.49" cy="58.43" rx="4.45" ry="4.49"/><ellipse class="cls-3" cx="126.29" cy="211.48" rx="4.45" ry="4.49"/><ellipse class="cls-1" cx="117.07" cy="224.58" rx="6.29" ry="6.35"/><ellipse class="cls-3" cx="67.55" cy="157.66" rx="9.02" ry="9.1"/><ellipse class="cls-3" cx="184.9" cy="81.57" rx="12.35" ry="12.46"/><ellipse class="cls-3" cx="107.19" cy="66.74" rx="12.35" ry="12.46"/><ellipse class="cls-4" cx="178.36" cy="152.45" rx="12.35" ry="12.46"/><ellipse class="cls-4" cx="143.43" cy="115.33" rx="17.56" ry="17.72"/><ellipse class="cls-1" cx="238.15" cy="81.64" rx="20.42" ry="20.6"/><ellipse class="cls-3" cx="72.48" cy="68.05" rx="20.42" ry="20.6"/><ellipse class="cls-2" cx="198.49" cy="145.21" rx="6.54" ry="6.6"/><ellipse class="cls-1" cx="66.56" cy="215.66" rx="6.54" ry="6.6"/><ellipse class="cls-1" cx="41.97" cy="198.8" rx="17.56" ry="17.72"/><ellipse class="cls-2" cx="96.99" cy="148.01" rx="17.56" ry="17.72"/><ellipse class="cls-1" cx="182.8" cy="21.38" rx="21.19" ry="21.38"/><ellipse class="cls-1" cx="253.26" cy="194.85" rx="20.19" ry="20.37"/><ellipse class="cls-1" cx="202.99" cy="241" rx="20.19" ry="20.37"/><ellipse class="cls-2" cx="121.5" cy="184.1" rx="20.19" ry="20.37"/><ellipse class="cls-4" cx="152.01" cy="163.95" rx="12.19" ry="12.29"/><ellipse class="cls-2" cx="134.03" cy="82.84" rx="12.19" ry="12.29"/><ellipse class="cls-3" cx="73.1" cy="124.49" rx="12.19" ry="12.29"/><ellipse class="cls-2" cx="171.82" cy="174.48" rx="6.54" ry="6.6"/><ellipse class="cls-3" cx="183.79" cy="215.21" rx="6.54" ry="6.6"/><ellipse class="cls-1" cx="35.06" cy="52.45" rx="13.09" ry="13.2"/><ellipse class="cls-1" cx="23.43" cy="95.13" rx="13.09" ry="13.2"/><ellipse class="cls-1" cx="82.43" cy="246.04" rx="19.31" ry="19.48"/><ellipse class="cls-1" cx="117.07" cy="248.65" rx="12.7" ry="12.82"/><ellipse class="cls-1" cx="266.61" cy="108.33" rx="12.35" ry="12.46"/><ellipse class="cls-1" cx="177.24" cy="267.54" rx="12.35" ry="12.46"/><ellipse class="cls-1" cx="18.13" cy="171.48" rx="12.35" ry="12.46"/><ellipse class="cls-3" cx="157.63" cy="73.25" rx="7.88" ry="7.95"/><ellipse class="cls-1" cx="152.01" cy="269.31" rx="7.88" ry="7.95"/><ellipse class="cls-1" cx="50.55" cy="230.63" rx="10.37" ry="10.46"/><ellipse class="cls-1" cx="12.21" cy="121.44" rx="10.4" ry="10.49"/><ellipse class="cls-1" cx="265.23" cy="134.68" rx="7.73" ry="7.8"/><ellipse class="cls-1" cx="268.75" cy="162.03" rx="11.25" ry="11.35"/><ellipse class="cls-1" cx="8.93" cy="145.32" rx="8.93" ry="9.01"/><ellipse class="cls-1" cx="72.96" cy="36.54" rx="6.54" ry="6.6"/><ellipse class="cls-1" cx="108.16" cy="22.82" rx="10.04" ry="10.13"/><ellipse class="cls-1" cx="56.47" cy="42.66" rx="6.54" ry="6.6"/></g></g></svg>