<svg xmlns="http://www.w3.org/2000/svg" viewBox="0 0 280 280"><defs><style>.cls-1{fill:none;}.cls-2{fill:#004c80;}.cls-3{fill:#006bb2;}.cls-4{fill:#005c99;}.cls-5{fill:#008ae5;}.cls-6{fill:#003d66;}.cls-7{fill:#09f;}.cls-8{fill:#007acc;}</style></defs><title>Asset 12</title><g id="Layer_2" data-name="Layer 2"><g id="Layer_1-2" data-name="Layer 1"><path class="cls-1" d="M.12,6.16l5.56,1,48.83,3.61,13.21-.4,4.85,3.45L77,15.07l7,1.53,2-.89,1.62,1.45-.29,2.08,6.6,1.61,10.31-1.13,3.91.32.79,1.82-8.42,3.85L97,28.38,95.85,31.8l-3.23,1.5-2.45,3.31.19,1.61,6.37-1.71,2.84-2,1.66,1.28-.39,2.46,3.33.53.78-3.53,8.32-2.88V29.56l6.56-3.85,1.76,1.71-4.69,3.64-.69,4.7,1.76.64,2.25-2.67,4.61,3.63,2.25-.42,2.74,1.81,3.72-4.27,7.83-2.78,1.08,1.07v2.35l1,1.39L146,34.69l2.65,2.46.58,1.6,5.29,1v1.71h-8.22l-.89,1.39h-1.76l.1-1.72-4.8-1-1.86,2.68h-3.52l-1,6-1.76-.43-.59-3.95-3.92,3.63-1.56,6.63-4,6.42-.49,3.42,2.26-.54.39-3.84,3.33-3,.78-3.42,2.35-3,1.27.75-5.29,13-1.56,7.32,1.76,8.66-.73,4.41,4,8,2.35.72L133.51,92l3.6-6.58.66-10.1-3.15-5L134,66.47l1.39-3.37-.88-5.21,3.6-2.49,1.62-4.17,1.76.41-1.25,4,1.91.24,1-2.65V49.47L145,48.19l-.59-2.41,2.86-2.08,2.43,1.84,6.53,1.53,2.06,3.52-.88,2.49L159,58l-1.76,5.21-2.28.4-.66,3.53,2.5,1.69,2.2-2.49V63.58l3.31-1.36L165.53,64l3.3,11.47V79.7l-3-.4-.44,1.36,1.32,1.45-.73,4-2.64,4,2.57,2.25,6.9-3.93,2.54,1.74,5.49-6.1,3.23.11,5.48-4,6-7.8-2.06-3.21-.19-3.31L201,63.45l3.63,2.14,3.91-2.14,3.43-3,2.15-.86-2.54-6.52,2.54-2.89,2-5.45,4.21-5.13,11.16-2.46,13.9-4.28V30.39l2.28-1,2-1,1.69-8.18-2-6.57L252.83.88,255,3l3.46-1.76L264.73,3l5.87,15.8,4.85.72L280,26l-4.48,6.17-4,2.17L269.72,33l-2.86-.64.22,8.18-2.87-.4v4.65l-1.39.72-1.62-2.08-1.17,1v6.09l-.88,2.65-1.91,1-.44,1.69,2,1.68L256.36,63l1.56.91,1.67-1,3.23,4.54,3.72-1.23-2.94-3.15.78-1,4.07,3.37-.25,2.94-5.14,1.82-1.47-1.18-2,3-5.83,3.58L250.48,77l-5.38,1.66-1.76,2.57-3.53,2.08-2.05.91-2.11,5.29,1.13,1.34,2.05-.64.34,4.51L235.43,106h-1.17l-.3-2.65-2.64-.64.22,2.41,2.13,2.48,3.45,4.74-.44,3.2h2.57l-.66,1.85.22,5.29-5.88,2.56-1.32-4.89-1.54,1.05-2.2-2.17-1.1-9.94,2-3.37-2.13-1.28-3.6,5.53,2,2,.22,6.82,2.87,3.61-.3,2.08-1.69-.32.89,3.53h-3.75l-.07,1.44,3.82.89,2,3.54-1,1.11-2.86-2.81-4.92-.32-.44,1.52,4.33.89,4,2.64,5.06-1.12-.14,2.72,5.21,7.86-1.1,1.05-3.67-5.38-1.18,1.85-3.74.16-3.09,2.8,1,1.85,3.82-2.57,1.54,1.53,1.1-2,1.62.24.14,3.69L232.13,154l-3.53-2.24L225.52,154l.14,1.36h5.14l2.65,1.61-1.84,3.45h-2.2l-2.5,1.76-2.71-.64-1.91,2.56.58,3.21-1.61,2.33.88,3.69h-1.32l-2-1.61-3.46,2.49-4.84,4.89L207,187.79l-3.81,4-4.56,3.69-5.87-1.93v4.33h3.08l.74,2.41-4.11,5.61.14,10.1,4.46,15.83,4.3,6.41-1.86,1.93,5,9.08,5.43,11v8.82l-2.79,4,1.18,3.21L204.81,280h-5.29l-.44-4.49,2.79-1.76-.58-2.89-4,.64-3.08-6.73-3.38,1.76-2.2-3.53,3.23-1.44L191.3,259l-3.82.64-2.93-3.2,2.35-4.33-.45-4.65-1.32.05-.44,4.17-1.42-.11-1.66-4.06,1.76-4.28-.2-5.08-1.51-3.31L178.48,236l-3.63-6.9-3-1.39-.54-2.19-3.48-.38-1.22,2.78-8.91,3.8-.88-2.73-5.51-4.73-3.81.24-1-2.8L144.38,223l-.59,2.81-3.08.08-3.52-.49-2.43,1.37-1.61-9.22L131,216.9l1,8.65-2.87.33-6.39.08-3.52,1.68-4.77-1.52-3.9-.16-2.64,2.4.88,1.61,2.57-.81,1.18,1.61,3.3-1.85,4.48,2-2.28,2.88,1.33,2.81,3.52,2-.66,2.41-4-.16-.81-3.05L115,236l-.73,1.12,1.17,2-2.5,1.6-3.74.64-2.64-1.12-.3-1.69-2.86.81-1.18-1.21,2.06-3.52L103,233.57l-1.69,2.09-1.25-1.36.3-2.65-5.66.24v1.84l3.9,2.41-.3,1.36-8.81-1.92-4.62-2.41-5.22,1.77-3,.08-3.45,2.72-1.83-2.16L71,232.77l-2.94,1.61,1.4,2.24v2.17l1.83,1.36L70,242.07l-2.5-.32-2.93,2.81-4.63,2.16-5.87,2.73-2.28-1-2.13,2.08-.88,4.33L44,254.42l-.22,1.36,2.49,1.37-.8,4.41s-3.16-.72-3.16-.48-.3,2.16-.3,2.16l2.28,1.85,1.4,4.57-.15,2.24L47.16,274l.08,4.49H44.45l-1.4-2.73-8.59-.64-4.11-4.17-.29-3.05-3.46-3.21-1-7.05-3.89-3-4.48-12.91-5.73-8L.12,229.44"/><polygon class="cls-2" points="137.19 225.4 137.19 217.83 159.78 215.91 160.66 218.9 185.03 217.51 185.72 219.11 187.29 219.01 188.17 214.73 189.54 214.73 190.32 216.12 192.62 215.59 197.4 232.32 201.38 238.25 199.52 240.18 209.95 260.27 209.95 269.1 207.16 273.1 208.34 276.31 204.81 280 199.52 280 199.08 275.51 201.87 273.75 201.29 270.86 197.32 271.5 194.24 264.76 190.86 266.53 188.66 263 191.89 261.56 191.3 258.99 187.48 259.63 184.54 256.43 186.9 252.1 186.46 247.44 185.13 247.5 184.69 251.67 183.27 251.56 181.61 247.5 183.37 243.22 183.18 238.14 181.66 234.83 178.48 236.01 174.85 229.11 171.82 227.72 171.28 225.53 167.8 225.15 166.58 227.93 157.67 231.73 156.79 229 151.28 224.27 147.47 224.51 146.44 221.71 144.38 222.99 143.79 225.8 140.71 225.88 137.19 225.4"/><polygon class="cls-3" points="159.78 215.91 158.31 208.96 158.31 203.29 159.78 200.83 159.78 199.34 156.45 193.13 151.75 169.83 159.78 168.97 173.57 167.26 173.57 168.87 171.92 170.25 182.39 181.59 190.13 189.39 191.01 192.39 192.77 193.56 192.77 197.89 195.85 197.89 196.59 200.3 192.48 205.91 192.62 215.59 190.32 216.12 189.54 214.73 188.17 214.73 187.29 219.01 185.72 219.11 185.03 217.51 160.66 218.9 159.78 215.91"/><polygon class="cls-4" points="151.75 169.83 128.15 171.32 128.15 172.39 129.03 173.68 128.15 208.31 129.18 225.88 132.04 225.56 131.02 216.9 133.15 217.54 134.76 226.76 137.19 225.4 137.19 217.83 159.78 215.91 158.31 208.96 158.31 203.29 159.78 200.83 159.78 199.34 156.45 193.13 151.75 169.83"/><polygon class="cls-4" points="173.57 167.26 178.97 164.27 190.32 163.32 194.82 166.3 202.95 164.59 209.51 169.83 215.38 174.24 210.54 179.13 207.01 187.79 203.2 191.8 198.64 195.49 192.77 193.56 191.01 192.39 190.13 189.39 171.92 170.25 173.57 168.87 173.57 167.26"/><polygon class="cls-2" points="161.44 165.98 165.06 164.05 168.29 164.05 173.57 157.32 175.73 157.32 180.24 151.65 182.39 150.8 184.84 146.95 209.22 143.21 233.01 138.4 238.22 146.25 237.12 147.29 233.45 141.92 232.27 143.77 228.53 143.93 225.44 146.73 226.4 148.58 230.22 146.01 231.76 147.54 232.86 145.53 234.48 145.77 234.62 149.46 232.13 154.03 228.6 151.79 225.52 154.03 225.66 155.39 230.8 155.39 233.45 157 231.61 160.45 229.41 160.45 226.91 162.21 224.2 161.57 222.29 164.13 222.87 167.34 221.26 169.67 222.14 173.35 220.82 173.35 218.84 171.75 215.38 174.24 202.95 164.59 194.82 166.3 190.32 163.32 178.97 164.27 173.57 167.26 159.78 168.97 161.44 165.98"/><polygon class="cls-3" points="128.15 171.32 111.31 171.32 109.75 174.24 109.75 175.81 105.25 182.66 104.07 186.19 105.34 189.93 105.34 192.49 104.07 194.63 104.66 196.02 104.66 200.83 105.73 203.61 103.48 209.6 99.66 219.65 116.31 219.11 116.6 220.72 115.92 222.64 119.27 227.64 122.79 225.96 129.18 225.88 128.15 208.31 129.03 173.68 128.15 172.39 128.15 171.32"/><polygon class="cls-5" points="104.66 196.02 76.46 196.02 76.46 206.07 78.52 208.64 80.28 217.4 81.85 219.11 80.67 223.82 81.65 226.76 81.45 230.23 79.5 233.01 79.69 234.94 84.91 233.17 89.53 235.58 98.34 237.5 98.64 236.14 94.75 233.73 94.75 231.89 100.4 231.65 100.11 234.29 101.35 235.66 103.04 233.57 104.29 234.62 102.23 238.14 103.41 239.35 106.27 238.54 106.57 240.23 109.21 241.35 112.95 240.71 115.45 239.11 114.28 237.1 115.01 235.98 117.58 238.39 118.24 240.87 122.28 241.03 122.94 238.63 119.42 236.62 118.09 233.81 120.37 230.93 115.89 228.92 112.59 230.77 111.41 229.16 108.84 229.97 107.96 228.36 110.61 225.96 114.5 226.12 119.27 227.64 115.92 222.64 116.6 220.72 116.31 219.11 99.66 219.65 105.73 203.61 104.66 200.83 104.66 196.02"/><polygon class="cls-5" points="184.84 146.95 166.04 149.19 127.66 152.08 128.15 154 116.41 154.54 115.13 159.03 115.13 162.45 114.42 166.19 111.8 168.33 111.31 171.32 128.15 171.32 151.75 169.83 159.78 168.97 161.44 165.98 165.06 164.05 168.29 164.05 173.57 157.32 175.73 157.32 180.24 151.65 182.39 150.8 184.84 146.95"/><polygon class="cls-4" points="233.01 138.4 233.15 135.67 228.09 136.79 224.05 134.15 219.72 133.26 220.16 131.74 225.08 132.06 227.94 134.87 228.97 133.76 226.99 130.22 223.17 129.33 223.24 127.89 226.99 127.89 226.1 124.36 220.57 121.18 217.83 121.18 217.05 118.3 218.22 116.48 217.44 114.34 214.5 113.48 213.13 110.49 211.08 110.49 208.63 113.7 206.08 113.91 205.3 117.65 202.85 118.51 202.17 121.61 200.8 123.11 197.76 122.36 196.59 123 197.18 125.14 196.1 126.42 193.65 126.85 191.89 129.63 191.89 132.84 190.91 133.76 188.36 133.76 186.7 135.29 184.84 134.22 183.18 135.19 182.1 138.4 179.85 136.9 178.18 134.22 177.2 134.44 177.2 137.54 174.17 139.68 171.03 144.06 166.04 149.19 184.84 146.95 209.22 143.21 233.01 138.4"/><polygon class="cls-3" points="211.08 110.49 209.66 107.44 204.08 107.98 200.31 111.13 198.5 114.98 196.98 115.62 196.15 107.71 228.8 102.05 233.15 118.19 238.59 117.39 238.81 122.68 232.93 125.25 231.61 120.35 230.07 121.4 227.87 119.23 226.77 109.29 228.75 105.92 226.62 104.64 223.02 110.17 225 112.17 225.22 118.99 228.09 122.6 227.79 124.68 226.1 124.36 220.57 121.18 217.83 121.18 217.05 118.3 218.22 116.48 217.44 114.34 214.5 113.48 213.13 110.49 211.08 110.49"/><polygon class="cls-6" points="228.8 102.05 229.58 100.98 231.32 102.71 231.54 105.12 237.12 112.33 236.68 115.54 239.25 115.54 238.59 117.39 233.15 118.19 228.8 102.05"/><polygon class="cls-4" points="229.58 100.98 230.41 98.52 232.27 98.25 233.15 96.86 233.15 94.4 230.66 93.28 229.24 90.44 229.24 85.63 230.9 83.39 230.9 81.78 237.75 84.19 235.65 89.48 236.78 90.82 238.83 90.18 239.18 94.69 235.43 106 234.25 106 233.96 103.35 231.32 102.71 229.58 100.98"/><polygon class="cls-2" points="230.9 81.78 228.46 80.82 227.13 78.1 223.9 75.29 190.05 82.83 189.54 80.23 184.06 84.19 187.19 107.28 187.41 109.58 196.15 107.71 228.8 102.05 229.58 100.98 230.41 98.52 232.27 98.25 233.15 96.86 233.15 94.4 230.66 93.28 229.24 90.44 229.24 85.63 230.9 83.39 230.9 81.78"/><polygon class="cls-3" points="239.81 83.28 239.18 82.19 239.81 80.34 238.15 73.77 238.15 71.12 238.15 63.58 237.71 61.66 236.16 53.8 234.62 52.92 234.62 50.27 233.67 43.62 232.05 40.97 231.44 37.15 220.28 39.61 216.07 44.74 214.11 50.19 211.57 53.08 214.11 59.6 211.96 60.46 208.53 63.45 204.62 65.59 200.99 63.45 193.26 65.91 193.46 69.22 195.51 72.43 189.54 80.23 190.05 82.83 223.9 75.29 227.13 78.1 228.46 80.82 230.9 81.78 237.75 84.19 239.81 83.28"/><polygon class="cls-3" points="238.81 86.36 240.13 84.19 243.51 82.67 247.47 80.98 249.23 78.98 250.12 79.38 248.43 81.22 249.16 81.78 250.85 80.1 253.79 78.42 253.79 79.3 249.53 83.31 246.59 86.36 244.02 86.76 243.29 85.87 239.81 88.44 237.63 88.44 237.63 87 238.81 86.36"/><polygon class="cls-7" points="238.15 71.12 252.17 67.67 253.79 73.2 253.71 75.64 250.48 76.97 245.1 78.63 243.34 81.2 239.81 83.28 239.18 82.19 239.81 80.34 238.15 73.77 238.15 71.12"/><polygon class="cls-2" points="252.17 67.67 255.18 66.31 256.43 69.52 258.12 69.52 259.54 72.06 253.71 75.64 253.79 73.2 252.17 67.67"/><polygon class="cls-4" points="237.71 61.66 244.28 60.46 253.57 58.13 254.08 56.57 256.8 55.89 258.8 57.57 256.36 63.02 257.92 63.93 259.59 62.91 262.82 67.46 266.54 66.23 263.6 63.08 264.38 62.11 268.45 65.48 268.2 68.42 263.06 70.24 261.59 69.06 259.54 72.06 258.12 69.52 256.43 69.52 255.18 66.31 252.17 67.67 238.15 71.12 238.15 63.58 237.71 61.66"/><polygon class="cls-8" points="245.34 32.87 245.34 37.15 246.32 37.9 246.32 40.25 243.48 42.44 244.46 44.9 243.82 50.14 244.56 56.5 244.28 60.46 237.71 61.66 236.16 53.8 234.62 52.92 234.62 50.27 233.67 43.62 232.05 40.97 231.44 37.15 245.34 32.87"/><polygon class="cls-7" points="257.24 54.2 255.85 53.4 247.62 29.43 245.34 30.39 245.34 32.87 245.34 37.15 246.32 37.9 246.32 40.25 243.48 42.44 244.46 44.9 243.82 50.14 244.56 56.5 244.28 60.46 253.57 58.13 254.08 56.57 256.8 55.89 257.24 54.2"/><polygon class="cls-8" points="247.62 29.43 249.6 28.46 251.29 20.28 249.31 13.71 252.83 0.88 255.03 3.04 258.49 1.28 264.73 3.04 270.6 18.84 275.45 19.56 280 25.98 275.52 32.15 271.48 34.32 269.72 33.03 266.86 32.39 267.08 40.57 264.21 40.17 264.21 44.82 262.82 45.54 261.2 43.46 260.03 44.42 260.03 50.51 259.15 53.16 257.24 54.2 255.85 53.4 247.62 29.43"/><polygon class="cls-8" points="177.2 134.44 176.27 131.71 175.05 131.71 174.61 128.61 175.91 126.47 175.59 124.18 177.2 122.52 176.91 120.38 177.94 119.2 179.8 119.2 180.19 115.73 182.15 114.87 185.08 110.49 185.08 108.41 187.19 107.28 187.41 109.58 196.15 107.71 196.98 115.62 198.5 114.98 200.31 111.13 204.08 107.98 209.66 107.44 211.08 110.49 208.63 113.7 206.08 113.91 205.3 117.65 202.85 118.51 202.17 121.61 200.8 123.11 197.76 122.36 196.59 123 197.18 125.14 196.1 126.42 193.65 126.85 191.89 129.63 191.89 132.84 190.91 133.76 188.36 133.76 186.7 135.29 184.84 134.22 183.18 135.19 182.1 138.4 179.85 136.9 178.18 134.22 177.2 134.44"/><polygon class="cls-7" points="163.32 90.12 150.25 90.85 153.41 120.83 155.18 120.83 157.53 122.52 161.34 122.52 163.77 123.88 167.73 124.44 169.35 123.16 173.24 126.29 175.91 126.47 175.59 124.18 177.2 122.52 176.91 120.38 177.94 119.2 179.8 119.2 180.19 115.73 182.15 114.87 185.08 110.49 185.08 108.41 187.19 107.28 184.06 84.19 180.82 84.08 175.34 90.18 172.8 88.44 165.9 92.37 163.32 90.12"/><polygon class="cls-2" points="153.41 120.83 153.41 123.88 152.31 125.25 150.25 125.56 148.79 127.49 149.3 130.22 145.63 135.03 143.97 135.03 142.4 132.86 141.3 133.26 141.3 135.51 140.49 136.55 138.58 135.83 137.41 137.11 134.91 137.11 132.78 136.47 130.8 137.11 129.77 138.4 128.15 139.2 126.83 144.33 125.44 144.33 124.48 146.57 120.96 146.09 119.93 146.95 119.12 149.19 119.86 150.9 119.12 152.83 116.33 153.23 116.41 154.54 128.15 154 127.66 152.08 166.04 149.19 171.03 144.06 174.17 139.68 177.2 137.54 177.2 134.44 176.27 131.71 175.05 131.71 174.61 128.61 175.91 126.47 173.24 126.29 169.35 123.16 167.73 124.44 163.77 123.88 161.34 122.52 157.53 122.52 155.18 120.83 153.41 120.83"/><polygon class="cls-4" points="150.25 90.85 133.51 91.97 131.16 93.65 128.81 92.93 130.6 122.36 131.58 126.47 128.15 133.76 128.15 139.2 129.77 138.4 130.8 137.11 132.78 136.47 134.91 137.11 137.41 137.11 138.58 135.83 140.49 136.55 141.3 135.51 141.3 133.26 142.4 132.86 143.97 135.03 145.63 135.03 149.3 130.22 148.79 127.49 150.25 125.56 152.31 125.25 153.41 123.88 153.41 120.83 150.25 90.85"/><polygon class="cls-8" points="128.81 92.93 124.78 84.91 102.21 85.37 105.54 88.25 107.99 91.78 108.28 94.45 103.87 97.88 103.68 99.37 101.03 100.44 101.03 105.68 99.17 108.25 98.49 111.99 98.49 118.3 100.35 120.83 103.09 120.83 105.25 126.47 108.08 126.47 109.65 128.13 109.85 131.34 108.48 133.76 113.17 139.68 114.55 139.68 115.52 142.03 115.43 145.45 117.09 147.8 119.12 149.19 119.93 146.95 120.96 146.09 124.48 146.57 125.44 144.33 126.83 144.33 128.15 139.2 128.15 133.76 131.58 126.47 130.6 122.36 128.81 92.93"/><polygon class="cls-7" points="124.78 84.91 125.51 80.5 123.75 71.84 125.31 64.52 130.6 51.48 129.33 50.73 126.98 53.72 126.2 57.14 122.87 60.13 122.48 63.98 120.22 64.52 120.71 61.1 124.73 54.68 123.38 52.92 122.79 49.31 120.22 46.02 110.75 41.37 107.89 41.77 104.17 38.75 100.84 38.22 101.23 35.76 99.57 34.48 96.73 36.51 90.36 38.22 90.36 45.06 88.5 47.47 85.86 47.55 87.25 54.68 85.86 56.29 85.86 59.69 88.94 63.42 90.93 63.18 93.57 67.19 96.14 67.75 96.21 70.24 98.12 70.8 98.49 75.05 99.66 76.41 99.52 78.58 98.49 80.5 99.44 82.67 102.21 85.37 124.78 84.91"/><polygon class="cls-2" points="104.17 38.75 104.95 35.23 113.27 32.34 113.27 29.56 119.83 25.71 121.59 27.42 116.89 31.05 116.21 35.76 117.97 36.4 120.22 33.73 124.83 37.36 127.08 36.94 129.82 38.75 133.54 34.48 141.37 31.7 142.45 32.77 142.45 35.12 143.43 36.51 145.97 34.69 148.62 37.15 149.2 38.75 154.49 39.72 154.49 41.43 146.27 41.43 145.38 42.82 143.62 42.82 143.72 41.1 138.92 40.14 137.06 42.82 133.54 42.82 132.56 48.8 130.8 48.38 130.21 44.42 126.29 48.05 124.73 54.68 123.38 52.92 122.79 49.31 120.22 46.02 110.75 41.37 107.89 41.77 104.17 38.75"/><polygon class="cls-2" points="134.54 57.89 138.14 55.4 139.75 51.23 141.52 51.64 140.27 55.65 142.18 55.89 143.21 53.24 143.21 49.47 144.97 48.19 144.38 45.78 147.25 43.7 149.67 45.54 156.2 47.06 158.26 50.59 157.38 53.08 158.99 57.97 157.23 63.18 154.96 63.58 154.29 67.11 156.79 68.8 158.99 66.31 158.99 63.58 162.3 62.22 165.53 63.98 168.83 75.45 168.83 79.7 165.82 79.3 165.38 80.66 166.7 82.11 165.97 86.11 163.32 90.12 150.25 90.85 133.51 91.97 137.11 85.39 137.77 75.29 134.62 70.32 134.03 66.47 135.42 63.1 134.54 57.89"/><polygon class="cls-4" points="115.13 159.03 111.31 159.14 110.24 157.08 110.83 154.54 71.91 155.47 73.45 172.47 73.6 188.99 76.46 190.19 76.46 196.02 104.66 196.02 104.07 194.63 105.34 192.49 105.34 189.93 104.07 186.19 105.25 182.66 109.75 175.81 109.75 174.24 111.31 171.32 111.8 168.33 114.42 166.19 115.13 162.45 115.13 159.03"/><polygon class="cls-5" points="98.49 111.99 95.06 108.03 65.01 108.67 66.18 115.02 70.29 117.05 70.49 118.72 69.51 120.33 69.51 123 71.91 125.56 71.91 149.73 71.91 155.47 110.83 154.54 110.24 157.08 111.31 159.14 115.13 159.03 116.41 154.54 116.33 153.23 119.12 152.83 119.86 150.9 119.12 149.19 117.09 147.8 115.43 145.45 115.52 142.03 114.55 139.68 113.17 139.68 108.48 133.76 109.85 131.34 109.65 128.13 108.08 126.47 105.25 126.47 103.09 120.83 100.35 120.83 98.49 118.3 98.49 111.99"/><polygon class="cls-2" points="102.21 85.37 99.44 82.67 98.49 80.5 99.52 78.58 99.66 76.41 98.49 75.05 58.1 74.57 56.2 74.57 57.88 77.38 58.1 85.95 59.79 90.04 60.82 93.25 61.04 97.1 62.88 99.91 62.73 106.24 65.01 108.67 95.06 108.03 98.49 111.99 99.17 108.25 101.03 105.68 101.03 100.44 103.68 99.37 103.87 97.88 108.28 94.45 107.99 91.78 105.54 88.25 102.21 85.37"/><polygon class="cls-3" points="58.1 74.57 58.1 52.97 58.1 45.27 58.1 36.94 56.69 26.24 54.04 16.52 54.51 10.82 67.72 10.42 72.57 13.87 76.98 15.07 83.95 16.59 85.93 15.71 87.55 17.16 87.25 19.24 93.86 20.84 104.17 19.72 108.08 20.04 108.87 21.86 100.45 25.71 97.02 28.38 95.85 31.8 92.61 33.3 90.17 36.62 90.36 38.22 90.36 45.06 88.5 47.47 85.86 47.55 87.25 54.68 85.86 56.29 85.86 59.69 88.94 63.42 90.93 63.18 93.57 67.19 96.14 67.75 96.21 70.24 98.12 70.8 98.49 75.05 58.1 74.57"/><polygon class="cls-2" points="58.1 45.27 29.54 44.26 2.15 42.09 5.68 7.21 54.51 10.82 54.04 16.52 56.69 26.24 58.1 36.94 58.1 45.27"/><polyline class="cls-8" points="0.12 76.55 31.23 79.06 36.44 81.63 40.41 82.19 44.15 84.11 49.88 82.67 53.48 83.47 58.1 85.95 57.88 77.38 56.2 74.57 58.1 74.57 58.1 45.27 29.54 44.26 2.15 42.09 0.98 53.32 0.12 61.01"/><polyline class="cls-6" points="0.12 99.55 12.53 101.08 11.75 111.99 40.24 113.81 66.18 115.02 65.01 108.67 62.73 106.24 62.88 99.91 61.04 97.1 60.82 93.25 59.79 90.04 58.1 85.95 53.48 83.47 49.88 82.67 44.15 84.11 40.41 82.19 36.44 81.63 31.23 79.06 0.12 76.55"/><polygon class="cls-2" points="11.75 111.99 8.65 146.88 40.24 148.34 71.91 149.73 71.91 125.56 69.51 123 69.51 120.33 70.49 118.72 70.29 117.05 66.18 115.02 11.75 111.99"/><polyline class="cls-6" points="0.12 151.73 24.87 154.54 24.48 177.31 30.35 178.38 32.8 181.59 37.01 182.76 39.06 184.69 40.01 184.34 40.01 183.1 41.4 183.14 43.75 187.27 50.67 187.27 52.36 184.9 55.9 186.02 56.64 188.23 58.1 188.23 59.35 186.63 68.16 186.38 72.42 190.03 73.6 188.99 73.45 172.47 71.91 155.47 71.91 149.73 8.65 146.88 0.12 146.42"/><polyline class="cls-3" points="0.12 229.44 11.55 233.65 17.28 241.67 21.76 254.58 25.65 257.63 26.61 264.69 30.06 267.89 30.35 270.94 34.46 275.11 43.05 275.75 44.45 278.48 47.24 278.48 47.16 273.99 45.55 271.9 45.7 269.66 44.3 265.09 42.02 263.24 42.32 261.08 45.48 261.56 46.28 257.15 43.79 255.78 44.01 254.42 48.78 254.9 49.66 250.57 51.79 248.49 54.07 249.45 64.57 244.56 67.5 241.75 70 242.07 71.32 240.15 69.49 238.78 69.49 236.62 68.09 234.38 71.03 232.77 71.39 235.58 73.23 237.74 76.68 235.02 79.69 234.94 79.5 233.01 81.45 230.23 81.65 226.76 80.67 223.82 81.85 219.11 80.28 217.4 78.52 208.64 76.46 206.07 76.46 196.02 76.46 190.19 73.6 188.99 72.42 190.03 68.16 186.38 59.35 186.63 58.1 188.23 56.64 188.23 55.9 186.02 52.36 184.9 50.67 187.27 43.75 187.27 41.4 183.14 40.01 183.1 40.01 184.34 39.06 184.69 37.01 182.76 32.8 181.59 30.35 178.38 24.48 177.31 24.87 154.54 0.12 151.73"/><line class="cls-4" x1="0.12" y1="146.42" y2="146.41"/><polyline class="cls-4" points="0.12 99.55 12.53 101.08 11.75 111.99 8.65 146.88 0.12 146.42"/><line class="cls-3" x1="0.12" y1="61.01" x2="0.09" y2="61.34"/><polyline class="cls-3" points="0.09 53.18 0.98 53.32 0.12 61.01"/><polyline class="cls-5" points="0.12 6.16 5.68 7.21 2.15 42.09 0.98 53.32 0.1 53.18"/><line class="cls-1" x1="0.12" y1="151.73" x2="0.12" y2="280"/><line class="cls-1" x1="0.12" x2="0.12" y2="151.73"/></g></g></svg>