<svg xmlns="http://www.w3.org/2000/svg" viewBox="0 0 280 280"><defs><style>.cls-1{fill:#ece8dd;}.cls-2{fill:#fff;}.cls-3{fill:#67ccee;}.cls-4{fill:#8ec536;}.cls-5{fill:#f1625c;}.cls-6{fill:#f5b659;}.cls-7{fill:#f29a76;}</style></defs><title>Asset 2</title><g id="Layer_2" data-name="Layer 2"><g id="Layer_1-2" data-name="Layer 1"><path class="cls-1" d="M3.55,140A136.45,136.45,0,1,0,140,3.55,136.45,136.45,0,0,0,3.55,140ZM80,140a60,60,0,1,1,60,60A60,60,0,0,1,80,140Z"/><path class="cls-2" d="M0,140C0,62.8,62.8,0,140,0S280,62.8,280,140,217.2,280,140,280,0,217.2,0,140Zm7.1,0c0,73.28,59.62,132.9,132.9,132.9S272.9,213.28,272.9,140,213.28,7.1,140,7.1,7.1,66.72,7.1,140Zm69.38,0A63.52,63.52,0,1,1,140,203.52,63.59,63.59,0,0,1,76.48,140Zm7.1,0A56.42,56.42,0,1,0,140,83.58,56.48,56.48,0,0,0,83.58,140Z"/><path class="cls-3" d="M7,170.35l74.59-17A60,60,0,0,0,114,194L80.77,263A136.71,136.71,0,0,1,7,170.35Z"/><path class="cls-2" d="M79.23,266.15a141.14,141.14,0,0,1-75.71-95,3.55,3.55,0,0,1,2.67-4.25l74.59-17a3.49,3.49,0,0,1,2.68.45A3.62,3.62,0,0,1,85,152.54a56.09,56.09,0,0,0,30.5,38.24,3.55,3.55,0,0,1,1.66,4.74L84,264.5a3.56,3.56,0,0,1-2,1.81,3.7,3.7,0,0,1-1.18.2A3.48,3.48,0,0,1,79.23,266.15ZM79,157.56,11.28,173a134.12,134.12,0,0,0,67.86,85.16l30.17-62.63A63.11,63.11,0,0,1,79,157.56Z"/><path class="cls-4" d="M80.78,263,114,194a59.4,59.4,0,0,0,52,0l33.22,69a136.75,136.75,0,0,1-118.43,0Z"/><path class="cls-2" d="M79.23,266.15a3.54,3.54,0,0,1-1.65-4.73l33.22-69a3.54,3.54,0,0,1,4.75-1.66,56.09,56.09,0,0,0,48.9,0,3.55,3.55,0,0,1,4.74,1.66l33.22,69a3.54,3.54,0,0,1-1.66,4.73,140.25,140.25,0,0,1-121.52,0Zm85.06-67.51a63.11,63.11,0,0,1-48.59,0L85.53,261.26a133.27,133.27,0,0,0,108.92,0Z"/><path class="cls-5" d="M199.21,263,166,194a60,60,0,0,0,32.44-40.64l74.59,17A136.72,136.72,0,0,1,199.21,263Z"/><path class="cls-2" d="M198,266.32a3.6,3.6,0,0,1-2-1.82l-33.22-69a3.56,3.56,0,0,1,1.66-4.74A56.06,56.06,0,0,0,195,152.55a3.59,3.59,0,0,1,1.58-2.22,3.47,3.47,0,0,1,2.68-.45l74.59,17a3.56,3.56,0,0,1,2.67,4.25,141.15,141.15,0,0,1-75.72,95,3.51,3.51,0,0,1-1.55.35A3.63,3.63,0,0,1,198,266.32Zm3-108.75a63.11,63.11,0,0,1-30.32,38l30.16,62.63A134.16,134.16,0,0,0,268.72,173Z"/><path class="cls-6" d="M200,140a59.74,59.74,0,0,0-13.11-37.37L246.66,55A136.25,136.25,0,0,1,273,170.36l-74.59-17A59.89,59.89,0,0,0,200,140Z"/><path class="cls-2" d="M272.23,173.82l-74.59-17a3.55,3.55,0,0,1-2.67-4.25A56.84,56.84,0,0,0,196.42,140a55.8,55.8,0,0,0-12.34-35.15,3.56,3.56,0,0,1,.56-5l59.81-47.69a3.55,3.55,0,0,1,5,.56A138.46,138.46,0,0,1,280,140a141,141,0,0,1-3.52,31.15,3.53,3.53,0,0,1-3.46,2.76A3,3,0,0,1,272.23,173.82Zm-80.46-70.57a62.91,62.91,0,0,1,10.82,47.39L270.3,166.1a133.77,133.77,0,0,0,2.6-26.1,131.37,131.37,0,0,0-26.84-80Z"/><path class="cls-7" d="M246.66,54.94l-59.8,47.69A59.83,59.83,0,0,0,140,80V3.55A136.17,136.17,0,0,1,246.66,54.94Z"/><path class="cls-2" d="M184.08,104.85A56.14,56.14,0,0,0,140,83.58,3.55,3.55,0,0,1,136.45,80V3.55A3.55,3.55,0,0,1,140,0,139.37,139.37,0,0,1,249.43,52.73a3.54,3.54,0,0,1-.56,5l-59.8,47.69a3.56,3.56,0,0,1-5-.56ZM143.55,7.15V76.58a63.12,63.12,0,0,1,43.79,21.13l54.29-43.3A132.25,132.25,0,0,0,143.55,7.15Z"/></g></g></svg>