<svg xmlns="http://www.w3.org/2000/svg" viewBox="0 0 281.15 281"><defs><style>.cls-1{fill:#ecf4f9;}.cls-1,.cls-10,.cls-11,.cls-12,.cls-13,.cls-2,.cls-3,.cls-4,.cls-5,.cls-6,.cls-7,.cls-8,.cls-9{stroke:#000;stroke-miterlimit:10;}.cls-2{fill:#f6fbfd;}.cls-3{fill:#a3bcda;}.cls-4{fill:#8a5caa;}.cls-5{fill:#e4eff5;}.cls-6{fill:#550253;}.cls-7{fill:#c9dbea;}.cls-8{fill:#bdd2e6;}.cls-9{fill:#8952a5;}.cls-10{fill:#9cb3d5;}.cls-11{fill:#ebf4f8;}.cls-12{fill:#8c7ab8;}.cls-13{fill:#4d004b;}</style></defs><title>Asset 3</title><g id="Layer_2" data-name="Layer 2"><g id="Layer_1-2" data-name="Layer 1"><polygon class="cls-1" points="44.02 127.77 34.37 127.77 29.54 136.26 34.37 144.74 44.02 144.74 48.85 136.26 44.02 127.77"/><polygon class="cls-2" points="58.51 153.23 48.85 153.23 44.02 161.71 48.85 170.2 58.51 170.2 63.33 161.71 58.51 153.23"/><polygon class="cls-2" points="58.51 136.26 48.85 136.26 44.02 144.74 48.85 153.23 58.51 153.23 63.33 144.74 58.51 136.26"/><polygon class="cls-2" points="15.06 144.74 5.4 144.74 0.57 153.23 5.4 161.71 15.06 161.71 19.89 153.23 15.06 144.74"/><polygon class="cls-3" points="87.47 119.29 77.82 119.29 72.99 127.77 77.82 136.26 87.47 136.26 92.3 127.77 87.47 119.29"/><polygon class="cls-3" points="101.95 127.77 92.3 127.77 87.47 136.26 92.3 144.74 101.95 144.74 106.78 136.26 101.95 127.77"/><polygon class="cls-4" points="101.95 110.8 92.3 110.8 87.47 119.29 92.3 127.77 101.95 127.77 106.78 119.29 101.95 110.8"/><polygon class="cls-5" points="72.99 127.77 63.33 127.77 58.51 136.26 63.33 144.74 72.99 144.74 77.82 136.26 72.99 127.77"/><polygon class="cls-5" points="72.99 110.8 63.33 110.8 58.51 119.29 63.33 127.77 72.99 127.77 77.82 119.29 72.99 110.8"/><polygon class="cls-4" points="101.95 144.74 92.3 144.74 87.47 153.23 92.3 161.71 101.95 161.71 106.78 153.23 101.95 144.74"/><polygon class="cls-4" points="116.44 153.23 106.78 153.23 101.95 161.71 106.78 170.2 116.44 170.2 121.27 161.71 116.44 153.23"/><polygon class="cls-6" points="116.44 136.26 106.78 136.26 101.95 144.74 106.78 153.23 116.44 153.23 121.27 144.74 116.44 136.26"/><polygon class="cls-1" points="72.99 144.74 63.33 144.74 58.51 153.23 63.33 161.71 72.99 161.71 77.82 153.23 72.99 144.74"/><polygon class="cls-2" points="87.47 153.23 77.82 153.23 72.99 161.71 77.82 170.2 87.47 170.2 92.3 161.71 87.47 153.23"/><polygon class="cls-5" points="87.47 136.26 77.82 136.26 72.99 144.74 77.82 153.23 87.47 153.23 92.3 144.74 87.47 136.26"/><polygon class="cls-2" points="72.99 178.68 63.33 178.68 58.51 187.17 63.33 195.65 72.99 195.65 77.82 187.17 72.99 178.68"/><polygon class="cls-2" points="72.99 161.71 63.33 161.71 58.51 170.2 63.33 178.68 72.99 178.68 77.82 170.2 72.99 161.71"/><polygon class="cls-2" points="44.02 178.68 34.37 178.68 29.54 187.17 34.37 195.65 44.02 195.65 48.85 187.17 44.02 178.68"/><polygon class="cls-3" points="72.99 195.65 63.33 195.65 58.51 204.14 63.33 212.62 72.99 212.62 77.82 204.14 72.99 195.65"/><polygon class="cls-2" points="87.47 204.14 77.82 204.14 72.99 212.62 77.82 221.11 87.47 221.11 92.3 212.62 87.47 204.14"/><polygon class="cls-2" points="87.47 187.17 77.82 187.17 72.99 195.65 77.82 204.14 87.47 204.14 92.3 195.65 87.47 187.17"/><polygon class="cls-2" points="44.02 195.65 34.37 195.65 29.54 204.14 34.37 212.62 44.02 212.62 48.85 204.14 44.02 195.65"/><polygon class="cls-1" points="58.51 204.14 48.85 204.14 44.02 212.62 48.85 221.11 58.51 221.11 63.33 212.62 58.51 204.14"/><polygon class="cls-1" points="58.51 187.17 48.85 187.17 44.02 195.65 48.85 204.14 58.51 204.14 63.33 195.65 58.51 187.17"/><polygon class="cls-2" points="44.02 229.59 34.37 229.59 29.54 238.08 34.37 246.56 44.02 246.56 48.85 238.08 44.02 229.59"/><polygon class="cls-2" points="44.02 212.62 34.37 212.62 29.54 221.11 34.37 229.59 44.02 229.59 48.85 221.11 44.02 212.62"/><polygon class="cls-2" points="58.51 238.08 48.85 238.08 44.02 246.56 48.85 255.04 58.51 255.04 63.33 246.56 58.51 238.08"/><polygon class="cls-7" points="15.06 246.56 5.4 246.56 0.57 255.04 5.4 263.53 15.06 263.53 19.89 255.04 15.06 246.56"/><polygon class="cls-2" points="29.54 255.04 19.89 255.04 15.06 263.53 19.89 272.01 29.54 272.01 34.37 263.53 29.54 255.04"/><polygon class="cls-7" points="29.54 238.08 19.89 238.08 15.06 246.56 19.89 255.04 29.54 255.04 34.37 246.56 29.54 238.08"/><polygon class="cls-2" points="58.51 68.38 48.85 68.38 44.02 76.86 48.85 85.35 58.51 85.35 63.33 76.86 58.51 68.38"/><polygon class="cls-8" points="72.99 76.86 63.33 76.86 58.51 85.35 63.33 93.83 72.99 93.83 77.82 85.35 72.99 76.86"/><polygon class="cls-2" points="72.99 93.83 63.33 93.83 58.51 102.32 63.33 110.8 72.99 110.8 77.82 102.32 72.99 93.83"/><polygon class="cls-3" points="87.47 102.32 77.82 102.32 72.99 110.8 77.82 119.29 87.47 119.29 92.3 110.8 87.47 102.32"/><polygon class="cls-1" points="87.47 85.35 77.82 85.35 72.99 93.83 77.82 102.32 87.47 102.32 92.3 93.83 87.47 85.35"/><polygon class="cls-1" points="44.02 93.83 34.37 93.83 29.54 102.32 34.37 110.8 44.02 110.8 48.85 102.32 44.02 93.83"/><polygon class="cls-8" points="116.44 68.38 106.78 68.38 101.95 76.86 106.78 85.35 116.44 85.35 121.27 76.86 116.44 68.38"/><polygon class="cls-6" points="130.92 76.86 121.27 76.86 116.44 85.35 121.27 93.83 130.92 93.83 135.75 85.35 130.92 76.86"/><polygon class="cls-1" points="130.92 59.89 121.27 59.89 116.44 68.38 121.27 76.86 130.92 76.86 135.75 68.38 130.92 59.89"/><polygon class="cls-2" points="101.95 76.86 92.3 76.86 87.47 85.35 92.3 93.83 101.95 93.83 106.78 85.35 101.95 76.86"/><polygon class="cls-8" points="101.95 59.89 92.3 59.89 87.47 68.38 92.3 76.86 101.95 76.86 106.78 68.38 101.95 59.89"/><polygon class="cls-4" points="130.92 93.83 121.27 93.83 116.44 102.32 121.27 110.8 130.92 110.8 135.75 102.32 130.92 93.83"/><polygon class="cls-4" points="145.4 102.32 135.75 102.32 130.92 110.8 135.75 119.29 145.4 119.29 150.23 110.8 145.4 102.32"/><polygon class="cls-2" points="145.4 85.35 135.75 85.35 130.92 93.83 135.75 102.32 145.4 102.32 150.23 93.83 145.4 85.35"/><polygon class="cls-2" points="101.95 93.83 92.3 93.83 87.47 102.32 92.3 110.8 101.95 110.8 106.78 102.32 101.95 93.83"/><polygon class="cls-6" points="116.44 102.32 106.78 102.32 101.95 110.8 106.78 119.29 116.44 119.29 121.27 110.8 116.44 102.32"/><polygon class="cls-6" points="116.44 85.35 106.78 85.35 101.95 93.83 106.78 102.32 116.44 102.32 121.27 93.83 116.44 85.35"/><polygon class="cls-7" points="15.06 263.53 5.4 263.53 0.57 272.01 5.4 280.5 15.06 280.5 19.89 272.01 15.06 263.53"/><polygon class="cls-2" points="72.99 263.53 63.33 263.53 58.51 272.01 63.33 280.5 72.99 280.5 77.82 272.01 72.99 263.53"/><polygon class="cls-2" points="44.02 263.53 34.37 263.53 29.54 272.01 34.37 280.5 44.02 280.5 48.85 272.01 44.02 263.53"/><polygon class="cls-2" points="130.92 263.53 121.27 263.53 116.44 272.01 121.27 280.5 130.92 280.5 135.75 272.01 130.92 263.53"/><polygon class="cls-2" points="101.95 263.53 92.3 263.53 87.47 272.01 92.3 280.5 101.95 280.5 106.78 272.01 101.95 263.53"/><polygon class="cls-3" points="87.47 221.11 77.82 221.11 72.99 229.59 77.82 238.08 87.47 238.08 92.3 229.59 87.47 221.11"/><polygon class="cls-4" points="101.95 229.59 92.3 229.59 87.47 238.08 92.3 246.56 101.95 246.56 106.78 238.08 101.95 229.59"/><polygon class="cls-4" points="101.95 212.62 92.3 212.62 87.47 221.11 92.3 229.59 101.95 229.59 106.78 221.11 101.95 212.62"/><polygon class="cls-1" points="58.51 221.11 48.85 221.11 44.02 229.59 48.85 238.08 58.51 238.08 63.33 229.59 58.51 221.11"/><polygon class="cls-1" points="72.99 229.59 63.33 229.59 58.51 238.08 63.33 246.56 72.99 246.56 77.82 238.08 72.99 229.59"/><polygon class="cls-2" points="72.99 212.62 63.33 212.62 58.51 221.11 63.33 229.59 72.99 229.59 77.82 221.11 72.99 212.62"/><polygon class="cls-2" points="101.95 246.56 92.3 246.56 87.47 255.04 92.3 263.53 101.95 263.53 106.78 255.04 101.95 246.56"/><polygon class="cls-2" points="116.44 238.08 106.78 238.08 101.95 246.56 106.78 255.04 116.44 255.04 121.27 246.56 116.44 238.08"/><polygon class="cls-2" points="72.99 246.56 63.33 246.56 58.51 255.04 63.33 263.53 72.99 263.53 77.82 255.04 72.99 246.56"/><polygon class="cls-7" points="87.47 255.04 77.82 255.04 72.99 263.53 77.82 272.01 87.47 272.01 92.3 263.53 87.47 255.04"/><polygon class="cls-7" points="87.47 238.08 77.82 238.08 72.99 246.56 77.82 255.04 87.47 255.04 92.3 246.56 87.47 238.08"/><polygon class="cls-2" points="145.4 221.11 135.75 221.11 130.92 229.59 135.75 238.08 145.4 238.08 150.23 229.59 145.4 221.11"/><polygon class="cls-2" points="159.89 229.59 150.23 229.59 145.4 238.08 150.23 246.56 159.89 246.56 164.71 238.08 159.89 229.59"/><polygon class="cls-2" points="116.44 221.11 106.78 221.11 101.95 229.59 106.78 238.08 116.44 238.08 121.27 229.59 116.44 221.11"/><polygon class="cls-2" points="130.92 229.59 121.27 229.59 116.44 238.08 121.27 246.56 130.92 246.56 135.75 238.08 130.92 229.59"/><polygon class="cls-2" points="130.92 212.62 121.27 212.62 116.44 221.11 121.27 229.59 130.92 229.59 135.75 221.11 130.92 212.62"/><polygon class="cls-2" points="159.89 246.56 150.23 246.56 145.4 255.04 150.23 263.53 159.89 263.53 164.71 255.04 159.89 246.56"/><polygon class="cls-2" points="174.37 255.04 164.71 255.04 159.89 263.53 164.71 272.01 174.37 272.01 179.2 263.53 174.37 255.04"/><polygon class="cls-2" points="174.37 238.08 164.71 238.08 159.89 246.56 164.71 255.04 174.37 255.04 179.2 246.56 174.37 238.08"/><polygon class="cls-2" points="130.92 246.56 121.27 246.56 116.44 255.04 121.27 263.53 130.92 263.53 135.75 255.04 130.92 246.56"/><polygon class="cls-6" points="116.44 170.2 106.78 170.2 101.95 178.68 106.78 187.17 116.44 187.17 121.27 178.68 116.44 170.2"/><polygon class="cls-6" points="130.92 178.68 121.27 178.68 116.44 187.17 121.27 195.65 130.92 195.65 135.75 187.17 130.92 178.68"/><polygon class="cls-2" points="130.92 161.71 121.27 161.71 116.44 170.2 121.27 178.68 130.92 178.68 135.75 170.2 130.92 161.71"/><polygon class="cls-3" points="87.47 170.2 77.82 170.2 72.99 178.68 77.82 187.17 87.47 187.17 92.3 178.68 87.47 170.2"/><polygon class="cls-2" points="101.95 178.68 92.3 178.68 87.47 187.17 92.3 195.65 101.95 195.65 106.78 187.17 101.95 178.68"/><polygon class="cls-6" points="101.95 161.71 92.3 161.71 87.47 170.2 92.3 178.68 101.95 178.68 106.78 170.2 101.95 161.71"/><polygon class="cls-4" points="130.92 195.65 121.27 195.65 116.44 204.14 121.27 212.62 130.92 212.62 135.75 204.14 130.92 195.65"/><polygon class="cls-2" points="145.4 204.14 135.75 204.14 130.92 212.62 135.75 221.11 145.4 221.11 150.23 212.62 145.4 204.14"/><polygon class="cls-2" points="145.4 187.17 135.75 187.17 130.92 195.65 135.75 204.14 145.4 204.14 150.23 195.65 145.4 187.17"/><polygon class="cls-6" points="101.95 195.65 92.3 195.65 87.47 204.14 92.3 212.62 101.95 212.62 106.78 204.14 101.95 195.65"/><polygon class="cls-4" points="116.44 204.14 106.78 204.14 101.95 212.62 106.78 221.11 116.44 221.11 121.27 212.62 116.44 204.14"/><polygon class="cls-2" points="116.44 187.17 106.78 187.17 101.95 195.65 106.78 204.14 116.44 204.14 121.27 195.65 116.44 187.17"/><polygon class="cls-2" points="174.37 170.2 164.71 170.2 159.89 178.68 164.71 187.17 174.37 187.17 179.2 178.68 174.37 170.2"/><polygon class="cls-2" points="188.85 178.68 179.2 178.68 174.37 187.17 179.2 195.65 188.85 195.65 193.68 187.17 188.85 178.68"/><polygon class="cls-2" points="188.85 161.71 179.2 161.71 174.37 170.2 179.2 178.68 188.85 178.68 193.68 170.2 188.85 161.71"/><polygon class="cls-2" points="145.4 170.2 135.75 170.2 130.92 178.68 135.75 187.17 145.4 187.17 150.23 178.68 145.4 170.2"/><polygon class="cls-7" points="159.89 178.68 150.23 178.68 145.4 187.17 150.23 195.65 159.89 195.65 164.71 187.17 159.89 178.68"/><polygon class="cls-2" points="159.89 161.71 150.23 161.71 145.4 170.2 150.23 178.68 159.89 178.68 164.71 170.2 159.89 161.71"/><polygon class="cls-2" points="188.85 195.65 179.2 195.65 174.37 204.14 179.2 212.62 188.85 212.62 193.68 204.14 188.85 195.65"/><polygon class="cls-2" points="203.33 204.14 193.68 204.14 188.85 212.62 193.68 221.11 203.33 221.11 208.16 212.62 203.33 204.14"/><polygon class="cls-2" points="203.33 187.17 193.68 187.17 188.85 195.65 193.68 204.14 203.33 204.14 208.16 195.65 203.33 187.17"/><polygon class="cls-2" points="159.89 195.65 150.23 195.65 145.4 204.14 150.23 212.62 159.89 212.62 164.71 204.14 159.89 195.65"/><polygon class="cls-2" points="174.37 204.14 164.71 204.14 159.89 212.62 164.71 221.11 174.37 221.11 179.2 212.62 174.37 204.14"/><polygon class="cls-2" points="174.37 187.17 164.71 187.17 159.89 195.65 164.71 204.14 174.37 204.14 179.2 195.65 174.37 187.17"/><polygon class="cls-2" points="145.4 119.29 135.75 119.29 130.92 127.77 135.75 136.26 145.4 136.26 150.23 127.77 145.4 119.29"/><polygon class="cls-2" points="159.89 127.77 150.23 127.77 145.4 136.26 150.23 144.74 159.89 144.74 164.71 136.26 159.89 127.77"/><polygon class="cls-2" points="159.89 110.8 150.23 110.8 145.4 119.29 150.23 127.77 159.89 127.77 164.71 119.29 159.89 110.8"/><polygon class="cls-6" points="116.44 119.29 106.78 119.29 101.95 127.77 106.78 136.26 116.44 136.26 121.27 127.77 116.44 119.29"/><polygon class="cls-7" points="130.92 127.77 121.27 127.77 116.44 136.26 121.27 144.74 130.92 144.74 135.75 136.26 130.92 127.77"/><polygon class="cls-4" points="130.92 110.8 121.27 110.8 116.44 119.29 121.27 127.77 130.92 127.77 135.75 119.29 130.92 110.8"/><polygon class="cls-2" points="159.89 144.74 150.23 144.74 145.4 153.23 150.23 161.71 159.89 161.71 164.71 153.23 159.89 144.74"/><polygon class="cls-2" points="174.37 153.23 164.71 153.23 159.89 161.71 164.71 170.2 174.37 170.2 179.2 161.71 174.37 153.23"/><polygon class="cls-7" points="174.37 136.26 164.71 136.26 159.89 144.74 164.71 153.23 174.37 153.23 179.2 144.74 174.37 136.26"/><polygon class="cls-6" points="130.92 144.74 121.27 144.74 116.44 153.23 121.27 161.71 130.92 161.71 135.75 153.23 130.92 144.74"/><polygon class="cls-2" points="145.4 153.23 135.75 153.23 130.92 161.71 135.75 170.2 145.4 170.2 150.23 161.71 145.4 153.23"/><polygon class="cls-7" points="145.4 136.26 135.75 136.26 130.92 144.74 135.75 153.23 145.4 153.23 150.23 144.74 145.4 136.26"/><polygon class="cls-9" points="203.33 119.29 193.68 119.29 188.85 127.77 193.68 136.26 203.33 136.26 208.16 127.77 203.33 119.29"/><polygon class="cls-2" points="217.82 127.77 208.16 127.77 203.33 136.26 208.16 144.74 217.82 144.74 222.64 136.26 217.82 127.77"/><polygon class="cls-9" points="217.82 110.8 208.16 110.8 203.33 119.29 208.16 127.77 217.82 127.77 222.64 119.29 217.82 110.8"/><polygon class="cls-10" points="174.37 119.29 164.71 119.29 159.89 127.77 164.71 136.26 174.37 136.26 179.2 127.77 174.37 119.29"/><polygon class="cls-11" points="181.53 126.79 174.7 133.72 177.2 143.19 186.52 145.72 193.35 138.79 190.85 129.33 181.53 126.79"/><polygon class="cls-10" points="188.85 110.8 179.2 110.8 174.37 119.29 179.2 127.77 188.85 127.77 193.68 119.29 188.85 110.8"/><polygon class="cls-2" points="217.82 144.74 208.16 144.74 203.33 153.23 208.16 161.71 217.82 161.71 222.64 153.23 217.82 144.74"/><polygon class="cls-2" points="232.3 153.23 222.64 153.23 217.82 161.71 222.64 170.2 232.3 170.2 237.13 161.71 232.3 153.23"/><polygon class="cls-2" points="232.3 136.26 222.64 136.26 217.82 144.74 222.64 153.23 232.3 153.23 237.13 144.74 232.3 136.26"/><polygon class="cls-2" points="188.85 144.74 179.2 144.74 174.37 153.23 179.2 161.71 188.85 161.71 193.68 153.23 188.85 144.74"/><polygon class="cls-2" points="203.33 153.23 193.68 153.23 188.85 161.71 193.68 170.2 203.33 170.2 208.16 161.71 203.33 153.23"/><polygon class="cls-9" points="203.33 136.26 193.68 136.26 188.85 144.74 193.68 153.23 203.33 153.23 208.16 144.74 203.33 136.26"/><polygon class="cls-2" points="174.37 68.38 164.71 68.38 159.89 76.86 164.71 85.35 174.37 85.35 179.2 76.86 174.37 68.38"/><polygon class="cls-10" points="188.85 76.86 179.2 76.86 174.37 85.35 179.2 93.83 188.85 93.83 193.68 85.35 188.85 76.86"/><polygon class="cls-12" points="188.85 59.89 179.2 59.89 174.37 68.38 179.2 76.86 188.85 76.86 193.68 68.38 188.85 59.89"/><polygon class="cls-2" points="145.4 68.38 135.75 68.38 130.92 76.86 135.75 85.35 145.4 85.35 150.23 76.86 145.4 68.38"/><polygon class="cls-2" points="159.89 76.86 150.23 76.86 145.4 85.35 150.23 93.83 159.89 93.83 164.71 85.35 159.89 76.86"/><polygon class="cls-2" points="159.89 59.89 150.23 59.89 145.4 68.38 150.23 76.86 159.89 76.86 164.71 68.38 159.89 59.89"/><polygon class="cls-9" points="188.85 93.83 179.2 93.83 174.37 102.32 179.2 110.8 188.85 110.8 193.68 102.32 188.85 93.83"/><polygon class="cls-10" points="203.33 102.32 193.68 102.32 188.85 110.8 193.68 119.29 203.33 119.29 208.16 110.8 203.33 102.32"/><polygon class="cls-10" points="203.33 85.35 193.68 85.35 188.85 93.83 193.68 102.32 203.33 102.32 208.16 93.83 203.33 85.35"/><polygon class="cls-2" points="159.89 93.83 150.23 93.83 145.4 102.32 150.23 110.8 159.89 110.8 164.71 102.32 159.89 93.83"/><polygon class="cls-10" points="174.37 102.32 164.71 102.32 159.89 110.8 164.71 119.29 174.37 119.29 179.2 110.8 174.37 102.32"/><polygon class="cls-7" points="174.37 85.35 164.71 85.35 159.89 93.83 164.71 102.32 174.37 102.32 179.2 93.83 174.37 85.35"/><polygon class="cls-11" points="232.3 68.38 222.64 68.38 217.82 76.86 222.64 85.35 232.3 85.35 237.13 76.86 232.3 68.38"/><polygon class="cls-11" points="246.78 76.86 237.13 76.86 232.3 85.35 237.13 93.83 246.78 93.83 251.61 85.35 246.78 76.86"/><polygon class="cls-13" points="203.33 68.38 193.68 68.38 188.85 76.86 193.68 85.35 203.33 85.35 208.16 76.86 203.33 68.38"/><polygon class="cls-10" points="217.82 76.86 208.16 76.86 203.33 85.35 208.16 93.83 217.82 93.83 222.64 85.35 217.82 76.86"/><polygon class="cls-10" points="217.82 59.89 208.16 59.89 203.33 68.38 208.16 76.86 217.82 76.86 222.64 68.38 217.82 59.89"/><polygon class="cls-2" points="261.26 102.32 251.61 102.32 246.78 110.8 251.61 119.29 261.26 119.29 266.09 110.8 261.26 102.32"/><polygon class="cls-2" points="261.26 85.35 251.61 85.35 246.78 93.83 251.61 102.32 261.26 102.32 266.09 93.83 261.26 85.35"/><polygon class="cls-9" points="217.82 93.83 208.16 93.83 203.33 102.32 208.16 110.8 217.82 110.8 222.64 102.32 217.82 93.83"/><polygon class="cls-2" points="232.3 102.32 222.64 102.32 217.82 110.8 222.64 119.29 232.3 119.29 237.13 110.8 232.3 102.32"/><polygon class="cls-2" points="232.3 85.35 222.64 85.35 217.82 93.83 222.64 102.32 232.3 102.32 237.13 93.83 232.3 85.35"/><polygon class="cls-8" points="116.44 51.41 106.78 51.41 101.95 59.89 106.78 68.38 116.44 68.38 121.27 59.89 116.44 51.41"/><polygon class="cls-2" points="87.47 51.41 77.82 51.41 72.99 59.89 77.82 68.38 87.47 68.38 92.3 59.89 87.47 51.41"/><polygon class="cls-2" points="87.47 17.47 77.82 17.47 72.99 25.95 77.82 34.44 87.47 34.44 92.3 25.95 87.47 17.47"/><polygon class="cls-8" points="87.47 34.44 77.82 34.44 72.99 42.92 77.82 51.41 87.47 51.41 92.3 42.92 87.47 34.44"/><polygon class="cls-1" points="101.95 42.92 92.3 42.92 87.47 51.41 92.3 59.89 101.95 59.89 106.78 51.41 101.95 42.92"/><polygon class="cls-2" points="145.4 0.5 135.75 0.5 130.92 8.98 135.75 17.47 145.4 17.47 150.23 8.98 145.4 0.5"/><polygon class="cls-2" points="116.44 17.47 106.78 17.47 101.95 25.95 106.78 34.44 116.44 34.44 121.27 25.95 116.44 17.47"/><polygon class="cls-2" points="116.44 0.5 106.78 0.5 101.95 8.98 106.78 17.47 116.44 17.47 121.27 8.98 116.44 0.5"/><polygon class="cls-2" points="145.4 34.44 135.75 34.44 130.92 42.92 135.75 51.41 145.4 51.41 150.23 42.92 145.4 34.44"/><polygon class="cls-2" points="159.89 42.92 150.23 42.92 145.4 51.41 150.23 59.89 159.89 59.89 164.71 51.41 159.89 42.92"/><polygon class="cls-10" points="159.89 25.95 150.23 25.95 145.4 34.44 150.23 42.92 159.89 42.92 164.71 34.44 159.89 25.95"/><polygon class="cls-8" points="116.44 34.44 106.78 34.44 101.95 42.92 106.78 51.41 116.44 51.41 121.27 42.92 116.44 34.44"/><polygon class="cls-1" points="130.92 42.92 121.27 42.92 116.44 51.41 121.27 59.89 130.92 59.89 135.75 51.41 130.92 42.92"/><polygon class="cls-2" points="130.92 25.95 121.27 25.95 116.44 34.44 121.27 42.92 130.92 42.92 135.75 34.44 130.92 25.95"/><polygon class="cls-12" points="174.37 51.41 164.71 51.41 159.89 59.89 164.71 68.38 174.37 68.38 179.2 59.89 174.37 51.41"/><polygon class="cls-2" points="145.4 51.41 135.75 51.41 130.92 59.89 135.75 68.38 145.4 68.38 150.23 59.89 145.4 51.41"/><polygon class="cls-11" points="232.3 51.41 222.64 51.41 217.82 59.89 222.64 68.38 232.3 68.38 237.13 59.89 232.3 51.41"/><polygon class="cls-13" points="203.33 51.41 193.68 51.41 188.85 59.89 193.68 68.38 203.33 68.38 208.16 59.89 203.33 51.41"/><polygon class="cls-2" points="188.85 8.98 179.2 8.98 174.37 17.47 179.2 25.95 188.85 25.95 193.68 17.47 188.85 8.98"/><polygon class="cls-2" points="203.33 17.47 193.68 17.47 188.85 25.95 193.68 34.44 203.33 34.44 208.16 25.95 203.33 17.47"/><polygon class="cls-2" points="203.33 0.5 193.68 0.5 188.85 8.98 193.68 17.47 203.33 17.47 208.16 8.98 203.33 0.5"/><polygon class="cls-2" points="159.89 8.98 150.23 8.98 145.4 17.47 150.23 25.95 159.89 25.95 164.71 17.47 159.89 8.98"/><polygon class="cls-10" points="174.37 17.47 164.71 17.47 159.89 25.95 164.71 34.44 174.37 34.44 179.2 25.95 174.37 17.47"/><polygon class="cls-10" points="203.33 34.44 193.68 34.44 188.85 42.92 193.68 51.41 203.33 51.41 208.16 42.92 203.33 34.44"/><polygon class="cls-12" points="217.82 42.92 208.16 42.92 203.33 51.41 208.16 59.89 217.82 59.89 222.64 51.41 217.82 42.92"/><polygon class="cls-13" points="217.82 25.95 208.16 25.95 203.33 34.44 208.16 42.92 217.82 42.92 222.64 34.44 217.82 25.95"/><polygon class="cls-2" points="174.37 34.44 164.71 34.44 159.89 42.92 164.71 51.41 174.37 51.41 179.2 42.92 174.37 34.44"/><polygon class="cls-2" points="188.85 42.92 179.2 42.92 174.37 51.41 179.2 59.89 188.85 59.89 193.68 51.41 188.85 42.92"/><polygon class="cls-2" points="188.85 25.95 179.2 25.95 174.37 34.44 179.2 42.92 188.85 42.92 193.68 34.44 188.85 25.95"/><polygon class="cls-2" points="246.78 8.98 237.13 8.98 232.3 17.47 237.13 25.95 246.78 25.95 251.61 17.47 246.78 8.98"/><polygon class="cls-2" points="261.26 17.47 251.61 17.47 246.78 25.95 251.61 34.44 261.26 34.44 266.09 25.95 261.26 17.47"/><polygon class="cls-2" points="261.26 0.5 251.61 0.5 246.78 8.98 251.61 17.47 261.26 17.47 266.09 8.98 261.26 0.5"/><polygon class="cls-11" points="232.3 17.47 222.64 17.47 217.82 25.95 222.64 34.44 232.3 34.44 237.13 25.95 232.3 17.47"/><polygon class="cls-2" points="232.3 0.5 222.64 0.5 217.82 8.98 222.64 17.47 232.3 17.47 237.13 8.98 232.3 0.5"/><polygon class="cls-2" points="261.26 34.44 251.61 34.44 246.78 42.92 251.61 51.41 261.26 51.41 266.09 42.92 261.26 34.44"/><polygon class="cls-2" points="275.75 42.92 266.09 42.92 261.26 51.41 266.09 59.89 275.75 59.89 280.57 51.41 275.75 42.92"/><polygon class="cls-2" points="275.75 25.95 266.09 25.95 261.26 34.44 266.09 42.92 275.75 42.92 280.57 34.44 275.75 25.95"/><polygon class="cls-11" points="246.78 42.92 237.13 42.92 232.3 51.41 237.13 59.89 246.78 59.89 251.61 51.41 246.78 42.92"/></g></g></svg>