<svg xmlns="http://www.w3.org/2000/svg" viewBox="0 0 280 280"><defs><style>.cls-1{fill:#74d7ca;}.cls-2{fill:#51b7c4;}.cls-3{fill:#fff;}</style></defs><title>Asset 8</title><g id="Layer_2" data-name="Layer 2"><g id="Layer_1-2" data-name="Layer 1"><circle class="cls-1" cx="140" cy="140" r="140"/><circle class="cls-2" cx="83.36" cy="135.21" r="71.54"/><circle class="cls-2" cx="144.34" cy="42.12" r="34.49"/><circle class="cls-2" cx="214.49" cy="141.6" r="53.89"/><circle class="cls-2" cx="160.61" cy="223.78" r="38.61"/><circle class="cls-2" cx="94.5" cy="233.1" r="23.02"/><circle class="cls-2" cx="207.12" cy="55.46" r="25.84"/><circle class="cls-2" cx="89.08" cy="43.03" r="17.6"/><circle class="cls-2" cx="221.22" cy="217.7" r="18.69"/><circle class="cls-2" cx="160.72" cy="91.34" r="13.71"/><circle class="cls-3" cx="52.11" cy="91.34" r="13.71"/><circle class="cls-3" cx="47.29" cy="132.86" r="25.07"/><circle class="cls-3" cx="108.45" cy="114.06" r="34.08"/><circle class="cls-3" cx="87.38" cy="176.54" r="27.66"/><circle class="cls-3" cx="192.52" cy="132.86" r="25.07"/><circle class="cls-3" cx="152.2" cy="212.15" r="16.66"/><circle class="cls-3" cx="237.88" cy="124.45" r="16.66"/><circle class="cls-3" cx="229.01" cy="164.8" r="16.66"/><circle class="cls-3" cx="127.52" cy="38.85" r="12.48"/><circle class="cls-3" cx="130" cy="160.61" r="12.48"/><circle class="cls-3" cx="197.27" cy="173.14" r="12.48"/><circle class="cls-3" cx="88.69" cy="228.82" r="12.48"/><circle class="cls-3" cx="251.01" cy="148.13" r="7.82"/><circle class="cls-3" cx="130" cy="60.64" r="7.82"/><circle class="cls-3" cx="134.66" cy="233.1" r="7.82"/><circle class="cls-3" cx="130" cy="60.64" r="7.82"/><circle class="cls-3" cx="190.75" cy="57.87" r="7.82"/><circle class="cls-3" cx="44.29" cy="173.14" r="7.82"/><circle class="cls-3" cx="217.59" cy="105.05" r="5.85"/><circle class="cls-3" cx="144.34" cy="140.31" r="5.85"/><circle class="cls-3" cx="154.9" cy="91.34" r="5.85"/><circle class="cls-3" cx="81.36" cy="45.83" r="6.99"/><circle class="cls-3" cx="214.49" cy="216.34" r="6.99"/><circle class="cls-3" cx="171.85" cy="195.49" r="6.99"/><circle class="cls-3" cx="183.33" cy="216.76" r="11.6"/><circle class="cls-3" cx="209.75" cy="44.76" r="11.6"/><circle class="cls-3" cx="147.01" cy="21.69" r="11.6"/><circle class="cls-3" cx="156.53" cy="246.32" r="13.23"/><circle class="cls-3" cx="208.59" cy="68.22" r="9.41"/><circle class="cls-3" cx="154.9" cy="50.11" r="13.23"/><circle class="cls-3" cx="229.01" cy="210.8" r="6.61"/><circle class="cls-3" cx="178.84" cy="237.67" r="6.61"/><circle class="cls-3" cx="227.83" cy="225.28" r="6.61"/><circle class="cls-3" cx="74.38" cy="81.3" r="6.61"/><circle class="cls-3" cx="89.97" cy="33.28" r="6.61"/><circle class="cls-3" cx="96.58" cy="47.47" r="6.61"/><circle class="cls-3" cx="164.86" cy="96.34" r="4.5"/><circle class="cls-3" cx="165.11" cy="86.49" r="4.5"/><circle class="cls-3" cx="223.44" cy="58.81" r="4.5"/><circle class="cls-3" cx="106.52" cy="223.33" r="4.5"/><circle class="cls-3" cx="107.53" cy="236.39" r="6.36"/><circle class="cls-3" cx="95.66" cy="247.66" r="6.36"/></g></g></svg>