<svg xmlns="http://www.w3.org/2000/svg" viewBox="0 0 280 280"><defs><style>.cls-1,.cls-4,.cls-5,.cls-6{fill:none;}.cls-2{fill:#ff8c00;}.cls-3{fill:#a05d56;}.cls-4{stroke:#ff8c00;}.cls-4,.cls-5,.cls-6{stroke-linecap:round;stroke-linejoin:round;stroke-width:0;}.cls-5{stroke:#3b5570;}.cls-6{stroke:#3a546e;}.cls-7{fill:#3a546e;}.cls-8{fill:#c3c7ca;}.cls-9{fill:#fcfdfd;}</style></defs><title>Asset 7</title><g id="Layer_2" data-name="Layer 2"><g id="Layer_1-2" data-name="Layer 1"><path class="cls-1" d="M136.46,55.6c.93,0,1.85-.07,2.79-.07C138.36,55.53,137.44,55.55,136.46,55.6Z"/><path class="cls-1" d="M139.75,55.52c1.07,0,2.14,0,3.21.08C142,55.55,140.89,55.52,139.75,55.52Z"/><path class="cls-1" d="M161.56,58.61a3.79,3.79,0,0,0-1.26-.54,3.79,3.79,0,0,1,1.26.54Z"/><path class="cls-2" d="M34.84,250.21c-1.59,1.7-2.09,3.16.17,5a168.93,168.93,0,0,0,40.8,24.34c2.23.94,3.45.51,4.29-1.66,4.92-12.74,10.19-25.13,14.76-38.24A111,111,0,0,1,62,219.89C52.25,229.42,44.1,240.29,34.84,250.21Z"/><path class="cls-2" d="M201.51,275c1,2.48,2.21,3.34,5,2.11a169.78,169.78,0,0,0,39.76-24.77c1.42-1.17,2.24-2.42.64-4.1-9.35-9.8-17.78-20.42-27.79-29.61-10.06,8.07-20.59,15.41-32.81,20.08C191.39,250.84,196.49,262.93,201.51,275Z"/><path class="cls-2" d="M2.36,202.59c-2.52,1.28-3,2.83-1.56,5.27a159.27,159.27,0,0,0,27.39,34.9c1.72,1.63,3.18,2.29,5.11.27,8.87-9.25,18-18.24,26.15-28.15-8.7-9.14-17.39-18.27-22.63-29.93Q19.6,193.79,2.36,202.59Z"/><path class="cls-2" d="M278.43,200c-11.35-5.3-22.19-11.62-33.85-16.29-6.39,10.88-13.59,21.16-22.69,30.06,7.86,9.69,17.39,17.82,26,26.86,1.55,1.64,2.79,1.12,4.18-.25A155,155,0,0,0,279.28,204C280.18,202.39,280.57,201,278.43,200Z"/><path class="cls-2" d="M102.33,235.27c-3.88,10.22-7.73,20.44-11.64,30.64-1.14,3,.26,4.22,3,5.1a154.91,154.91,0,0,0,40.37,7c3.6.16,4.41-1.18,4.36-4.38-.15-10.93-.07-21.86-.07-32.79A88.31,88.31,0,0,1,102.33,235.27Z"/><path class="cls-2" d="M167.48,235.19q-2.17.59-4.35,1.08a83.75,83.75,0,0,1-20.1,2.28c-.52,10.17.32,20.31.83,30.45.08,1.65-.08,3.12,2.64,3a149.26,149.26,0,0,0,40.64-7.83c2.53-.86,3.17-2.06,2.21-4.43-3.74-9.28-7.41-18.58-11.11-27.87Q175,233,171.8,234C170.36,234.38,168.92,234.8,167.48,235.19Z"/><path class="cls-3" d="M186.32,238.75c12.22-4.67,22.75-12,32.81-20.08-1.08-1.44-2-3-3.24-4.31q-9.18-10.29-18.43-20.52l-5.06-5.27a78.16,78.16,0,0,1-21.84,13.93C175.27,214.81,180.66,226.83,186.32,238.75Z"/><path class="cls-3" d="M86.38,191c-8.93,9-16.5,19.07-24.41,28.87a111,111,0,0,0,32.89,19.74c3.48-7.78,6.18-13.57,9-20.47,2.14-5.32,4.94-10.44,6.32-16a78.46,78.46,0,0,1-22.09-13.44A15.17,15.17,0,0,1,86.38,191Z"/><path class="cls-2" d="M2.94,146.92c-2.07.23-2.77,1.36-2.41,3.41,2.28,12.93,5.63,25.53,11.17,37.52,1,2.16,2.08,3.28,4.61,1.9,8.56-4.67,17.9-7.82,26.25-12.92-4.77-10.63-8.71-21.5-9.91-33.16Q17.78,145.29,2.94,146.92Z"/><path class="cls-3" d="M209.58,166.11a76.89,76.89,0,0,1-15,20.45c4.83,5.49,20.63,20.95,27.34,27.21,9.1-8.9,16.3-19.18,22.69-30.06A315.43,315.43,0,0,0,209.58,166.11Z"/><path class="cls-3" d="M70,166.89a5.27,5.27,0,0,0-1.23.51c-10.57,6-21.3,11.73-32,17.55,5.24,11.66,13.93,20.79,22.63,29.93,2.23-2.12,4.47-4.23,6.69-6.36C73,202,78.33,194.21,85.67,188.21l.22-.49A77.07,77.07,0,0,1,70,166.89Z"/><path class="cls-2" d="M261.66,186.24c3.08,1.52,3.84-.17,4.79-2.38a149.27,149.27,0,0,0,9.9-35.71c.46-3-.71-4.08-3.34-4.32-8.83-.82-17.67-1.58-26.51-2.36-.06,11.88-4.71,22.59-8.8,33.45C245.7,178.67,253.75,182.33,261.66,186.24Z"/><path class="cls-2" d="M244.49,48.22c2-1.46.72-2.84-.43-4.1-8.59-9.38-17.83-18-28.53-25.12-2.27-1.5-3.44-1.32-4.82.95-4.34,7.19-8.83,14.3-13.26,21.43,10,6,18,14.2,26.28,22.17C231.52,59.58,237.51,53.25,244.49,48.22Z"/><path class="cls-2" d="M181.37,34c2.77,1.09,5.49,2.27,8.13,3.55q2,1,3.9,2L205.72,19c1.84-3.06.62-4.47-2.05-6C193,7,181.39,3.36,169.58.29c-2-.51-3.65-.58-4.25,1.82l-.11.58h0c-1.94,9.55-2.36,11.66-2.46,12.13h0a.59.59,0,0,0,0,.13h0s0,.1-.27,1.36l-.11.56-.13.62v.06l-.36,1.77-.08.38c-.06.28-.12.57-.18.88l-.08.4c-.2,1-.44,2.18-.72,3.55l-.23,1.14c-.1.49-.21,1-.31,1.54,4.2,1.13,8.48,2.36,12.72,3.75C175.79,31.89,178.61,32.89,181.37,34Z"/><line class="cls-4" x1="162.2" y1="17.55" x2="162.21" y2="17.49"/><line class="cls-4" x1="160.55" y1="25.67" x2="160.78" y2="24.53"/><line class="cls-4" x1="161.5" y1="20.98" x2="161.58" y2="20.58"/><line class="cls-4" x1="161.76" y1="19.7" x2="161.84" y2="19.32"/><path class="cls-2" d="M37.43,118.75c0-.26,0-.52.08-.78q.59-5.88,1.7-11.73h0C27,103,26.29,102.8,15.31,99.74c-2.69-.75-3.47.94-4,3.21A149,149,0,0,0,8.14,137c.06,3.32,1.18,4.58,4.58,4.21,8.08-.88,16.18-1.58,24.27-2.36q-.2-4.11-.17-8.21Q36.87,124.7,37.43,118.75Z"/><path class="cls-2" d="M240,99.51c7.77-2.36,15.53-4.77,23.32-7.07,2.46-.73,3.94-1.6,2.79-4.58a149.83,149.83,0,0,0-16.95-32.44c-1.25-1.8-2.64-2.71-4.54-1.18-6.29,5-13.55,8.84-19.26,14.61A138,138,0,0,1,238.6,93.22,12.67,12.67,0,0,1,240,99.51Z"/><path class="cls-3" d="M102.33,235.27a88.31,88.31,0,0,0,36,5.58q.34-15.82.72-31.64c0-.16,0-.3,0-.45a79.36,79.36,0,0,1-26-4.51C109.33,214.52,105.34,224.73,102.33,235.27Z"/><path class="cls-2" d="M244.35,136.76l24.2,2c3.19.46,2.61-2.32,2.7-4.21A128.21,128.21,0,0,0,267.82,100c-.64-2.79-1.58-3.67-4.48-2.79-7.41,2.24-14.88,4.27-22.32,6.38A108.41,108.41,0,0,1,244.35,136.76Z"/><path class="cls-3" d="M143,238.55a83.75,83.75,0,0,0,20.1-2.28q2.18-.5,4.35-1.08c1.44-.39,2.88-.81,4.32-1.24q3.22-1,6.44-2.1-5.27-14.11-10.51-28.23A79,79,0,0,1,142,208.71C141.78,218.67,142.68,228.6,143,238.55Z"/><path class="cls-5" d="M178.24,231.85Q175,233,171.8,234"/><path class="cls-5" d="M163.13,236.27q2.18-.5,4.35-1.08"/><path class="cls-3" d="M199.44,83c2.78-.68,4.13-3.7,6.91-4.38,5.37-5.48,12.61-8.87,17.38-15-8.25-8-16.3-16.17-26.28-22.17L190.12,51.6c-2.61,5.46-6.2,10.32-9.56,15.31A78.22,78.22,0,0,1,199.44,83Z"/><path class="cls-3" d="M237.7,174.92c4.09-10.86,8.74-21.57,8.8-33.45-9.69-1.15-19.35-2.72-29.16-2.56a75.09,75.09,0,0,1-6.19,23.89A208.43,208.43,0,0,0,237.7,174.92Z"/><path class="cls-3" d="M60.38,140.19l-27.73,3.48c1.2,11.66,5.14,22.53,9.91,33.16l26.31-12.24A75.1,75.1,0,0,1,62,140.09,6.14,6.14,0,0,0,60.38,140.19Z"/><path class="cls-3" d="M159,57.91c.7.13.8.18,1.21.28s.77.24,1.32.42c1.83.53,3.63,1.11,5.4,1.76.46.12.92.25,1.36.4a44.31,44.31,0,0,1,9.58,4.59c.77-1.27.58-1,1.79-3,6.65-11.09,0,0,6.71-11.06,7-12,0,0,7-11.79q-1.92-1.05-3.9-2c-2.64-1.28-5.36-2.46-8.13-3.55s-5.58-2.08-8.41-3c-4.24-1.39-8.52-2.62-12.72-3.75-.46,2.22-.84,4.1-1.16,5.71l-.09.43c-.16.79-.31,1.5-.44,2.15l-.06.3c-.14.71-.27,1.33-.38,1.88l0,.2-.2,1,0,.18c-.05.28-.1.53-.15.76h0c-.08.36-.14.67-.19.92l0,.1c-.34,1.69-.2,1-.26,1.28v0c0,.06,0,.16-.07.31l0,.19c-.1.49-.28,1.38-.6,3v0c-.44,2.17-1.15,5.64-2.27,11.16l.29.12c1.52.29,3,.61,4.52,1Z"/><line class="cls-6" x1="157.21" y1="42.12" x2="157.21" y2="42.1"/><line class="cls-6" x1="156.49" y1="45.65" x2="156.5" y2="45.6"/><line class="cls-6" x1="157.83" y1="39.03" x2="157.87" y2="38.85"/><line class="cls-6" x1="157.1" y1="42.62" x2="157.14" y2="42.43"/><line class="cls-6" x1="157.68" y1="39.8" x2="157.68" y2="39.79"/><line class="cls-6" x1="157.47" y1="40.82" x2="157.49" y2="40.72"/><path class="cls-2" d="M47,95.46c1-2.45,2.05-4.84,3.23-7.19,2.35-4.7,5.06-9.23,7.89-13.72C52.22,69.64,46.6,66.22,41,61.85c-1.89-1.47-3.22-.6-4.5,1.22C30,72.25,25.54,82.4,21.68,92.83c-.92,2.49-.44,4,2.57,4.72,6.81,1.64,13.53,3.61,20.29,5.44.34-1.29.73-2.56,1.15-3.81S46.56,96.69,47,95.46Z"/><path class="cls-3" d="M240,99.51a12.67,12.67,0,0,0-1.43-6.29,138,138,0,0,0-13.21-24.37L206.63,81.57c-4,3.29-5,2.73-4.85,4.26a76,76,0,0,1,11.94,22.27Z"/><path class="cls-3" d="M217.58,135.43c26.17,1.3-.66,0,17.77,1,9,.49-18.63-1,9,.36A108.41,108.41,0,0,0,241,103.55l-26.53,7a75.51,75.51,0,0,1,3.17,21.64C217.66,133.25,217.63,134.34,217.58,135.43Z"/><path class="cls-3" d="M64.28,112c-15.53-3.53-22.71-5.21-25.07-5.76h0q-1.12,5.85-1.7,11.73c0,.26,0,.52-.08.78q-.55,5.94-.61,11.93,0,4.09.17,8.21c.68.07,19.92-1.43,24.72-1.87-.1-1.61-.18-3.23-.18-4.87A75.29,75.29,0,0,1,64.28,112Z"/><path class="cls-7" d="M39.21,106.24Z"/><path class="cls-6" d="M39.21,106.24q-1.12,5.85-1.7,11.73"/><path class="cls-6" d="M36.82,130.68q0-6,.61-11.93"/><path class="cls-7" d="M39.19,106.23Z"/><path class="cls-3" d="M58.16,74.55c-2.83,4.49-5.54,9-7.89,13.72C49.09,90.62,48,93,47,95.46c-.48,1.23-.94,2.47-1.35,3.72s-.81,2.52-1.15,3.81c7.22,2.13,13.24,4.11,20.59,6.13A75.81,75.81,0,0,1,76,87.79,140.42,140.42,0,0,0,58.16,74.55Z"/><path class="cls-5" d="M44.54,103c.34-1.29.73-2.56,1.15-3.81"/><path class="cls-5" d="M47,95.46c1-2.45,2.05-4.84,3.23-7.19"/><path class="cls-3" d="M97.09,67.89l0,0L89.73,57.44C82,63.15,74.8,69.33,68.85,76.84c5.24,4,7,5.1,10,7.19A78.12,78.12,0,0,1,97.09,67.89Z"/><path class="cls-3" d="M122.91,57.27c-1.15-6.71,0,0-1.21-7.08-9.47.7-17.66,4.85-25.78,9.21L100.19,66a78.53,78.53,0,0,1,22.45-8.66Z"/><path class="cls-2" d="M89.73,57.44c-3.83-6.2-2.56-4.19-6-9.49-1.67-2.54-2.83-2.51-5-.68C74.43,50.82,69.85,54,65.93,57.86c-10.77,10.56-10.6,11.08,2.92,19C74.8,69.33,82,63.15,89.73,57.44Z"/><path class="cls-2" d="M152.34,49.22l1.1-6.23c.75-4.22.28-5.43-4.71-5.75a124,124,0,0,0-14.93,0c-11.58.63-10.58-.5-8.67,12C134.2,47.72,143.27,47.35,152.34,49.22Z"/><path class="cls-2" d="M121.14,46.44c-1.27-7-1.74-7.1-8.88-4.73a112.35,112.35,0,0,0-13.92,5.42c-8.3,4-7.87,3.75-2.42,12.27C104,55,112.23,50.89,121.7,50.19,121.52,48.94,121.41,48,121.14,46.44Z"/><path class="cls-8" d="M97.09,67.89l.06,0h0Z"/><path class="cls-8" d="M97.09,67.89l0,0h0l0,0Z"/><path class="cls-3" d="M125.13,49.23c.37,2.53.81,4.86,1.19,7.39l.63-.08a78.33,78.33,0,0,1,9.51-.94c1-.05,1.9-.07,2.79-.07h.5c1.14,0,2.2,0,3.21.08.85,0,1.66.1,2.45.17,1.84.13,3.66.3,5.45.55l.39,0c.28-2.12.81-5,1.09-7.15C143.27,47.35,134.2,47.72,125.13,49.23Z"/><path class="cls-9" d="M176.32,66.77h0v0l0,0S176.32,66.76,176.32,66.77Z"/></g></g></svg>