<svg xmlns="http://www.w3.org/2000/svg" viewBox="0 0 286.22 281"><defs><style>.cls-1{fill:#036160;}.cls-1,.cls-2,.cls-3,.cls-4,.cls-5,.cls-6{stroke:#000;stroke-miterlimit:10;opacity:0.6;}.cls-2{fill:#00a1be;}.cls-3{fill:#3eb8c3;}.cls-4{fill:#efe9de;}.cls-5{fill:#a7d937;}.cls-6{fill:#89b600;}</style></defs><title>Asset 5</title><g id="Layer_2" data-name="Layer 2"><g id="Layer_1-2" data-name="Layer 1"><path class="cls-1" d="M1.83,54.81H281.59C213.64,39.94,192.43,2.59,169.65.51c-6.88-.63-29.54,25.46-43,22.63C110.83,19.82,16.31,53.9,1.83,54.81"/><path class="cls-2" d="M281.67,98.92c-21.2-6-93-19.32-116.69-24.5-20.63-4.5-27.51-35.6-42.6-32.66C78.14,50.39,58.26,89.8,2.06,98.92"/><path class="cls-3" d="M281.67,143c-40.43-21-73.48-29.27-90.64-23.67-19.6,6.39-54.71,8.88-58.41,6-27.1-4.52-37.44-44.27-53.43-43.74-23.52.76-39.54,34-46.73,38.91C26.9,124.39,2.32,138,1.83,143"/><path class="cls-4" d="M1.83,187.15H281.67c-3.93-2-9.89-5.14-17-9.26-18.17-10.51-22-14.75-29-13.88-8.85,1.12-8.84,8.71-18.34,10.86-10.08,2.29-36.09-7.43-48.8-13-9.21-4-36.59-22.67-57.27-24.42-19.86-1.69-35.43,29.37-63.42,34.17C30.29,174.66,32.24,169.16,1.83,187.15Z"/><path class="cls-5" d="M1.83,231.27H281.67c-123.2-23.82-103.17-59.62-148.49-59.62-22.41,0-122.73,59.62-131.35,59.62"/><path class="cls-6" d="M2,280.5H281.83c-40.86.24-27.35-9.36-48.23-16.9-27.3-9.86-41.85-47.83-62.71-45C149.8,221.57,102,264.12,73,270.24,57.49,273.51,12,278.68,2,280.5"/></g></g></svg>