<svg xmlns="http://www.w3.org/2000/svg" viewBox="0 0 280 280"><defs><style>.cls-1{fill:#a9eefe;}.cls-2{fill:#78dbfe;}.cls-3{fill:#fec39c;}.cls-4{fill:#fda76b;}.cls-5{fill:#fea76b;}.cls-6{fill:#a8eefe;}.cls-7{fill:#fbc49e;}.cls-8{fill:#fba76d;}.cls-9{fill:#df6500;}.cls-10{fill:#0e95dd;}.cls-11{fill:#1197dd;}.cls-12{fill:#0b93dc;}.cls-13{fill:#df6602;}</style></defs><title>Asset 4</title><g id="Layer_2" data-name="Layer 2"><g id="Layer_1-2" data-name="Layer 1"><path class="cls-1" d="M249.44,86.74c-9.6,0-12.21.38-20.63,2.72-17.9,5-33.85,15.07-47.56,31.84-7.06,8.51-44.9,73.44-54.56,96.26-20.53,34.25-45.42,57.15-78.32,60.9a156.89,156.89,0,0,1-18,1.54c0-18.83,0-38.44,0-57.26,16.3-.5,32.37-2.51,47.88-10,14-6.8,26.42-17.11,37.54-31,8.11-10.13,42.81-75.65,69.76-97.65C205.06,68.12,227,61.49,249.44,60.82,249.5,69.74,249.35,76.48,249.44,86.74Z"/><path class="cls-2" d="M82.22,170c-17,6.65-34,10.12-51.88,9.94.1-18.79-.1-39.37,0-58.16,7.71,0,13.45,0,19.54,0,13.7-.1,26.78-4.17,39.76-9.13,19.37-7.42,36-22,51.72-39.06,16.42-17.84,33.57-33.91,53.9-42.41,17.52-7.33,35.51-9.44,53.62-10.62q0,12,0,24c-15.51.93-30.89,3.62-45.66,10.22-17.25,7.71-56.53,51.87-61,58.52C137.5,119.85,100.39,162.87,82.22,170Z"/><path class="cls-3" d="M149.45,175.39a108,108,0,0,1,13.3-25.24c1.67,2,3.64,3.65,5,6,12.65,22.61,29.21,36.9,48.73,45.56,10.65,4.73,22.28,6.84,33,8.25,0,20.15,0,37.66,0,59.81-32.85-.71-59.83-20.33-80.17-55.33A362.52,362.52,0,0,1,149.45,175.39Z"/><path class="cls-4" d="M249.45,210c-11.32-1.41-22.36-3.52-33-8.25-19.52-8.66-36.08-22.95-48.73-45.56-1.32-2.36-3.29-4-5-6a143,143,0,0,1,18.5-28.85c20.88,18,44,24.51,68.19,26C249.29,168,249.61,189.3,249.45,210Z"/><path class="cls-5" d="M130.39,54.23A63.56,63.56,0,0,1,115,65.34a33.35,33.35,0,0,1-2.4-2.75c-23.23-29.36-51.71-37.66-82.35-38-.06-7.23.07-17.33,0-24.57,30.15.39,59.19,8,84,34.14C120,40.21,125.89,46.18,130.39,54.23Z"/><path class="cls-6" d="M224.69,3.6c-20.29,3.11-39.91,9.12-58.38,21.54C153.79,33.56,121,62,115.83,64.77c-.25.19-.52.37-.8.56h0c-6.92,5-13.11,7-21,10.57L94,75.83c-2.67,1.13-4.63,1.9-5.15,2.06a201.14,201.14,0,0,1-58.47,8.75c.08,12.24-.08,22.89,0,35.13,7.84,0,13.06,0,19.54,0,13.7-.09,26.78-4.17,39.76-9.13,19.37-7.42,36-22,51.72-39.06,16.42-17.84,33.57-33.91,53.9-42.41,17.52-7.33,35.51-9.44,53.62-10.62q.24-9.13.47-18.27A150,150,0,0,0,224.69,3.6Z"/><path class="cls-3" d="M115,65.34h0c-.91-1-1.55-1.68-2.39-2.74-23.23-29.36-51.71-37.66-82.35-38-.08,8.34.08,16.23,0,24.57,5.78,0,9-.37,13.35.22C62.12,51.84,79.38,59,94,75.83l.07.08C101.93,72.38,108.12,70.36,115,65.34Z"/><path class="cls-7" d="M142.26,113.28c-6,7.38-8.42,9.73-13.62,16,3.38,5.21,6.07,12.16,8.54,18.2,5.08-8.38,13.53-21.05,13.53-21.05C147.43,121.22,147.33,121.11,142.26,113.28Z"/><path class="cls-8" d="M166.09,105,158.66,94.2c-8.32,9.16-11,12.25-16.4,19.08,4.24,6.59,5.63,8.62,8.45,13.16C150.71,126.44,159.61,113.28,166.09,105Z"/><rect class="cls-9" x="249.44" y="147.34" width="30.56" height="122.44"/><rect class="cls-10" y="86.64" width="30.34" height="93.29"/><rect class="cls-11" y="222.74" width="30.34" height="57.26"/><rect class="cls-12" x="249.44" y="2.21" width="30.56" height="84.53"/><rect class="cls-13" width="30.29" height="49.14"/></g></g></svg>