<svg xmlns="http://www.w3.org/2000/svg" viewBox="0 0 280 280"><defs><style>.cls-1{fill:#3fa9f5;}</style></defs><title>Asset 9</title><g id="Layer_2" data-name="Layer 2"><g id="Layer_1-2" data-name="Layer 1"><ellipse class="cls-1" cx="21.41" cy="253.66" rx="7.82" ry="7.72"/><ellipse class="cls-1" cx="29.22" cy="226.96" rx="7.82" ry="7.72"/><ellipse class="cls-1" cx="48.28" cy="212.93" rx="7.82" ry="7.72"/><ellipse class="cls-1" cx="79.42" cy="176.77" rx="7.82" ry="7.72"/><ellipse class="cls-1" cx="102.88" cy="196.76" rx="7.82" ry="7.72"/><ellipse class="cls-1" cx="74.02" cy="195.23" rx="7.82" ry="7.72"/><ellipse class="cls-1" cx="54.47" cy="182.6" rx="7.82" ry="7.72"/><ellipse class="cls-1" cx="50.57" cy="196.76" rx="7.82" ry="7.72"/><ellipse class="cls-1" cx="46.65" cy="174.88" rx="7.82" ry="7.72"/><ellipse class="cls-1" cx="95.06" cy="216.13" rx="7.82" ry="7.72"/><ellipse class="cls-1" cx="27.81" cy="208.41" rx="7.82" ry="7.72"/><ellipse class="cls-1" cx="69.58" cy="216.13" rx="7.82" ry="7.72"/><ellipse class="cls-1" cx="58.39" cy="242.41" rx="7.82" ry="7.72"/><ellipse class="cls-1" cx="211.96" cy="71.5" rx="7.82" ry="7.72"/><ellipse class="cls-1" cx="242.84" cy="73.73" rx="7.82" ry="7.72"/><ellipse class="cls-1" cx="247.05" cy="44.95" rx="7.82" ry="7.72"/><ellipse class="cls-1" cx="231.42" cy="23.17" rx="7.82" ry="7.72"/><ellipse class="cls-1" cx="272.18" cy="7.72" rx="7.82" ry="7.72"/><ellipse class="cls-1" cx="110.69" cy="149.88" rx="7.82" ry="7.72"/><ellipse class="cls-1" cx="91.73" cy="161.32" rx="7.82" ry="7.72"/><ellipse class="cls-1" cx="95.06" cy="181.31" rx="7.82" ry="7.72"/><ellipse class="cls-1" cx="54.32" cy="228.11" rx="7.82" ry="7.72"/><ellipse class="cls-1" cx="91.73" cy="247.56" rx="7.82" ry="7.72"/><ellipse class="cls-1" cx="101.99" cy="264.55" rx="7.82" ry="7.72"/><ellipse class="cls-1" cx="125.08" cy="228.37" rx="7.82" ry="7.72"/><ellipse class="cls-1" cx="110.69" cy="216.13" rx="7.82" ry="7.72"/><ellipse class="cls-1" cx="132.9" cy="245.94" rx="7.82" ry="7.72"/><ellipse class="cls-1" cx="107.02" cy="238.22" rx="7.82" ry="7.72"/><ellipse class="cls-1" cx="69.58" cy="261.39" rx="7.82" ry="7.72"/><ellipse class="cls-1" cx="23.45" cy="267.18" rx="7.82" ry="7.72"/><ellipse class="cls-1" cx="7.82" cy="272.28" rx="7.82" ry="7.72"/><ellipse class="cls-1" cx="50.57" cy="259.46" rx="7.82" ry="7.72"/><ellipse class="cls-1" cx="79.42" cy="223.86" rx="7.82" ry="7.72"/><ellipse class="cls-1" cx="79.42" cy="238.22" rx="7.82" ry="7.72"/><ellipse class="cls-1" cx="165.05" cy="115.78" rx="7.82" ry="7.72"/><ellipse class="cls-1" cx="165.05" cy="115.78" rx="7.82" ry="7.72"/><ellipse class="cls-1" cx="161.75" cy="138.06" rx="7.82" ry="7.72"/><ellipse class="cls-1" cx="135.41" cy="161.32" rx="7.82" ry="7.72"/><ellipse class="cls-1" cx="140.13" cy="135.92" rx="7.82" ry="7.72"/><ellipse class="cls-1" cx="114.83" cy="168.07" rx="7.82" ry="7.72"/><ellipse class="cls-1" cx="138.3" cy="113.64" rx="7.82" ry="7.72"/><ellipse class="cls-1" cx="194.09" cy="135.92" rx="7.82" ry="7.72"/><ellipse class="cls-1" cx="197.68" cy="113.64" rx="7.82" ry="7.72"/><ellipse class="cls-1" cx="153.94" cy="89.18" rx="7.82" ry="7.72"/><ellipse class="cls-1" cx="182.04" cy="93.2" rx="7.82" ry="7.72"/><ellipse class="cls-1" cx="235.03" cy="50.4" rx="7.82" ry="7.72"/><ellipse class="cls-1" cx="164.87" cy="115.55" rx="7.82" ry="7.72"/><ellipse class="cls-1" cx="164.87" cy="115.55" rx="7.82" ry="7.72"/><ellipse class="cls-1" cx="164.87" cy="115.55" rx="7.82" ry="7.72"/><ellipse class="cls-1" cx="164.87" cy="115.55" rx="7.82" ry="7.72"/><ellipse class="cls-1" cx="164.87" cy="115.55" rx="7.82" ry="7.72"/><ellipse class="cls-1" cx="114.48" cy="54.22" rx="7.82" ry="7.72"/><ellipse class="cls-1" cx="66.21" cy="145.87" rx="7.82" ry="7.72"/><ellipse class="cls-1" cx="188.03" cy="223.86" rx="7.82" ry="7.72"/><ellipse class="cls-1" cx="46.51" cy="237.8" rx="7.82" ry="7.72"/><ellipse class="cls-1" cx="135.41" cy="189.03" rx="7.82" ry="7.72"/><ellipse class="cls-1" cx="91.73" cy="131.23" rx="7.82" ry="7.72"/><ellipse class="cls-1" cx="114.83" cy="126.53" rx="7.82" ry="7.72"/><ellipse class="cls-1" cx="56.09" cy="210.98" rx="7.82" ry="7.72"/><ellipse class="cls-1" cx="69.58" cy="247.56" rx="7.82" ry="7.72"/><ellipse class="cls-1" cx="106.66" cy="230.07" rx="7.82" ry="7.72"/><ellipse class="cls-1" cx="91.73" cy="231.58" rx="7.82" ry="7.72"/><ellipse class="cls-1" cx="67.76" cy="230.49" rx="7.82" ry="7.72"/><ellipse class="cls-1" cx="40.46" cy="226.96" rx="7.82" ry="7.72"/><ellipse class="cls-1" cx="52.42" cy="250.13" rx="7.82" ry="7.72"/><ellipse class="cls-1" cx="39.09" cy="243.21" rx="7.82" ry="7.72"/><ellipse class="cls-1" cx="31.27" cy="237.8" rx="7.82" ry="7.72"/><ellipse class="cls-1" cx="73.1" cy="168.07" rx="7.82" ry="7.72"/><ellipse class="cls-1" cx="110.69" cy="178.21" rx="7.82" ry="7.72"/><ellipse class="cls-1" cx="115.23" cy="190.99" rx="7.82" ry="7.72"/><ellipse class="cls-1" cx="119.77" cy="206.55" rx="7.82" ry="7.72"/><ellipse class="cls-1" cx="101.99" cy="208.41" rx="7.82" ry="7.72"/><ellipse class="cls-1" cx="109.81" cy="226.96" rx="7.82" ry="7.72"/><ellipse class="cls-1" cx="95.06" cy="207.42" rx="7.82" ry="7.72"/><ellipse class="cls-1" cx="84.54" cy="190.99" rx="7.82" ry="7.72"/><ellipse class="cls-1" cx="66.21" cy="187.51" rx="7.82" ry="7.72"/><ellipse class="cls-1" cx="87.24" cy="202.95" rx="7.82" ry="7.72"/><ellipse class="cls-1" cx="96.6" cy="223.86" rx="7.82" ry="7.72"/><ellipse class="cls-1" cx="87.24" cy="220.65" rx="7.82" ry="7.72"/><ellipse class="cls-1" cx="79.42" cy="208.41" rx="7.82" ry="7.72"/><ellipse class="cls-1" cx="66.21" cy="204.48" rx="7.82" ry="7.72"/><ellipse class="cls-1" cx="60.24" cy="219.58" rx="7.82" ry="7.72"/><ellipse class="cls-1" cx="63.91" cy="237.8" rx="7.82" ry="7.72"/><ellipse class="cls-1" cx="35.63" cy="214.27" rx="7.82" ry="7.72"/><ellipse class="cls-1" cx="127.59" cy="200.68" rx="7.82" ry="7.72"/><ellipse class="cls-1" cx="143.22" cy="206.55" rx="7.82" ry="7.72"/></g></g></svg>