<svg xmlns="http://www.w3.org/2000/svg" viewBox="0 0 270.48 161.38"><defs><style>.cls-1{fill:#3db1a8;}.cls-2{fill:#7bbfa8;}.cls-3{fill:#f59797;}</style></defs><title>Asset 30main</title><g id="Layer_2" data-name="Layer 2"><g id="Layer_1-2" data-name="Layer 1"><polyline class="cls-1" points="270.48 161.38 0.05 161.34 0 49.84 71.72 43.75 101.34 58.02 171.2 46.95 190.15 25.19 235.16 36.56 270.23 0"/><polygon class="cls-2" points="270.22 48.6 239.86 67.53 212.94 55.16 182.39 75.11 140.63 91.66 114.6 79.21 62.65 100.18 38.22 76.98 0.06 79.72 0.06 161.38 270.33 161.38 270.22 48.6"/><polygon class="cls-3" points="270.33 76.98 214.27 100.18 173.78 89.44 133.86 115.03 93.92 107.34 68.45 122.72 33.95 104.28 0.06 110.44 0.06 161.38 270.22 161.38 270.33 76.98"/></g></g></svg>