<svg xmlns="http://www.w3.org/2000/svg" viewBox="0 0 176.18 160"><defs><style>.cls-1{fill:#65cade;}.cls-2{fill:#c3df67;}.cls-3{fill:#e3c874;}.cls-4{fill:#f06500;}</style></defs><title>Asset 24main</title><g id="Layer_2" data-name="Layer 2"><g id="Layer_1-2" data-name="Layer 1"><ellipse class="cls-1" cx="32.35" cy="58.73" rx="8.54" ry="8.61"/><ellipse class="cls-1" cx="26.41" cy="80.16" rx="11.67" ry="11.77"/><ellipse class="cls-2" cx="65.29" cy="60.45" rx="12.85" ry="12.96"/><ellipse class="cls-3" cx="49.13" cy="109.85" rx="11.05" ry="11.15"/><ellipse class="cls-4" cx="116.35" cy="66.7" rx="13.32" ry="13.44"/><ellipse class="cls-3" cx="95.65" cy="125.99" rx="10.37" ry="10.47"/><ellipse class="cls-3" cx="148.98" cy="70.91" rx="10.37" ry="10.47"/><ellipse class="cls-3" cx="143.46" cy="96.25" rx="10.37" ry="10.47"/><ellipse class="cls-1" cx="80.29" cy="17.15" rx="7.77" ry="7.84"/><ellipse class="cls-4" cx="82.98" cy="84.29" rx="7.77" ry="7.84"/><ellipse class="cls-2" cx="123.7" cy="101.49" rx="7.77" ry="7.84"/><ellipse class="cls-3" cx="61.03" cy="127.54" rx="7.77" ry="7.84"/><ellipse class="cls-1" cx="157.16" cy="85.78" rx="4.87" ry="4.91"/><ellipse class="cls-1" cx="81.83" cy="30.84" rx="4.87" ry="4.91"/><ellipse class="cls-1" cx="84.73" cy="139.14" rx="4.87" ry="4.91"/><ellipse class="cls-3" cx="81.83" cy="30.84" rx="4.87" ry="4.91"/><ellipse class="cls-1" cx="119.64" cy="29.1" rx="4.87" ry="4.91"/><ellipse class="cls-1" cx="30.24" cy="98.7" rx="4.87" ry="4.91"/><ellipse class="cls-3" cx="136.35" cy="58.73" rx="3.64" ry="3.68"/><ellipse class="cls-4" cx="101.3" cy="77.67" rx="3.64" ry="3.68"/><ellipse class="cls-2" cx="97.33" cy="50.12" rx="3.64" ry="3.68"/><ellipse class="cls-1" cx="26.41" cy="44.25" rx="4.35" ry="4.39"/><ellipse class="cls-3" cx="134.03" cy="119.71" rx="8.77" ry="8.84"/><ellipse class="cls-2" cx="97.65" cy="109.33" rx="4.35" ry="4.39"/><ellipse class="cls-3" cx="113.4" cy="115.53" rx="7.22" ry="7.28"/><ellipse class="cls-1" cx="131.47" cy="20.87" rx="7.22" ry="7.28"/><ellipse class="cls-1" cx="103.03" cy="7.28" rx="7.22" ry="7.28"/><ellipse class="cls-1" cx="98.34" cy="147.45" rx="8.23" ry="8.31"/><ellipse class="cls-1" cx="130.75" cy="35.6" rx="5.86" ry="5.91"/><ellipse class="cls-3" cx="97.33" cy="24.22" rx="8.23" ry="8.31"/><ellipse class="cls-2" cx="134.03" cy="76.64" rx="4.12" ry="4.15"/><ellipse class="cls-3" cx="108.58" cy="137.16" rx="4.12" ry="4.15"/><ellipse class="cls-1" cx="142.73" cy="134.24" rx="4.12" ry="4.15"/><ellipse class="cls-3" cx="46.66" cy="54.35" rx="4.12" ry="4.15"/><ellipse class="cls-1" cx="56.91" cy="13.66" rx="4.12" ry="4.15"/><ellipse class="cls-1" cx="61.03" cy="22.57" rx="4.12" ry="4.15"/><ellipse class="cls-2" cx="103.53" cy="53.26" rx="2.8" ry="2.83"/><ellipse class="cls-2" cx="103.68" cy="47.08" rx="2.8" ry="2.83"/><ellipse class="cls-1" cx="139.99" cy="29.69" rx="2.8" ry="2.83"/><ellipse class="cls-3" cx="79.47" cy="125.99" rx="2.8" ry="2.83"/><ellipse class="cls-1" cx="73.66" cy="134.24" rx="3.96" ry="3.99"/><ellipse class="cls-3" cx="42.5" cy="92.13" rx="5.68" ry="5.73"/><ellipse class="cls-3" cx="116.35" cy="44.25" rx="7.77" ry="7.84"/><ellipse class="cls-3" cx="67.44" cy="34.92" rx="7.77" ry="7.84"/><ellipse class="cls-4" cx="112.23" cy="88.85" rx="7.77" ry="7.84"/><ellipse class="cls-4" cx="90.25" cy="65.5" rx="11.05" ry="11.15"/><ellipse class="cls-1" cx="149.85" cy="44.3" rx="12.85" ry="12.96"/><ellipse class="cls-3" cx="45.61" cy="35.75" rx="12.85" ry="12.96"/><ellipse class="cls-2" cx="124.9" cy="84.29" rx="4.12" ry="4.15"/><ellipse class="cls-1" cx="41.88" cy="128.62" rx="4.12" ry="4.15"/><ellipse class="cls-1" cx="26.41" cy="118.01" rx="11.05" ry="11.15"/><ellipse class="cls-2" cx="61.03" cy="86.06" rx="11.05" ry="11.15"/><ellipse class="cls-1" cx="159.36" cy="115.53" rx="12.7" ry="12.82"/><ellipse class="cls-1" cx="127.72" cy="144.57" rx="12.7" ry="12.82"/><ellipse class="cls-2" cx="76.45" cy="108.77" rx="12.7" ry="12.82"/><ellipse class="cls-4" cx="95.65" cy="96.09" rx="7.67" ry="7.74"/><ellipse class="cls-2" cx="84.33" cy="45.05" rx="7.67" ry="7.74"/><ellipse class="cls-3" cx="46" cy="71.26" rx="7.67" ry="7.74"/><ellipse class="cls-2" cx="108.11" cy="102.71" rx="4.12" ry="4.15"/><ellipse class="cls-3" cx="115.64" cy="128.34" rx="4.12" ry="4.15"/><ellipse class="cls-1" cx="22.06" cy="25.93" rx="8.23" ry="8.31"/><ellipse class="cls-1" cx="14.74" cy="52.78" rx="8.23" ry="8.31"/><ellipse class="cls-1" cx="51.86" cy="147.74" rx="12.15" ry="12.26"/><ellipse class="cls-1" cx="73.66" cy="149.38" rx="7.99" ry="8.06"/><ellipse class="cls-1" cx="167.75" cy="61.09" rx="7.77" ry="7.84"/><ellipse class="cls-1" cx="11.41" cy="100.83" rx="7.77" ry="7.84"/><ellipse class="cls-3" cx="99.18" cy="39.01" rx="4.96" ry="5"/><ellipse class="cls-1" cx="31.81" cy="138.04" rx="6.53" ry="6.58"/><ellipse class="cls-1" cx="7.68" cy="69.34" rx="6.54" ry="6.6"/><ellipse class="cls-1" cx="166.89" cy="77.67" rx="4.87" ry="4.91"/><ellipse class="cls-1" cx="169.1" cy="94.88" rx="7.08" ry="7.14"/><ellipse class="cls-1" cx="5.62" cy="84.37" rx="5.62" ry="5.67"/><ellipse class="cls-1" cx="45.91" cy="15.92" rx="4.12" ry="4.15"/><ellipse class="cls-1" cx="68.06" cy="7.28" rx="6.32" ry="6.38"/><ellipse class="cls-1" cx="35.54" cy="19.77" rx="4.12" ry="4.15"/><ellipse class="cls-1" cx="112.23" cy="18.41" rx="5.86" ry="5.91"/></g></g></svg>