<svg xmlns="http://www.w3.org/2000/svg" viewBox="0 0 160 160"><defs><style>.cls-1{fill:#73cad2;}.cls-2{fill:#f4e09e;}.cls-3{fill:#e18e95;}.cls-4{fill:#02a0af;}.cls-5{fill:gray;}.cls-6{fill:#ecc851;}.cls-7{fill:#cb333f;}.cls-8{fill:#f0d479;}.cls-9{fill:#d45b65;}.cls-10{fill:#6798a3;}.cls-11{fill:#34b3be;}.cls-12{fill:#fefefe;}.cls-13{fill:#649290;}.cls-14{fill:#6ebca7;}.cls-15{fill:#dc806a;}.cls-16{fill:#f4d7d9;}</style></defs><title>Asset 29main</title><g id="Layer_2" data-name="Layer 2"><g id="Layer_1-2" data-name="Layer 1"><path class="cls-1" d="M55.3,71.63c-2.6-.36-5.16-1-7.73-1.51q-17.14-3.53-34.07-8a49.43,49.43,0,0,1-5.33-1.46c.18-.83.29-1.68.53-2.49a64.64,64.64,0,0,1,2.61-7.08c.65-1.49,1.3-3,2-4.46s1.59-2.9,2.37-4.34a66,66,0,0,1,3.84-6c1.16-1.68,2.5-3.22,3.8-4.79a76.49,76.49,0,0,1,6.85-7.09A35,35,0,0,1,33,22.14c1.54-1.14,3.07-2.3,4.61-3.43a76,76,0,0,1,7-4.33c1.64-.94,3.38-1.71,5.11-2.5a73.62,73.62,0,0,1,9.93-3.6A70.75,70.75,0,0,1,75.56,5.64a2.7,2.7,0,0,0,.69-.18c.1,1.38.21,2.76.29,4.14.21,3.59.36,7.18.61,10.77.36,5.27.8,10.53,1.21,15.8,0,.42,0,.84.1,1.27a47.62,47.62,0,0,0,.82-6.52c.36-4.79.49-9.59.63-14.4.1-3.68,0-7.37.14-11.06,1.26,0,2.53.12,3.79.15a50.41,50.41,0,0,1,5.76.45,71.43,71.43,0,0,1,14.57,3.41,60,60,0,0,1,9.71,4.18c-.14.3-.26.6-.41.89l-3.81,7-.18.33h0a3,3,0,0,1-.2.37h0a3.41,3.41,0,0,0-.46.6l-.12.19c-.32.43-.6.87-.93,1.38A70.07,70.07,0,0,1,94,40.84c-4.28,3.62-9,6.42-14.55,7.52a28.74,28.74,0,0,1-.34-3c0-2.33-.59-4.6-.58-7.05a2.16,2.16,0,0,0-.37,1,10.76,10.76,0,0,1-.91,2.83c-.52,1.06-1.53,1.29-2.21.47a10.32,10.32,0,0,1-1.22-1.91,49.11,49.11,0,0,1-3-8c-1.22-4.14-2.33-8.3-3.27-12.5a19.65,19.65,0,0,0-1-3.76,2.38,2.38,0,0,0,0,.71c.51,2.54,1.07,5.06,1.52,7.61.64,3.52,1.37,7,1.91,10.56.29,1.93.63,3.86,1.06,5.76.37,1.58.31,3.22.7,4.78a11.57,11.57,0,0,1,.53,3.09,5.48,5.48,0,0,1-1.8-.16A34.2,34.2,0,0,1,58.71,44.8l-3.79-2.07c.13.45.45.54.67.72a47.41,47.41,0,0,0,4.17,2.73,65.86,65.86,0,0,0,13.32,6.34c.39,2.51.72,5,1.2,7.54.19,1-.1,2.08.41,3.12a5.8,5.8,0,0,1,.06,2.29,6,6,0,0,1-1.44.88c-4.44,1.55-8.9,3-13.44,4.26A21.12,21.12,0,0,1,55.3,71.63Z"/><path class="cls-2" d="M81.84,126a20.52,20.52,0,0,0-.71,4.25c-.56,5-.82,10-1,15.08-.11,3.09,0,6.17-.15,9.25a71.75,71.75,0,0,1-11.71-.91,72.71,72.71,0,0,1-12.18-3A74.22,74.22,0,0,1,43.3,144.9a71.8,71.8,0,0,1-13.53-9.82,70.14,70.14,0,0,1-8-8.53c-.7-.92-1.65-1.68-1.94-2.88.07-.31.36-.39.57-.54A140.83,140.83,0,0,1,42.17,110.3a85.16,85.16,0,0,1,8.95-3.71c0,.38-.23.6-.45.85-1.07,1.18-2.15,2.36-3.2,3.57-2.78,3.22-5.66,6.35-8.57,9.45-2,2.16-4.06,4.31-6.09,6.46-.12.12-.3.25-.07.49a2.71,2.71,0,0,0,.35-.24A71.13,71.13,0,0,1,39,122.23a96.53,96.53,0,0,1,14.64-9.5,75.18,75.18,0,0,1,10.58-4.5,15.13,15.13,0,0,1,4.35-1.16c-.43.73-.85,1.46-1.3,2.17-2.9,4.6-5.75,9.24-8.46,14-2.59,4.51-5.12,9-7.67,13.58a2.59,2.59,0,0,0-.49,1.23,5.43,5.43,0,0,0,1.18-1.71,78.72,78.72,0,0,1,14-17.06,45.08,45.08,0,0,1,7.51-5.52c1.53-.86,3.09-1.65,4.63-2.48l.16,0,2.86,4.2.18.52c.07,1.17.12,2.35.22,3.52.16,1.85.36,3.71.54,5.56Z"/><path class="cls-3" d="M7.08,64.39a163,163,0,0,1,26.29,8,47.34,47.34,0,0,1,5.19,2.34.57.57,0,0,1-.48.18c-1.93.07-3.83.45-5.75.6-3.37.27-6.74.57-10.11.65-4,.1-8,0-12,0a1.61,1.61,0,0,0-1,.1c1.47.15,2.9.31,4.33.43,3.28.29,6.52.82,9.74,1.42a102.93,102.93,0,0,1,13.91,3.6c.4.13.93.08,1.14.59-.26.08-.51.18-.77.24-7,1.59-14,2.76-21,3.82l-8,1,0,.18,8-.83c9.2-.85,18.4-1.54,27.84-2.18-1.76-.89-3.45-1.3-4.94-2.16a1.47,1.47,0,0,1,.9-.36c2.79-.59,5.54-1.31,8.29-2.08-.07-.35-.35-.38-.55-.49L40.2,75.35c-.28-.14-.67-.16-.75-.58,3.27-.56,6.54-1.09,9.79-1.69,2-.38,4.07-.86,6.1-1.3,1.65.16,3.25.56,4.88.86,2.6.47,5.18,1,7.8,1.36l0,.13c-.32.09-.64.17-1,.27-4.07,1.36-8.15,2.68-12.28,3.84L49,79.9l.46.28c1.94,1.23,4,2.29,5.86,3.61a1.52,1.52,0,0,1-.86.2c-2.81,0-5.6.37-8.4.37a2.1,2.1,0,0,0-1,.27A94.15,94.15,0,0,1,55.32,90.1a45,45,0,0,1,6.16,4.26,31.06,31.06,0,0,1-2.73,3.53c-1.44,1.92-3.18,3.59-4.55,5.57h0l-.17.16-.35.16a114.12,114.12,0,0,0-15.82,5.75,150,150,0,0,0-19.6,10.61c-.25.15-.53.27-.8.41a1.12,1.12,0,0,1-.18-.2,75,75,0,0,1-8.56-18.43A73,73,0,0,1,5.48,82.19a71.92,71.92,0,0,1,.32-9.51C6.1,69.89,6.53,67.14,7.08,64.39Z"/><path class="cls-1" d="M116.16,52.17a33,33,0,0,0,5.89-2A123.08,123.08,0,0,0,141.7,39.92a9.25,9.25,0,0,1,.88-.47,72.65,72.65,0,0,1,7.21,14.2A75.94,75.94,0,0,1,154.39,74c.28,3.08.2,6.17.18,9.25a1.15,1.15,0,0,1-.13.79l-3.72-.2c-2.46-.28-4.93-.38-7.4-.5-2.84-.21-5.67-.38-8.5-.63q-7.4-.66-14.79-1.4c-4.12-.41-8.23-.84-12.34-1.33s-8.21-1-12.31-1.6c-2-.27-4.06-.6-6.08-.9,1.12-1.75,2.49-3.32,3.74-5,3-4,6.15-7.78,9.28-11.63.43-.53,1.15-.92,1.17-1.75l1.08-.74c2.12-1,4.21-2.06,6.22-3.25a23.82,23.82,0,0,0,3.76-2.25Z"/><path class="cls-2" d="M87.18,108.73c1.84-.09,3.68-.24,5.52-.21a43,43,0,0,1,13.7,2.68,69.65,69.65,0,0,1,15.26,7.89,108.71,108.71,0,0,1,11.81,9.13,13.78,13.78,0,0,1,1.85,1.73,3,3,0,0,1-.26.36,75.36,75.36,0,0,1-17.44,14.07,65.5,65.5,0,0,1-11,5.22l-3.82-9.39c0-.16,0-.33-.2-.41h0c0-.15,0-.31-.19-.37h0a1.81,1.81,0,0,0-.25-1c-.52-1.16-1-2.32-1.54-3.48a81.05,81.05,0,0,0-7.86-14.55,9,9,0,0,0-2.54-2.75h0l-.19-.19h0l-.21-.19-.52-.54-.18-.19h0a3,3,0,0,0-.87-1.26l-.07-.2c-.3-2.07-.59-4.13-1.06-6.17A.84.84,0,0,1,87.18,108.73Z"/><path class="cls-4" d="M76.25,5.46a2.7,2.7,0,0,1-.69.18A70.75,70.75,0,0,0,59.67,8.28a73.62,73.62,0,0,0-9.93,3.6c-1.73.79-3.47,1.56-5.11,2.5a76,76,0,0,0-7,4.33C36.08,19.84,34.55,21,33,22.14a35,35,0,0,0-2.81,2.35,76.49,76.49,0,0,0-6.85,7.09c-1.3,1.57-2.64,3.11-3.8,4.79a66,66,0,0,0-3.84,6c-.78,1.44-1.64,2.87-2.37,4.34s-1.38,3-2,4.46A64.64,64.64,0,0,0,8.7,58.22c-.24.81-.35,1.66-.53,2.49-1.73-.26-3.38-.87-5.09-1.27-.59-.13-.23-.53-.16-.79A66.94,66.94,0,0,1,6.31,48.9Q22.72,12,61.87,2.1A71.52,71.52,0,0,1,75.14.16c.73,0,.93.15.93.86C76.08,2.5,76.18,4,76.25,5.46Z"/><path class="cls-5" d="M154.44,84a1.15,1.15,0,0,0,.13-.79c0-3.08.1-6.17-.18-9.25a75.94,75.94,0,0,0-4.6-20.32,72.65,72.65,0,0,0-7.21-14.2c1.36-.9,2.73-1.79,4.06-2.72.53-.37.68,0,.89.32a79.89,79.89,0,0,1,12,33.93c2.27,21.8-3.38,41.35-16.75,58.7-.51.67-.87.82-1.53.17-1.06-1-2.38-1.77-3.35-2.9a57.41,57.41,0,0,0,6.57-9.5,55.13,55.13,0,0,0,4.28-8.47A71.4,71.4,0,0,0,154.44,84Z"/><path class="cls-2" d="M144.45,117.45a57.41,57.41,0,0,1-6.57,9.5,31.6,31.6,0,0,1-3.83-2.87,111.68,111.68,0,0,0-20.32-12.4,73.63,73.63,0,0,0-19.22-6,48.72,48.72,0,0,0-7.91-.77l-.07,0c-.22-1.56-.44-3.13-.67-4.69a71.33,71.33,0,0,1,8.14.39,29.84,29.84,0,0,1,3,.21c2.47.38,4.93.86,7.42,1a11.59,11.59,0,0,0,2.94.77,44.39,44.39,0,0,0,5.61,1.19h0c.12.24.35.19.55.19h0a1.19,1.19,0,0,0,1.11.37h0c.12.23.34.19.55.19h0c.15.24.38.18.6.18h.11c.14.22.36.19.57.19h0c.13.23.35.18.56.19h0c.14.24.37.18.58.19,1,.3,2,.54,3,.91,4.18,1.6,8.33,3.25,12.38,5.17S140.68,115.28,144.45,117.45Z"/><path class="cls-6" d="M19.83,123.67c.29,1.2,1.24,2,1.94,2.88a70.14,70.14,0,0,0,8,8.53A71.8,71.8,0,0,0,43.3,144.9a74.22,74.22,0,0,0,12.81,5.73,72.71,72.71,0,0,0,12.18,3,71.75,71.75,0,0,0,11.71.91c0,1.52,0,3,0,4.54,0,.71-.16.93-.9.92a80.94,80.94,0,0,1-23-3.65,78.91,78.91,0,0,1-13.94-5.85,79.88,79.88,0,0,1-11.83-7.77,82.61,82.61,0,0,1-8.72-8,73.49,73.49,0,0,1-6-7.35c-.14-.19-.47-.44-.12-.68A35.67,35.67,0,0,1,19.83,123.67Z"/><path class="cls-5" d="M113.88,13.65a60,60,0,0,0-9.71-4.18A71.43,71.43,0,0,0,89.6,6.06a50.41,50.41,0,0,0-5.76-.45c-1.26,0-2.53-.12-3.79-.15,0-1.54,0-3.09,0-4.63,0-.72.24-.84.88-.83a80.16,80.16,0,0,1,63.51,32.46c.36.48.43.75-.14,1.13-1.26.84-2.47,1.75-3.7,2.63-.42-.18-.6-.58-.85-.91a58.67,58.67,0,0,0-6.89-7.88c-.18-.2-.35-.41-.54-.6a69.87,69.87,0,0,0-11.17-9A49.15,49.15,0,0,0,113.88,13.65Z"/><path class="cls-5" d="M106.58,149.6a65.5,65.5,0,0,0,11-5.22,75.36,75.36,0,0,0,17.44-14.07,3,3,0,0,0,.26-.36,48.46,48.46,0,0,1,3.83,3.32c.48.41,0,.64-.25.87A76.56,76.56,0,0,1,128,144a79.83,79.83,0,0,1-35.53,15,74.1,74.1,0,0,1-7.58.83c-.74,0-.92-.19-.92-.89,0-1.48-.11-3-.18-4.44,1.79-.18,3.59-.32,5.37-.54a40.42,40.42,0,0,0,6.17-1.07A56.4,56.4,0,0,0,106.58,149.6Z"/><path class="cls-7" d="M7.08,64.39c-.55,2.75-1,5.5-1.28,8.29a71.92,71.92,0,0,0-.32,9.51,73,73,0,0,0,3.25,19.72,75,75,0,0,0,8.56,18.43,1.12,1.12,0,0,0,.18.2c-1.38.92-2.77,1.82-4.13,2.76-.59.41-.67-.13-.85-.42a77.64,77.64,0,0,1-6.84-13.37A79.87,79.87,0,0,1,1.61,64c.13-.65.33-.76,1-.6C4.06,63.77,5.57,64.06,7.08,64.39Z"/><path class="cls-3" d="M132.81,27.43a58.67,58.67,0,0,1,6.89,7.88c.25.33.43.73.85.91-6.81,4.91-13.8,9.55-21,13.85-1.14.68-2.25,1.4-3.38,2.1l-1.61.69-1.31.36a35,35,0,0,1-5.37,1.17.76.76,0,0,1,.06-.16c3.28-3.87,6.66-7.64,10.09-11.38,2.22-2.42,4.55-4.76,6.77-7.19.46-.51,1.12-.94,1.24-1.72l1.06-1c.17,0,.32,0,.39-.19h0l.19-.19h0l.19-.19h0l.19-.19h0l.19-.19h0l.19-.19h0c.13-.05.15-.11,0-.18Z"/><path class="cls-1" d="M95.34,152.9A40.42,40.42,0,0,1,89.17,154c-1.78.22-3.58.36-5.37.54a26.53,26.53,0,0,1-.26-3.88c-.28-3.58-.4-7.17-.63-10.76-.28-4.4-.61-8.8-.93-13.2a5.94,5.94,0,0,0-.14-.71c0-.29,0-.59,0-.89.41-1.77.88-3.53,1.44-5.26a.92.92,0,0,1,.45.54c1.58,3.25,3.31,6.43,4.66,9.8,1.58,4,3,8,4.22,12.11.45,1.55.94,3.09,1.41,4.63h0c0,.27-.07.56.18.77a.11.11,0,0,1,0,.1c0,.28-.09.58.18.79Z"/><path class="cls-8" d="M53.69,103.77l.35-.16.17-.16h0a4,4,0,0,0,.71-.1c2.51-.75,5.1-1.17,7.64-1.79,1.93-.48,3.92-.61,5.84-1.06l.51,0,2.38,2.53a14.25,14.25,0,0,0-2.18,3.6.92.92,0,0,0-.56.38,15.13,15.13,0,0,0-4.35,1.16,75.18,75.18,0,0,0-10.58,4.5A96.53,96.53,0,0,0,39,122.23a71.13,71.13,0,0,0-5.88,4.94,2.71,2.71,0,0,1-.35.24c-.23-.24-.05-.37.07-.49,2-2.15,4.07-4.3,6.09-6.46,2.91-3.1,5.79-6.23,8.57-9.45,1.05-1.21,2.13-2.39,3.2-3.57.22-.25.48-.47.45-.85A7.82,7.82,0,0,0,53.69,103.77Z"/><path class="cls-9" d="M38.39,82.32c-.21-.51-.74-.46-1.14-.59a102.93,102.93,0,0,0-13.91-3.6c-3.22-.6-6.46-1.13-9.74-1.42-1.43-.12-2.86-.28-4.33-.43a1.61,1.61,0,0,1,1-.1c4,0,8,.07,12,0,3.37-.08,6.74-.38,10.11-.65,1.92-.15,3.82-.53,5.75-.6a.57.57,0,0,0,.48-.18l.89,0c.08.42.47.44.75.58l7.91,4.06c.2.11.48.14.55.49-2.75.77-5.5,1.49-8.29,2.08a1.47,1.47,0,0,0-.9.36Z"/><path class="cls-10" d="M68,74c-2.62-.34-5.2-.89-7.8-1.36-1.63-.3-3.23-.7-4.88-.86a.83.83,0,0,1,0-.15,21.12,21.12,0,0,0,4.57-1c4.54-1.23,9-2.71,13.44-4.26a6,6,0,0,0,1.44-.88c.1.17.33.24.36.48.24,1.83.62,3.63.72,5.47a7.7,7.7,0,0,0-2,.58C71.9,72.65,70,73.52,68,74Z"/><path class="cls-1" d="M87.18,108.73a.84.84,0,0,0-.05.17,8.27,8.27,0,0,0-3.11.56l-.18,0-.27-.35c-1.09-1.42-2.38-2.67-3.36-4.18l6.32,0,.07,0C86.79,106.18,87,107.46,87.18,108.73Z"/><path class="cls-2" d="M132.81,27.43l-4.41,4.21,0,.18h0l-.19.19h0l-.19.19h0l-.19.19h0l-.19.19h0l-.19.19h0a.41.41,0,0,0-.39.19l-1.06,1a3,3,0,0,0-.46.29c-2.77,2.39-5.49,4.82-8.37,7.08a166.45,166.45,0,0,1-15.62,11l-6,3.64-.34.06L89.5,56l0-.13C91.81,52.52,93.9,49,96,45.56q5.26-8.52,10.09-17.29a42.61,42.61,0,0,0,2.8-5.36h0c.16-.31.2-.44.37-.74h0l.2-.37h0l.18-.33,3.81-7c.15-.29.27-.59.41-.89a49.15,49.15,0,0,1,7.22,4.13,69.87,69.87,0,0,1,11.17,9C132.46,27,132.63,27.23,132.81,27.43Z"/><path class="cls-11" d="M75.83,71.42c-.1-1.84-.48-3.64-.72-5.47,0-.24-.26-.31-.36-.48a5.8,5.8,0,0,0-.06-2.29c-.51-1-.22-2.09-.41-3.12-.48-2.5-.81-5-1.2-7.54h0a49.82,49.82,0,0,0,7,2h0a5.77,5.77,0,0,0,0,.72c.29,2.62.59,5.24.88,7.86l.54,4.52a3.21,3.21,0,0,0,.18,1.3c0,.39,0,.78.07,1.17.21,1.76.46,3.52.65,5.28.1,1-.07,1.13-1.09.94l-.18,0a34.82,34.82,0,0,0-4.55-.63l-.19-.2A18.79,18.79,0,0,0,75.83,71.42Z"/><path class="cls-11" d="M72.39,48.9a11.57,11.57,0,0,0-.53-3.09c-.39-1.56-.33-3.2-.7-4.78-.43-1.9-.77-3.83-1.06-5.76-.54-3.54-1.27-7-1.91-10.56-.45-2.55-1-5.07-1.52-7.61a2.38,2.38,0,0,1,0-.71,19.65,19.65,0,0,1,1,3.76c.94,4.2,2,8.36,3.27,12.5a49.11,49.11,0,0,0,3,8,10.32,10.32,0,0,0,1.22,1.91c.68.82,1.69.59,2.21-.47a10.76,10.76,0,0,0,.91-2.83,2.16,2.16,0,0,1,.37-1c0,2.45.57,4.72.58,7.05a28.74,28.74,0,0,0,.34,3h0a16.6,16.6,0,0,1-5.25.56c-.56,0-1.14,0-1.71,0A.31.31,0,0,1,72.39,48.9Z"/><path class="cls-12" d="M52.09,40.86,52,40.77s.07-.07.11-.08.06,0,.06,0A.65.65,0,0,1,52.09,40.86Z"/><path class="cls-13" d="M83.84,109.44l.18,0c0,.11,0,.25.11.33,1.53,1.63,2.69,3.53,4.06,5.28,0,.06,0,.13.07.2,0,.3.07.6.11.9a3.23,3.23,0,0,0-3.82,1.42c-.47.64-.83,1.35-1.24,2-.75-1.2-1.36-2.49-2.21-3.63l-.18-.52c-.12-1.76-.25-3.52-.37-5.28C81.69,110.14,82.71,109.55,83.84,109.44Z"/><path class="cls-3" d="M77.9,111.24a37.2,37.2,0,0,0-3.49-4.61c-.22-.25-.4-.53-.6-.79a28.91,28.91,0,0,1,6.15-.76c.14,1.69.45,3.37.45,5.08a7.79,7.79,0,0,1-2.35,1.11Z"/><path class="cls-14" d="M81.1,116c.85,1.14,1.46,2.43,2.2,3.63v.19c-.56,1.73-1,3.49-1.44,5.26-.18-1.85-.38-3.71-.54-5.56C81.22,118.34,81.17,117.16,81.1,116Z"/><path class="cls-15" d="M78.06,111.27a7.79,7.79,0,0,0,2.35-1.11l.14,0c.12,1.76.25,3.52.37,5.28Z"/><path class="cls-12" d="M50.38,138.35c0,.34-.11.6-.52,1,.13-.52.21-.81.52-1Z"/><polygon class="cls-8" points="31.47 128.35 31.51 128.27 31.55 128.31 31.47 128.35"/><path class="cls-8" d="M31.47,128.35l-.19.18h0Z"/><path class="cls-8" d="M30.92,128.9l0,.07,0-.07Z"/><path class="cls-12" d="M50.38,138.35l0-.07s0,0,.06,0l-.09.09Z"/><path class="cls-8" d="M31.1,128.71l-.18.19h0l.18-.18Z"/><path class="cls-9" d="M55.31,83.79l.5.12a3.06,3.06,0,0,0,.3.32L63,89.1a7.81,7.81,0,0,0,2,1.42,1.61,1.61,0,0,0,.27.36c2.53,2,4.91,4.09,7.25,6.27.54.49,1,1.18,1.74,1.4,0,.54.71.69.8,1.2a5.87,5.87,0,0,1-1.85.26,30.23,30.23,0,0,0-4.23.55l-.51,0c0-.34-.29-.51-.49-.73a41,41,0,0,0-6.42-5.42,45,45,0,0,0-6.16-4.26A94.15,94.15,0,0,0,45,84.63a2.1,2.1,0,0,1,1-.27c2.8,0,5.59-.42,8.4-.37A1.52,1.52,0,0,0,55.31,83.79Z"/><path class="cls-15" d="M61.48,94.36a41,41,0,0,1,6.42,5.42c.2.22.47.39.49.73-1.92.45-3.91.58-5.84,1.06-2.54.62-5.13,1-7.64,1.79a4,4,0,0,1-.71.1c1.37-2,3.11-3.65,4.55-5.57A31.06,31.06,0,0,0,61.48,94.36Z"/><path class="cls-1" d="M76,75.47l-8-1.34L68,74c2-.48,3.88-1.35,5.82-2a7.7,7.7,0,0,1,2-.58,18.79,18.79,0,0,1,.54,4Z"/><path class="cls-16" d="M8,87.58H7v0h1Z"/><path class="cls-15" d="M54.21,103.45l-.17.16Z"/><path class="cls-3" d="M115.83,104.71h-.11a.67.67,0,0,0-.6-.18h0c-.13-.22-.35-.18-.55-.19h0a1.42,1.42,0,0,0-1.11-.37h0c-.13-.21-.35-.19-.55-.19h0a81.39,81.39,0,0,0-8.57-2.16,98.21,98.21,0,0,0-18.57-2l-.15-.16-1-7.23-1-7.33c.48-.67,1-1.33,1.43-2l.23-.07c.6,0,1.2-.07,1.8-.07,13.23-.11,26.45-.15,39.67.16,5.5.13,11,.35,16.5.52a73.24,73.24,0,0,0,7.41.37l3.72.2a71.4,71.4,0,0,1-5.71,25,55.13,55.13,0,0,1-4.28,8.47c-3.77-2.17-7.6-4.24-11.53-6.11s-8.2-3.57-12.38-5.17c-1-.37-2-.61-3-.91-.15-.19-.37-.18-.58-.19h0c-.14-.2-.35-.18-.56-.19h0C116.26,104.7,116,104.72,115.83,104.71Z"/><path class="cls-14" d="M76.56,75.64a34.82,34.82,0,0,1,4.55.63l.18,0c1,.19,1.19.07,1.09-.94-.19-1.76-.44-3.52-.65-5.28,0-.39,0-.78-.07-1.17.31-.11.63-.19.94-.32,6.72-2.76,13.32-5.8,19.82-9.07a2.59,2.59,0,0,1,1.07-.44c0,.83-.74,1.22-1.17,1.75C99.19,64.7,96,68.53,93,72.48c-1.25,1.65-2.62,3.22-3.74,5l-.18,0-5.6-.9c-.92-.15-1,0-.88.93.24,1.78.45,3.57.67,5.35l-5.83,0C77.11,80.49,76.76,78.07,76.56,75.64Z"/><path class="cls-13" d="M103.49,59.1a2.59,2.59,0,0,0-1.07.44c-6.5,3.27-13.1,6.31-19.82,9.07-.31.13-.63.21-.94.32a3.21,3.21,0,0,1-.18-1.3,1.29,1.29,0,0,0,.52-.49c.91-1.34,1.86-2.67,2.73-4,.41-.64,1.07-1.17,1.11-2l.72-.54A66.72,66.72,0,0,0,95.29,56l.34-.06a19.91,19.91,0,0,0,3-.07c2.9-.37,5.81-.61,8.68-1.19,0,.34-.26.51-.44.74a23.83,23.83,0,0,0-2.29,2.91Z"/><path class="cls-10" d="M104.57,58.36a23.83,23.83,0,0,1,2.29-2.91c.18-.23.45-.4.44-.74l.37-.18.19-.15h0a35,35,0,0,0,5.37-1.17l1.31-.36a23.82,23.82,0,0,1-3.76,2.25C108.78,56.3,106.69,57.37,104.57,58.36Z"/><path class="cls-3" d="M95.34,152.9c-.31-1.45-.63-2.9-.94-4.36,0-.27,0-.56-.18-.79a.11.11,0,0,0,0-.1c0-.27.08-.56-.18-.77h0a15.56,15.56,0,0,0-.54-3c-1.2-6.34-2.42-12.68-3.58-19-.5-2.76-1.07-5.51-1.39-8.3h.59l.18.19.52.54.21.19h0c0,.11.06.19.19.19h0c0,.33.22.55.38.8a150.2,150.2,0,0,1,10.85,19.18,8.48,8.48,0,0,0,1,1.84h0a.42.42,0,0,0,.19.37h0a.48.48,0,0,0,.2.41l3.82,9.39A56.4,56.4,0,0,1,95.34,152.9Z"/><path class="cls-14" d="M88.19,115.07c-1.37-1.75-2.53-3.65-4.06-5.28-.07-.08-.07-.22-.11-.33a8.27,8.27,0,0,1,3.11-.56C87.6,110.94,87.89,113,88.19,115.07Z"/><path class="cls-15" d="M89.13,116.53h-.6l-.16-.36c0-.3-.08-.6-.11-.9A3,3,0,0,1,89.13,116.53Z"/><path class="cls-12" d="M102.57,139.81a.42.42,0,0,1-.19-.37C102.57,139.5,102.57,139.66,102.57,139.81Z"/><path class="cls-12" d="M102.76,140.21a.48.48,0,0,1-.2-.41C102.75,139.88,102.75,140.05,102.76,140.21Z"/><path class="cls-12" d="M90.21,117.63c-.13,0-.18-.08-.19-.19Z"/><path class="cls-12" d="M90,117.45l-.21-.19Z"/><path class="cls-15" d="M89.3,116.72l-.18-.19Z"/><path class="cls-14" d="M86.53,104.89l-6.32,0H80l-.17-.32a27.91,27.91,0,0,0-.4-4.08.47.47,0,0,1,.06-.15,50.94,50.94,0,0,0,6.3-.17l0,0Z"/><path class="cls-16" d="M104.4,101.85l0-.2a81.39,81.39,0,0,1,8.57,2.16,44.39,44.39,0,0,1-5.61-1.19A11.59,11.59,0,0,1,104.4,101.85Z"/><path class="cls-16" d="M113.48,104a1.42,1.42,0,0,1,1.11.37A1.19,1.19,0,0,1,113.48,104Z"/><path class="cls-16" d="M115.83,104.71c.21,0,.43,0,.57.19C116.19,104.9,116,104.93,115.83,104.71Z"/><path class="cls-16" d="M116.39,104.89c.21,0,.42,0,.56.19C116.74,105.07,116.52,105.12,116.39,104.89Z"/><path class="cls-16" d="M116.94,105.07c.21,0,.43,0,.58.19C117.31,105.25,117.08,105.31,116.94,105.07Z"/><path class="cls-16" d="M112.94,103.8c.2,0,.42,0,.55.19C113.29,104,113.06,104,112.94,103.8Z"/><path class="cls-16" d="M114.58,104.34c.2,0,.42,0,.55.19C114.92,104.53,114.7,104.57,114.58,104.34Z"/><path class="cls-16" d="M115.12,104.53a.67.67,0,0,1,.6.18C115.5,104.71,115.27,104.77,115.12,104.53Z"/><path class="cls-15" d="M107.67,54.53l-.37.18c-2.87.58-5.78.82-8.68,1.19a19.91,19.91,0,0,1-3,.07l6-3.64a166.45,166.45,0,0,0,15.62-11c2.88-2.26,5.6-4.69,8.37-7.08a3,3,0,0,1,.46-.29c-.12.78-.78,1.21-1.24,1.72-2.22,2.43-4.55,4.77-6.77,7.19-3.43,3.74-6.81,7.51-10.09,11.38a.76.76,0,0,0-.06.16h0Z"/><path class="cls-15" d="M127.09,32.91a.41.41,0,0,1,.39-.19C127.41,32.89,127.26,32.92,127.09,32.91Z"/><path class="cls-15" d="M127.48,32.73l.19-.19Z"/><path class="cls-15" d="M127.66,32.55l.19-.19Z"/><path class="cls-15" d="M128,32.19l.19-.19Z"/><path class="cls-15" d="M128.2,32l.19-.19Z"/><path class="cls-15" d="M128.38,31.82l0-.18C128.53,31.71,128.51,31.77,128.38,31.82Z"/><path class="cls-15" d="M127.84,32.37l.19-.19Z"/><path class="cls-10" d="M88.37,116.17l.16.36c.32,2.79.89,5.54,1.39,8.3,1.16,6.36,2.38,12.7,3.58,19a15.56,15.56,0,0,1,.54,3c-.47-1.54-1-3.08-1.41-4.63-1.18-4.12-2.64-8.13-4.22-12.11-1.35-3.37-3.08-6.55-4.66-9.8a.92.92,0,0,0-.45-.54v-.19c.42-.68.78-1.39,1.25-2A3.23,3.23,0,0,1,88.37,116.17Z"/><path class="cls-10" d="M94.22,147.75c.22.23.17.52.18.79C94.13,148.33,94.22,148,94.22,147.75Z"/><path class="cls-10" d="M94,146.88c.26.21.17.5.18.77C94,147.44,94,147.15,94,146.88Z"/><path class="cls-15" d="M79.85,104.58l.17.32a1.27,1.27,0,0,1-.06.18,28.91,28.91,0,0,0-6.15.76l-.15,0c-.8-.9-1.59-1.8-2.38-2.71l-2.38-2.53a30.23,30.23,0,0,1,4.23-.55c0,.39-.52.58-.39,1l3.29-.32.15,0A51,51,0,0,0,79.85,104.58Z"/><path class="cls-2" d="M71.28,103.09c.79.91,1.58,1.81,2.38,2.71l-4.56.89A14.25,14.25,0,0,1,71.28,103.09Z"/><path class="cls-10" d="M80,105.08a1.27,1.27,0,0,0,.06-.18h.19c1,1.51,2.27,2.76,3.36,4.18l.27.35c-1.13.11-2.15.7-3.29.75l-.14,0C80.41,108.45,80.1,106.77,80,105.08Z"/><path class="cls-1" d="M86.56,60.54l-.72.54a10,10,0,0,0-2.23,1,11.08,11.08,0,0,1-2.67,1.08c-.29-2.62-.59-5.24-.88-7.86a5.77,5.77,0,0,1,0-.72,49.94,49.94,0,0,0,9.43,1.33l0,.13A41.05,41.05,0,0,0,86.56,60.54Z"/><path class="cls-14" d="M86.56,60.54A41.05,41.05,0,0,1,89.5,56l5.79,0A66.72,66.72,0,0,1,86.56,60.54Z"/><path class="cls-1" d="M73.08,52.52,72.51,49c.57,0,1.15-.05,1.71,0a16.6,16.6,0,0,0,5.25-.56L80,54.53A49.82,49.82,0,0,1,73.08,52.52Z"/><path class="cls-2" d="M76.56,75.64c.2,2.43.55,4.85.92,7.26,0,0,0,.1,0,.15l-7.08.17,5.17-7c.17-.25.33-.51.49-.76l.35,0Z"/><path class="cls-10" d="M80.94,63.11A11.08,11.08,0,0,0,83.61,62a10,10,0,0,1,2.23-1c0,.85-.7,1.38-1.11,2-.87,1.37-1.82,2.7-2.73,4a1.29,1.29,0,0,1-.52.49Z"/><path class="cls-15" d="M70.36,83.22l7.08-.17c0,.45.07.9.14,1.34q.6,4,1,8A2,2,0,0,0,78,93q-1.87,2.78-3.77,5.53c-.77-.22-1.2-.91-1.74-1.4-2.34-2.18-4.72-4.31-7.25-6.27a1.61,1.61,0,0,1-.27-.36c.13-.77.78-1.19,1.19-1.78,1.3-1.86,2.87-3.53,4.09-5.46Z"/><path class="cls-3" d="M70.2,83.28c-1.22,1.93-2.79,3.6-4.09,5.46-.41.59-1.06,1-1.19,1.78a7.81,7.81,0,0,1-2-1.42l-6.86-4.87a3.06,3.06,0,0,1-.3-.32c1.08-.08,2.16-.19,3.24-.24Z"/><path class="cls-3" d="M74.18,98.55Q76.07,95.79,78,93a2,2,0,0,1,.59-.67c.14,1.13.26,2.26.41,3.39s.34,2.48.51,3.72l-.06.17a24.34,24.34,0,0,0-4.05.25l.68.83-3.29.32c-.13-.44.4-.63.39-1A5.87,5.87,0,0,0,75,99.75C74.89,99.24,74.23,99.09,74.18,98.55Z"/><path class="cls-10" d="M79.46,99.46c-.17-1.24-.35-2.48-.51-3.72s-.27-2.26-.41-3.39q-.36-4-1-8c-.07-.44-.1-.89-.14-1.34,0,0,0-.1,0-.15h5.89a11.25,11.25,0,0,0,.31,2l1,7.33,1,7.23Z"/><path class="cls-2" d="M89.12,77.5C88.05,79,87,80.39,85.92,81.84a2.26,2.26,0,0,0-.58,1l-.23.07h-1.8c-.22-1.79-.43-3.58-.67-5.36-.14-1,0-1.08.88-.93Z"/><path class="cls-1" d="M79.46,99.46h6.2l.15.16v.56a50.94,50.94,0,0,1-6.3.17l-.12-.72A1.22,1.22,0,0,0,79.46,99.46Z"/><path class="cls-15" d="M83.37,82.9h1.74c-.47.67-1,1.33-1.43,2A11.25,11.25,0,0,1,83.37,82.9Z"/><path class="cls-3" d="M107.67,54.53l.19-.15Z"/><path class="cls-2" d="M79.85,104.58a51,51,0,0,1-3.67-3.83l3.27-.25A27.91,27.91,0,0,1,79.85,104.58Z"/></g></g></svg>