<svg xmlns="http://www.w3.org/2000/svg" viewBox="0 0 160 160"><defs><style>.cls-1{fill:#ece8dd;}.cls-2{fill:#fff;}.cls-3{fill:#67ccee;}.cls-4{fill:#8ec536;}.cls-5{fill:#f1625c;}.cls-6{fill:#f5b659;}.cls-7{fill:#f29a76;}</style></defs><title>Asset 31main</title><g id="Layer_2" data-name="Layer 2"><g id="Layer_1-2" data-name="Layer 1"><path class="cls-1" d="M2,80A78,78,0,1,0,80,2,78,78,0,0,0,2,80Zm43.7,0A34.27,34.27,0,1,1,80,114.27,34.27,34.27,0,0,1,45.73,80Z"/><path class="cls-2" d="M0,80a80,80,0,1,1,80,80A80.09,80.09,0,0,1,0,80Zm4.06,0A75.94,75.94,0,1,0,80,4.06,76,76,0,0,0,4.06,80ZM43.7,80A36.3,36.3,0,1,1,80,116.3,36.35,36.35,0,0,1,43.7,80Zm4.06,0A32.24,32.24,0,1,0,80,47.76,32.27,32.27,0,0,0,47.76,80Z"/><path class="cls-3" d="M4,97.34l42.62-9.72a34.3,34.3,0,0,0,18.53,23.22l-19,39.42A78.11,78.11,0,0,1,4,97.34Z"/><path class="cls-2" d="M45.27,152.09A80.7,80.7,0,0,1,2,97.79a2,2,0,0,1,1.53-2.43l42.62-9.72a2,2,0,0,1,1.53.26,2,2,0,0,1,.9,1.27A32.08,32.08,0,0,0,66,109a2,2,0,0,1,1,2.7L48,151.14a2.08,2.08,0,0,1-1.16,1,2.24,2.24,0,0,1-.67.11A2.1,2.1,0,0,1,45.27,152.09ZM45.14,90,6.44,98.86a76.66,76.66,0,0,0,38.78,48.67l17.24-35.79A36,36,0,0,1,45.14,90Z"/><path class="cls-4" d="M46.16,150.26l19-39.42a33.93,33.93,0,0,0,29.71,0l19,39.42a78.14,78.14,0,0,1-67.67,0Z"/><path class="cls-2" d="M45.28,152.09a2,2,0,0,1-1-2.71l19-39.42a2,2,0,0,1,1.16-1A2,2,0,0,1,66,109,32.07,32.07,0,0,0,94,109a2,2,0,0,1,1.55-.09,2,2,0,0,1,1.16,1l19,39.42a2,2,0,0,1-.94,2.7,80.15,80.15,0,0,1-69.44,0Zm48.6-38.58a36.06,36.06,0,0,1-27.76,0L48.88,149.29a76.17,76.17,0,0,0,62.23,0Z"/><path class="cls-5" d="M113.83,150.27l-19-39.43a34.25,34.25,0,0,0,18.54-23.22L156,97.35A78.13,78.13,0,0,1,113.83,150.27Z"/><path class="cls-2" d="M113.17,152.18a2,2,0,0,1-1.16-1L93,111.73A2,2,0,0,1,94,109a32.07,32.07,0,0,0,17.44-21.85,2,2,0,0,1,2.43-1.53l42.62,9.73A2,2,0,0,1,158,97.8a80.65,80.65,0,0,1-43.27,54.29,2,2,0,0,1-.88.2A1.89,1.89,0,0,1,113.17,152.18ZM114.86,90a36,36,0,0,1-17.32,21.7l17.23,35.79a76.62,76.62,0,0,0,38.78-48.66Z"/><path class="cls-6" d="M114.27,80a34.14,34.14,0,0,0-7.49-21.35L141,31.4A77.87,77.87,0,0,1,156,97.35l-42.62-9.73A34.17,34.17,0,0,0,114.27,80Z"/><path class="cls-2" d="M155.56,99.33,112.94,89.6a2,2,0,0,1-1.53-2.43,32.42,32.42,0,0,0,.83-7.17,31.9,31.9,0,0,0-7-20.09,2,2,0,0,1-.43-1.49,2.05,2.05,0,0,1,.75-1.36l34.17-27.25a2,2,0,0,1,2.85.32A79.13,79.13,0,0,1,160,80a80.7,80.7,0,0,1-2,17.8,2,2,0,0,1-.9,1.27,2.08,2.08,0,0,1-1.08.31A2.3,2.3,0,0,1,155.56,99.33ZM109.59,59a35.89,35.89,0,0,1,6.71,21,35.13,35.13,0,0,1-.54,6.08l38.7,8.83A76.61,76.61,0,0,0,155.94,80a75,75,0,0,0-15.33-45.73Z"/><path class="cls-7" d="M141,31.4,106.78,58.65A34.17,34.17,0,0,0,80,45.73V2A77.79,77.79,0,0,1,141,31.4Z"/><path class="cls-2" d="M105.19,59.91A32.1,32.1,0,0,0,80,47.76a2,2,0,0,1-2-2V2a2,2,0,0,1,2-2,79.63,79.63,0,0,1,62.53,30.13,2,2,0,0,1-.32,2.85L108,60.23a2,2,0,0,1-2.85-.32ZM82,4.08V43.76a36,36,0,0,1,25,12.07l31-24.74A75.58,75.58,0,0,0,82,4.08Z"/></g></g></svg>