<svg xmlns="http://www.w3.org/2000/svg" viewBox="0 0 267.87 160.25"><defs><style>.cls-1{fill:#ecf4f9;}.cls-1,.cls-10,.cls-11,.cls-12,.cls-13,.cls-2,.cls-3,.cls-4,.cls-5,.cls-6,.cls-7,.cls-8,.cls-9{stroke:#ccc;stroke-miterlimit:10;stroke-width:0.25px;}.cls-2{fill:#f6fbfd;}.cls-3{fill:#a3bcda;}.cls-4{fill:#8a5caa;}.cls-5{fill:#e4eff5;}.cls-6{fill:#550253;}.cls-7{fill:#c9dbea;}.cls-8{fill:#bdd2e6;}.cls-9{fill:#8952a5;}.cls-10{fill:#9cb3d5;}.cls-11{fill:#8c7ab8;}.cls-12{fill:#ebf4f8;}.cls-13{fill:#4d004b;}</style></defs><title>Asset 21main</title><g id="Layer_2" data-name="Layer 2"><g id="Layer_1-2" data-name="Layer 1"><polygon class="cls-1" points="24.97 72.85 19.45 72.85 16.7 77.7 19.45 82.55 24.97 82.55 27.73 77.7 24.97 72.85"/><polygon class="cls-2" points="33.25 87.4 27.73 87.4 24.97 92.25 27.73 97.09 33.25 97.09 36.01 92.25 33.25 87.4"/><polygon class="cls-2" points="33.25 77.7 27.73 77.7 24.97 82.55 27.73 87.4 33.25 87.4 36.01 82.55 33.25 77.7"/><polygon class="cls-2" points="8.42 82.55 2.9 82.55 0.14 87.4 2.9 92.25 8.42 92.25 11.18 87.4 8.42 82.55"/><polygon class="cls-3" points="49.8 68 44.28 68 41.52 72.85 44.28 77.7 49.8 77.7 52.56 72.85 49.8 68"/><polygon class="cls-3" points="58.08 72.85 52.56 72.85 49.8 77.7 52.56 82.55 58.08 82.55 60.83 77.7 58.08 72.85"/><polygon class="cls-4" points="58.08 63.16 52.56 63.16 49.8 68 52.56 72.85 58.08 72.85 60.83 68 58.08 63.16"/><polygon class="cls-5" points="41.52 72.85 36.01 72.85 33.25 77.7 36.01 82.55 41.52 82.55 44.28 77.7 41.52 72.85"/><polygon class="cls-5" points="41.52 63.16 36.01 63.16 33.25 68 36.01 72.85 41.52 72.85 44.28 68 41.52 63.16"/><polygon class="cls-4" points="58.08 82.55 52.56 82.55 49.8 87.4 52.56 92.25 58.08 92.25 60.83 87.4 58.08 82.55"/><polygon class="cls-4" points="66.35 87.4 60.83 87.4 58.08 92.25 60.83 97.09 66.35 97.09 69.11 92.25 66.35 87.4"/><polygon class="cls-6" points="66.35 77.7 60.83 77.7 58.08 82.55 60.83 87.4 66.35 87.4 69.11 82.55 66.35 77.7"/><polygon class="cls-1" points="41.52 82.55 36.01 82.55 33.25 87.4 36.01 92.25 41.52 92.25 44.28 87.4 41.52 82.55"/><polygon class="cls-2" points="49.8 87.4 44.28 87.4 41.52 92.25 44.28 97.09 49.8 97.09 52.56 92.25 49.8 87.4"/><polygon class="cls-5" points="49.8 77.7 44.28 77.7 41.52 82.55 44.28 87.4 49.8 87.4 52.56 82.55 49.8 77.7"/><polygon class="cls-2" points="41.52 101.94 36.01 101.94 33.25 106.79 36.01 111.64 41.52 111.64 44.28 106.79 41.52 101.94"/><polygon class="cls-2" points="41.52 92.25 36.01 92.25 33.25 97.09 36.01 101.94 41.52 101.94 44.28 97.09 41.52 92.25"/><polygon class="cls-2" points="24.97 101.94 19.45 101.94 16.7 106.79 19.45 111.64 24.97 111.64 27.73 106.79 24.97 101.94"/><polygon class="cls-3" points="41.52 111.64 36.01 111.64 33.25 116.49 36.01 121.34 41.52 121.34 44.28 116.49 41.52 111.64"/><polygon class="cls-2" points="49.8 116.49 44.28 116.49 41.52 121.34 44.28 126.19 49.8 126.19 52.56 121.34 49.8 116.49"/><polygon class="cls-2" points="49.8 106.79 44.28 106.79 41.52 111.64 44.28 116.49 49.8 116.49 52.56 111.64 49.8 106.79"/><polygon class="cls-2" points="24.97 111.64 19.45 111.64 16.7 116.49 19.45 121.34 24.97 121.34 27.73 116.49 24.97 111.64"/><polygon class="cls-1" points="33.25 116.49 27.73 116.49 24.97 121.34 27.73 126.19 33.25 126.19 36.01 121.34 33.25 116.49"/><polygon class="cls-1" points="33.25 106.79 27.73 106.79 24.97 111.64 27.73 116.49 33.25 116.49 36.01 111.64 33.25 106.79"/><polygon class="cls-2" points="24.97 131.03 19.45 131.03 16.7 135.88 19.45 140.73 24.97 140.73 27.73 135.88 24.97 131.03"/><polygon class="cls-2" points="24.97 121.34 19.45 121.34 16.7 126.19 19.45 131.03 24.97 131.03 27.73 126.19 24.97 121.34"/><polygon class="cls-2" points="33.25 135.88 27.73 135.88 24.97 140.73 27.73 145.58 33.25 145.58 36.01 140.73 33.25 135.88"/><polygon class="cls-7" points="8.42 140.73 2.9 140.73 0.14 145.58 2.9 150.43 8.42 150.43 11.18 145.58 8.42 140.73"/><polygon class="cls-2" points="16.7 145.58 11.18 145.58 8.42 150.43 11.18 155.28 16.7 155.28 19.45 150.43 16.7 145.58"/><polygon class="cls-7" points="16.7 135.88 11.18 135.88 8.42 140.73 11.18 145.58 16.7 145.58 19.45 140.73 16.7 135.88"/><polygon class="cls-2" points="33.25 38.91 27.73 38.91 24.97 43.76 27.73 48.61 33.25 48.61 36.01 43.76 33.25 38.91"/><polygon class="cls-8" points="41.52 43.76 36.01 43.76 33.25 48.61 36.01 53.46 41.52 53.46 44.28 48.61 41.52 43.76"/><polygon class="cls-2" points="41.52 53.46 36.01 53.46 33.25 58.31 36.01 63.16 41.52 63.16 44.28 58.31 41.52 53.46"/><polygon class="cls-3" points="49.8 58.31 44.28 58.31 41.52 63.16 44.28 68 49.8 68 52.56 63.16 49.8 58.31"/><polygon class="cls-1" points="49.8 48.61 44.28 48.61 41.52 53.46 44.28 58.31 49.8 58.31 52.56 53.46 49.8 48.61"/><polygon class="cls-1" points="24.97 53.46 19.45 53.46 16.7 58.31 19.45 63.16 24.97 63.16 27.73 58.31 24.97 53.46"/><polygon class="cls-8" points="66.35 38.91 60.83 38.91 58.08 43.76 60.83 48.61 66.35 48.61 69.11 43.76 66.35 38.91"/><polygon class="cls-6" points="74.63 43.76 69.11 43.76 66.35 48.61 69.11 53.46 74.63 53.46 77.39 48.61 74.63 43.76"/><polygon class="cls-1" points="74.63 34.06 69.11 34.06 66.35 38.91 69.11 43.76 74.63 43.76 77.39 38.91 74.63 34.06"/><polygon class="cls-2" points="58.08 43.76 52.56 43.76 49.8 48.61 52.56 53.46 58.08 53.46 60.83 48.61 58.08 43.76"/><polygon class="cls-8" points="58.08 34.06 52.56 34.06 49.8 38.91 52.56 43.76 58.08 43.76 60.83 38.91 58.08 34.06"/><polygon class="cls-4" points="74.63 53.46 69.11 53.46 66.35 58.31 69.11 63.16 74.63 63.16 77.39 58.31 74.63 53.46"/><polygon class="cls-4" points="82.9 58.31 77.39 58.31 74.63 63.16 77.39 68 82.9 68 85.66 63.16 82.9 58.31"/><polygon class="cls-2" points="82.9 48.61 77.39 48.61 74.63 53.46 77.39 58.31 82.9 58.31 85.66 53.46 82.9 48.61"/><polygon class="cls-2" points="58.08 53.46 52.56 53.46 49.8 58.31 52.56 63.16 58.08 63.16 60.83 58.31 58.08 53.46"/><polygon class="cls-6" points="66.35 58.31 60.83 58.31 58.08 63.16 60.83 68 66.35 68 69.11 63.16 66.35 58.31"/><polygon class="cls-6" points="66.35 48.61 60.83 48.61 58.08 53.46 60.83 58.31 66.35 58.31 69.11 53.46 66.35 48.61"/><polygon class="cls-7" points="8.42 150.43 2.9 150.43 0.14 155.28 2.9 160.13 8.42 160.13 11.18 155.28 8.42 150.43"/><polygon class="cls-2" points="41.52 150.43 36.01 150.43 33.25 155.28 36.01 160.13 41.52 160.13 44.28 155.28 41.52 150.43"/><polygon class="cls-2" points="24.97 150.43 19.45 150.43 16.7 155.28 19.45 160.13 24.97 160.13 27.73 155.28 24.97 150.43"/><polygon class="cls-2" points="74.63 150.43 69.11 150.43 66.35 155.28 69.11 160.13 74.63 160.13 77.39 155.28 74.63 150.43"/><polygon class="cls-2" points="58.08 150.43 52.56 150.43 49.8 155.28 52.56 160.13 58.08 160.13 60.83 155.28 58.08 150.43"/><polygon class="cls-3" points="49.8 126.19 44.28 126.19 41.52 131.03 44.28 135.88 49.8 135.88 52.56 131.03 49.8 126.19"/><polygon class="cls-4" points="58.08 131.03 52.56 131.03 49.8 135.88 52.56 140.73 58.08 140.73 60.83 135.88 58.08 131.03"/><polygon class="cls-4" points="58.08 121.34 52.56 121.34 49.8 126.19 52.56 131.03 58.08 131.03 60.83 126.19 58.08 121.34"/><polygon class="cls-1" points="33.25 126.19 27.73 126.19 24.97 131.03 27.73 135.88 33.25 135.88 36.01 131.03 33.25 126.19"/><polygon class="cls-1" points="41.52 131.03 36.01 131.03 33.25 135.88 36.01 140.73 41.52 140.73 44.28 135.88 41.52 131.03"/><polygon class="cls-2" points="41.52 121.34 36.01 121.34 33.25 126.19 36.01 131.03 41.52 131.03 44.28 126.19 41.52 121.34"/><polygon class="cls-2" points="58.08 140.73 52.56 140.73 49.8 145.58 52.56 150.43 58.08 150.43 60.83 145.58 58.08 140.73"/><polygon class="cls-2" points="66.35 135.88 60.83 135.88 58.08 140.73 60.83 145.58 66.35 145.58 69.11 140.73 66.35 135.88"/><polygon class="cls-2" points="41.52 140.73 36.01 140.73 33.25 145.58 36.01 150.43 41.52 150.43 44.28 145.58 41.52 140.73"/><polygon class="cls-7" points="49.8 145.58 44.28 145.58 41.52 150.43 44.28 155.28 49.8 155.28 52.56 150.43 49.8 145.58"/><polygon class="cls-7" points="49.8 135.88 44.28 135.88 41.52 140.73 44.28 145.58 49.8 145.58 52.56 140.73 49.8 135.88"/><polygon class="cls-2" points="82.9 126.19 77.39 126.19 74.63 131.03 77.39 135.88 82.9 135.88 85.66 131.03 82.9 126.19"/><polygon class="cls-2" points="91.18 131.03 85.66 131.03 82.9 135.88 85.66 140.73 91.18 140.73 93.94 135.88 91.18 131.03"/><polygon class="cls-2" points="66.35 126.19 60.83 126.19 58.08 131.03 60.83 135.88 66.35 135.88 69.11 131.03 66.35 126.19"/><polygon class="cls-2" points="74.63 131.03 69.11 131.03 66.35 135.88 69.11 140.73 74.63 140.73 77.39 135.88 74.63 131.03"/><polygon class="cls-2" points="74.63 121.34 69.11 121.34 66.35 126.19 69.11 131.03 74.63 131.03 77.39 126.19 74.63 121.34"/><polygon class="cls-2" points="91.18 140.73 85.66 140.73 82.9 145.58 85.66 150.43 91.18 150.43 93.94 145.58 91.18 140.73"/><polygon class="cls-2" points="99.45 145.58 93.94 145.58 91.18 150.43 93.94 155.28 99.45 155.28 102.21 150.43 99.45 145.58"/><polygon class="cls-2" points="99.45 135.88 93.94 135.88 91.18 140.73 93.94 145.58 99.45 145.58 102.21 140.73 99.45 135.88"/><polygon class="cls-2" points="74.63 140.73 69.11 140.73 66.35 145.58 69.11 150.43 74.63 150.43 77.39 145.58 74.63 140.73"/><polygon class="cls-6" points="66.35 97.09 60.83 97.09 58.08 101.94 60.83 106.79 66.35 106.79 69.11 101.94 66.35 97.09"/><polygon class="cls-6" points="74.63 101.94 69.11 101.94 66.35 106.79 69.11 111.64 74.63 111.64 77.39 106.79 74.63 101.94"/><polygon class="cls-2" points="74.63 92.25 69.11 92.25 66.35 97.09 69.11 101.94 74.63 101.94 77.39 97.09 74.63 92.25"/><polygon class="cls-3" points="49.8 97.09 44.28 97.09 41.52 101.94 44.28 106.79 49.8 106.79 52.56 101.94 49.8 97.09"/><polygon class="cls-2" points="58.08 101.94 52.56 101.94 49.8 106.79 52.56 111.64 58.08 111.64 60.83 106.79 58.08 101.94"/><polygon class="cls-6" points="58.08 92.25 52.56 92.25 49.8 97.09 52.56 101.94 58.08 101.94 60.83 97.09 58.08 92.25"/><polygon class="cls-4" points="74.63 111.64 69.11 111.64 66.35 116.49 69.11 121.34 74.63 121.34 77.39 116.49 74.63 111.64"/><polygon class="cls-2" points="82.9 116.49 77.39 116.49 74.63 121.34 77.39 126.19 82.9 126.19 85.66 121.34 82.9 116.49"/><polygon class="cls-2" points="82.9 106.79 77.39 106.79 74.63 111.64 77.39 116.49 82.9 116.49 85.66 111.64 82.9 106.79"/><polygon class="cls-6" points="58.08 111.64 52.56 111.64 49.8 116.49 52.56 121.34 58.08 121.34 60.83 116.49 58.08 111.64"/><polygon class="cls-4" points="66.35 116.49 60.83 116.49 58.08 121.34 60.83 126.19 66.35 126.19 69.11 121.34 66.35 116.49"/><polygon class="cls-2" points="66.35 106.79 60.83 106.79 58.08 111.64 60.83 116.49 66.35 116.49 69.11 111.64 66.35 106.79"/><polygon class="cls-2" points="99.45 97.09 93.94 97.09 91.18 101.94 93.94 106.79 99.45 106.79 102.21 101.94 99.45 97.09"/><polygon class="cls-2" points="107.73 101.94 102.21 101.94 99.45 106.79 102.21 111.64 107.73 111.64 110.49 106.79 107.73 101.94"/><polygon class="cls-2" points="107.73 92.25 102.21 92.25 99.45 97.09 102.21 101.94 107.73 101.94 110.49 97.09 107.73 92.25"/><polygon class="cls-2" points="82.9 97.09 77.39 97.09 74.63 101.94 77.39 106.79 82.9 106.79 85.66 101.94 82.9 97.09"/><polygon class="cls-7" points="91.18 101.94 85.66 101.94 82.9 106.79 85.66 111.64 91.18 111.64 93.94 106.79 91.18 101.94"/><polygon class="cls-2" points="91.18 92.25 85.66 92.25 82.9 97.09 85.66 101.94 91.18 101.94 93.94 97.09 91.18 92.25"/><polygon class="cls-2" points="107.73 111.64 102.21 111.64 99.45 116.49 102.21 121.34 107.73 121.34 110.49 116.49 107.73 111.64"/><polygon class="cls-2" points="116.01 116.49 110.49 116.49 107.73 121.34 110.49 126.19 116.01 126.19 118.77 121.34 116.01 116.49"/><polygon class="cls-2" points="116.01 106.79 110.49 106.79 107.73 111.64 110.49 116.49 116.01 116.49 118.77 111.64 116.01 106.79"/><polygon class="cls-2" points="91.18 111.64 85.66 111.64 82.9 116.49 85.66 121.34 91.18 121.34 93.94 116.49 91.18 111.64"/><polygon class="cls-2" points="99.45 116.49 93.94 116.49 91.18 121.34 93.94 126.19 99.45 126.19 102.21 121.34 99.45 116.49"/><polygon class="cls-2" points="99.45 106.79 93.94 106.79 91.18 111.64 93.94 116.49 99.45 116.49 102.21 111.64 99.45 106.79"/><polygon class="cls-2" points="82.9 68 77.39 68 74.63 72.85 77.39 77.7 82.9 77.7 85.66 72.85 82.9 68"/><polygon class="cls-2" points="91.18 72.85 85.66 72.85 82.9 77.7 85.66 82.55 91.18 82.55 93.94 77.7 91.18 72.85"/><polygon class="cls-2" points="91.18 63.16 85.66 63.16 82.9 68 85.66 72.85 91.18 72.85 93.94 68 91.18 63.16"/><polygon class="cls-6" points="66.35 68 60.83 68 58.08 72.85 60.83 77.7 66.35 77.7 69.11 72.85 66.35 68"/><polygon class="cls-7" points="74.63 72.85 69.11 72.85 66.35 77.7 69.11 82.55 74.63 82.55 77.39 77.7 74.63 72.85"/><polygon class="cls-4" points="74.63 63.16 69.11 63.16 66.35 68 69.11 72.85 74.63 72.85 77.39 68 74.63 63.16"/><polygon class="cls-2" points="91.18 82.55 85.66 82.55 82.9 87.4 85.66 92.25 91.18 92.25 93.94 87.4 91.18 82.55"/><polygon class="cls-2" points="99.45 87.4 93.94 87.4 91.18 92.25 93.94 97.09 99.45 97.09 102.21 92.25 99.45 87.4"/><polygon class="cls-7" points="99.45 77.7 93.94 77.7 91.18 82.55 93.94 87.4 99.45 87.4 102.21 82.55 99.45 77.7"/><polygon class="cls-6" points="74.63 82.55 69.11 82.55 66.35 87.4 69.11 92.25 74.63 92.25 77.39 87.4 74.63 82.55"/><polygon class="cls-2" points="82.9 87.4 77.39 87.4 74.63 92.25 77.39 97.09 82.9 97.09 85.66 92.25 82.9 87.4"/><polygon class="cls-7" points="82.9 77.7 77.39 77.7 74.63 82.55 77.39 87.4 82.9 87.4 85.66 82.55 82.9 77.7"/><polygon class="cls-9" points="116.01 68 110.49 68 107.73 72.85 110.49 77.7 116.01 77.7 118.77 72.85 116.01 68"/><polygon class="cls-2" points="124.28 72.85 118.77 72.85 116.01 77.7 118.77 82.55 124.28 82.55 127.04 77.7 124.28 72.85"/><polygon class="cls-9" points="124.28 63.16 118.77 63.16 116.01 68 118.77 72.85 124.28 72.85 127.04 68 124.28 63.16"/><polygon class="cls-10" points="99.45 68 93.94 68 91.18 72.85 93.94 77.7 99.45 77.7 102.21 72.85 99.45 68"/><polygon class="cls-10" points="107.73 63.16 102.21 63.16 99.45 68 102.21 72.85 107.73 72.85 110.49 68 107.73 63.16"/><polygon class="cls-2" points="124.28 82.55 118.77 82.55 116.01 87.4 118.77 92.25 124.28 92.25 127.04 87.4 124.28 82.55"/><polygon class="cls-2" points="132.56 87.4 127.04 87.4 124.28 92.25 127.04 97.09 132.56 97.09 135.32 92.25 132.56 87.4"/><polygon class="cls-2" points="132.56 77.7 127.04 77.7 124.28 82.55 127.04 87.4 132.56 87.4 135.32 82.55 132.56 77.7"/><polygon class="cls-2" points="107.73 82.55 102.21 82.55 99.45 87.4 102.21 92.25 107.73 92.25 110.49 87.4 107.73 82.55"/><polygon class="cls-2" points="116.01 87.4 110.49 87.4 107.73 92.25 110.49 97.09 116.01 97.09 118.77 92.25 116.01 87.4"/><polygon class="cls-9" points="116.01 77.7 110.49 77.7 107.73 82.55 110.49 87.4 116.01 87.4 118.77 82.55 116.01 77.7"/><polygon class="cls-2" points="99.45 38.91 93.94 38.91 91.18 43.76 93.94 48.61 99.45 48.61 102.21 43.76 99.45 38.91"/><polygon class="cls-10" points="107.73 43.76 102.21 43.76 99.45 48.61 102.21 53.46 107.73 53.46 110.49 48.61 107.73 43.76"/><polygon class="cls-11" points="107.73 34.06 102.21 34.06 99.45 38.91 102.21 43.76 107.73 43.76 110.49 38.91 107.73 34.06"/><polygon class="cls-2" points="82.9 38.91 77.39 38.91 74.63 43.76 77.39 48.61 82.9 48.61 85.66 43.76 82.9 38.91"/><polygon class="cls-2" points="91.18 43.76 85.66 43.76 82.9 48.61 85.66 53.46 91.18 53.46 93.94 48.61 91.18 43.76"/><polygon class="cls-2" points="91.18 34.06 85.66 34.06 82.9 38.91 85.66 43.76 91.18 43.76 93.94 38.91 91.18 34.06"/><polygon class="cls-9" points="107.73 53.46 102.21 53.46 99.45 58.31 102.21 63.16 107.73 63.16 110.49 58.31 107.73 53.46"/><polygon class="cls-10" points="116.01 58.31 110.49 58.31 107.73 63.16 110.49 68 116.01 68 118.77 63.16 116.01 58.31"/><polygon class="cls-10" points="116.01 48.61 110.49 48.61 107.73 53.46 110.49 58.31 116.01 58.31 118.77 53.46 116.01 48.61"/><polygon class="cls-2" points="91.18 53.46 85.66 53.46 82.9 58.31 85.66 63.16 91.18 63.16 93.94 58.31 91.18 53.46"/><polygon class="cls-10" points="99.45 58.31 93.94 58.31 91.18 63.16 93.94 68 99.45 68 102.21 63.16 99.45 58.31"/><polygon class="cls-7" points="99.45 48.61 93.94 48.61 91.18 53.46 93.94 58.31 99.45 58.31 102.21 53.46 99.45 48.61"/><polygon class="cls-12" points="132.56 38.91 127.04 38.91 124.28 43.76 127.04 48.61 132.56 48.61 135.32 43.76 132.56 38.91"/><polygon class="cls-12" points="140.83 43.76 135.32 43.76 132.56 48.61 135.32 53.46 140.83 53.46 143.59 48.61 140.83 43.76"/><polygon class="cls-13" points="116.01 38.91 110.49 38.91 107.73 43.76 110.49 48.61 116.01 48.61 118.77 43.76 116.01 38.91"/><polygon class="cls-10" points="124.28 43.76 118.77 43.76 116.01 48.61 118.77 53.46 124.28 53.46 127.04 48.61 124.28 43.76"/><polygon class="cls-10" points="124.28 34.06 118.77 34.06 116.01 38.91 118.77 43.76 124.28 43.76 127.04 38.91 124.28 34.06"/><polygon class="cls-2" points="149.11 58.31 143.59 58.31 140.83 63.16 143.59 68 149.11 68 151.87 63.16 149.11 58.31"/><polygon class="cls-2" points="149.11 48.61 143.59 48.61 140.83 53.46 143.59 58.31 149.11 58.31 151.87 53.46 149.11 48.61"/><polygon class="cls-9" points="124.28 53.46 118.77 53.46 116.01 58.31 118.77 63.16 124.28 63.16 127.04 58.31 124.28 53.46"/><polygon class="cls-2" points="132.56 58.31 127.04 58.31 124.28 63.16 127.04 68 132.56 68 135.32 63.16 132.56 58.31"/><polygon class="cls-2" points="132.56 48.61 127.04 48.61 124.28 53.46 127.04 58.31 132.56 58.31 135.32 53.46 132.56 48.61"/><polygon class="cls-8" points="66.35 29.22 60.83 29.22 58.08 34.06 60.83 38.91 66.35 38.91 69.11 34.06 66.35 29.22"/><polygon class="cls-2" points="49.8 29.22 44.28 29.22 41.52 34.06 44.28 38.91 49.8 38.91 52.56 34.06 49.8 29.22"/><polygon class="cls-2" points="49.8 9.82 44.28 9.82 41.52 14.67 44.28 19.52 49.8 19.52 52.56 14.67 49.8 9.82"/><polygon class="cls-8" points="49.8 19.52 44.28 19.52 41.52 24.37 44.28 29.22 49.8 29.22 52.56 24.37 49.8 19.52"/><polygon class="cls-1" points="58.08 24.37 52.56 24.37 49.8 29.22 52.56 34.06 58.08 34.06 60.83 29.22 58.08 24.37"/><polygon class="cls-2" points="82.9 0.13 77.39 0.13 74.63 4.97 77.39 9.82 82.9 9.82 85.66 4.97 82.9 0.13"/><polygon class="cls-2" points="66.35 9.82 60.83 9.82 58.08 14.67 60.83 19.52 66.35 19.52 69.11 14.67 66.35 9.82"/><polygon class="cls-2" points="66.35 0.13 60.83 0.13 58.08 4.97 60.83 9.82 66.35 9.82 69.11 4.97 66.35 0.13"/><polygon class="cls-2" points="82.9 19.52 77.39 19.52 74.63 24.37 77.39 29.22 82.9 29.22 85.66 24.37 82.9 19.52"/><polygon class="cls-2" points="91.18 24.37 85.66 24.37 82.9 29.22 85.66 34.06 91.18 34.06 93.94 29.22 91.18 24.37"/><polygon class="cls-10" points="91.18 14.67 85.66 14.67 82.9 19.52 85.66 24.37 91.18 24.37 93.94 19.52 91.18 14.67"/><polygon class="cls-8" points="66.35 19.52 60.83 19.52 58.08 24.37 60.83 29.22 66.35 29.22 69.11 24.37 66.35 19.52"/><polygon class="cls-1" points="74.63 24.37 69.11 24.37 66.35 29.22 69.11 34.06 74.63 34.06 77.39 29.22 74.63 24.37"/><polygon class="cls-2" points="74.63 14.67 69.11 14.67 66.35 19.52 69.11 24.37 74.63 24.37 77.39 19.52 74.63 14.67"/><polygon class="cls-11" points="99.45 29.22 93.94 29.22 91.18 34.06 93.94 38.91 99.45 38.91 102.21 34.06 99.45 29.22"/><polygon class="cls-2" points="82.9 29.22 77.39 29.22 74.63 34.06 77.39 38.91 82.9 38.91 85.66 34.06 82.9 29.22"/><polygon class="cls-12" points="132.56 29.22 127.04 29.22 124.28 34.06 127.04 38.91 132.56 38.91 135.32 34.06 132.56 29.22"/><polygon class="cls-13" points="116.01 29.22 110.49 29.22 107.73 34.06 110.49 38.91 116.01 38.91 118.77 34.06 116.01 29.22"/><polygon class="cls-2" points="107.73 4.97 102.21 4.97 99.45 9.82 102.21 14.67 107.73 14.67 110.49 9.82 107.73 4.97"/><polygon class="cls-2" points="116.01 9.82 110.49 9.82 107.73 14.67 110.49 19.52 116.01 19.52 118.77 14.67 116.01 9.82"/><polygon class="cls-2" points="116.01 0.13 110.49 0.13 107.73 4.97 110.49 9.82 116.01 9.82 118.77 4.97 116.01 0.13"/><polygon class="cls-2" points="91.18 4.97 85.66 4.97 82.9 9.82 85.66 14.67 91.18 14.67 93.94 9.82 91.18 4.97"/><polygon class="cls-10" points="99.45 9.82 93.94 9.82 91.18 14.67 93.94 19.52 99.45 19.52 102.21 14.67 99.45 9.82"/><polygon class="cls-10" points="116.01 19.52 110.49 19.52 107.73 24.37 110.49 29.22 116.01 29.22 118.77 24.37 116.01 19.52"/><polygon class="cls-11" points="124.28 24.37 118.77 24.37 116.01 29.22 118.77 34.06 124.28 34.06 127.04 29.22 124.28 24.37"/><polygon class="cls-13" points="124.28 14.67 118.77 14.67 116.01 19.52 118.77 24.37 124.28 24.37 127.04 19.52 124.28 14.67"/><polygon class="cls-2" points="99.45 19.52 93.94 19.52 91.18 24.37 93.94 29.22 99.45 29.22 102.21 24.37 99.45 19.52"/><polygon class="cls-2" points="107.73 24.37 102.21 24.37 99.45 29.22 102.21 34.06 107.73 34.06 110.49 29.22 107.73 24.37"/><polygon class="cls-2" points="107.73 14.67 102.21 14.67 99.45 19.52 102.21 24.37 107.73 24.37 110.49 19.52 107.73 14.67"/><polygon class="cls-2" points="140.83 4.97 135.32 4.97 132.56 9.82 135.32 14.67 140.83 14.67 143.59 9.82 140.83 4.97"/><polygon class="cls-2" points="149.11 9.82 143.59 9.82 140.83 14.67 143.59 19.52 149.11 19.52 151.87 14.67 149.11 9.82"/><polygon class="cls-2" points="149.11 0.13 143.59 0.13 140.83 4.97 143.59 9.82 149.11 9.82 151.87 4.97 149.11 0.13"/><polygon class="cls-12" points="132.56 9.82 127.04 9.82 124.28 14.67 127.04 19.52 132.56 19.52 135.32 14.67 132.56 9.82"/><polygon class="cls-2" points="132.56 0.13 127.04 0.13 124.28 4.97 127.04 9.82 132.56 9.82 135.32 4.97 132.56 0.13"/><polygon class="cls-2" points="149.11 19.52 143.59 19.52 140.83 24.37 143.59 29.22 149.11 29.22 151.87 24.37 149.11 19.52"/><polygon class="cls-2" points="157.38 24.37 151.87 24.37 149.11 29.22 151.87 34.06 157.38 34.06 160.14 29.22 157.38 24.37"/><polygon class="cls-2" points="157.38 14.67 151.87 14.67 149.11 19.52 151.87 24.37 157.38 24.37 160.14 19.52 157.38 14.67"/><polygon class="cls-12" points="140.83 24.37 135.32 24.37 132.56 29.22 135.32 34.06 140.83 34.06 143.59 29.22 140.83 24.37"/><polygon class="cls-2" points="173.94 82.55 168.42 82.55 165.66 87.4 168.42 92.25 173.94 92.25 176.7 87.4 173.94 82.55"/><polygon class="cls-2" points="182.21 87.4 176.7 87.4 173.94 92.25 176.7 97.09 182.21 97.09 184.97 92.25 182.21 87.4"/><polygon class="cls-2" points="182.21 77.7 176.7 77.7 173.94 82.55 176.7 87.4 182.21 87.4 184.97 82.55 182.21 77.7"/><polygon class="cls-7" points="165.66 87.4 160.14 87.4 157.38 92.25 160.14 97.09 165.66 97.09 168.42 92.25 165.66 87.4"/><polygon class="cls-2" points="165.66 77.7 160.14 77.7 157.38 82.55 160.14 87.4 165.66 87.4 168.42 82.55 165.66 77.7"/><polygon class="cls-2" points="190.49 92.25 184.97 92.25 182.21 97.09 184.97 101.94 190.49 101.94 193.25 97.09 190.49 92.25"/><polygon class="cls-2" points="173.94 92.25 168.42 92.25 165.66 97.09 168.42 101.94 173.94 101.94 176.7 97.09 173.94 92.25"/><polygon class="cls-2" points="165.66 58.31 160.14 58.31 157.38 63.16 160.14 68 165.66 68 168.42 63.16 165.66 58.31"/><polygon class="cls-2" points="165.66 48.61 160.14 48.61 157.38 53.46 160.14 58.31 165.66 58.31 168.42 53.46 165.66 48.61"/><polygon class="cls-2" points="165.66 68 160.14 68 157.38 72.85 160.14 77.7 165.66 77.7 168.42 72.85 165.66 68"/><polygon class="cls-2" points="173.94 72.85 168.42 72.85 165.66 77.7 168.42 82.55 173.94 82.55 176.7 77.7 173.94 72.85"/><polygon class="cls-7" points="173.94 63.16 168.42 63.16 165.66 68 168.42 72.85 173.94 72.85 176.7 68 173.94 63.16"/><polygon class="cls-9" points="190.49 53.46 184.97 53.46 182.21 58.31 184.97 63.16 190.49 63.16 193.25 58.31 190.49 53.46"/><polygon class="cls-2" points="198.76 58.31 193.25 58.31 190.49 63.16 193.25 68 198.76 68 201.52 63.16 198.76 58.31"/><polygon class="cls-9" points="198.76 48.61 193.25 48.61 190.49 53.46 193.25 58.31 198.76 58.31 201.52 53.46 198.76 48.61"/><polygon class="cls-10" points="173.94 53.46 168.42 53.46 165.66 58.31 168.42 63.16 173.94 63.16 176.7 58.31 173.94 53.46"/><polygon class="cls-12" points="178.03 57.75 174.13 61.71 175.55 67.11 180.88 68.56 184.78 64.6 183.35 59.2 178.03 57.75"/><polygon class="cls-10" points="182.21 48.61 176.7 48.61 173.94 53.46 176.7 58.31 182.21 58.31 184.97 53.46 182.21 48.61"/><polygon class="cls-2" points="198.76 68 193.25 68 190.49 72.85 193.25 77.7 198.76 77.7 201.52 72.85 198.76 68"/><polygon class="cls-2" points="207.04 72.85 201.52 72.85 198.76 77.7 201.52 82.55 207.04 82.55 209.8 77.7 207.04 72.85"/><polygon class="cls-2" points="182.21 68 176.7 68 173.94 72.85 176.7 77.7 182.21 77.7 184.97 72.85 182.21 68"/><polygon class="cls-2" points="190.49 72.85 184.97 72.85 182.21 77.7 184.97 82.55 190.49 82.55 193.25 77.7 190.49 72.85"/><polygon class="cls-9" points="190.49 63.16 184.97 63.16 182.21 68 184.97 72.85 190.49 72.85 193.25 68 190.49 63.16"/><polygon class="cls-2" points="173.94 24.37 168.42 24.37 165.66 29.22 168.42 34.06 173.94 34.06 176.7 29.22 173.94 24.37"/><polygon class="cls-10" points="182.21 29.22 176.7 29.22 173.94 34.06 176.7 38.91 182.21 38.91 184.97 34.06 182.21 29.22"/><polygon class="cls-11" points="182.21 19.52 176.7 19.52 173.94 24.37 176.7 29.22 182.21 29.22 184.97 24.37 182.21 19.52"/><polygon class="cls-2" points="165.66 29.22 160.14 29.22 157.38 34.06 160.14 38.91 165.66 38.91 168.42 34.06 165.66 29.22"/><polygon class="cls-2" points="165.66 19.52 160.14 19.52 157.38 24.37 160.14 29.22 165.66 29.22 168.42 24.37 165.66 19.52"/><polygon class="cls-9" points="182.21 38.91 176.7 38.91 173.94 43.76 176.7 48.61 182.21 48.61 184.97 43.76 182.21 38.91"/><polygon class="cls-10" points="190.49 43.76 184.97 43.76 182.21 48.61 184.97 53.46 190.49 53.46 193.25 48.61 190.49 43.76"/><polygon class="cls-10" points="190.49 34.06 184.97 34.06 182.21 38.91 184.97 43.76 190.49 43.76 193.25 38.91 190.49 34.06"/><polygon class="cls-2" points="165.66 38.91 160.14 38.91 157.38 43.76 160.14 48.61 165.66 48.61 168.42 43.76 165.66 38.91"/><polygon class="cls-10" points="173.94 43.76 168.42 43.76 165.66 48.61 168.42 53.46 173.94 53.46 176.7 48.61 173.94 43.76"/><polygon class="cls-7" points="173.94 34.06 168.42 34.06 165.66 38.91 168.42 43.76 173.94 43.76 176.7 38.91 173.94 34.06"/><polygon class="cls-12" points="207.04 24.37 201.52 24.37 198.76 29.22 201.52 34.06 207.04 34.06 209.8 29.22 207.04 24.37"/><polygon class="cls-12" points="215.32 29.22 209.8 29.22 207.04 34.06 209.8 38.91 215.32 38.91 218.07 34.06 215.32 29.22"/><polygon class="cls-13" points="190.49 24.37 184.97 24.37 182.21 29.22 184.97 34.06 190.49 34.06 193.25 29.22 190.49 24.37"/><polygon class="cls-10" points="198.76 29.22 193.25 29.22 190.49 34.06 193.25 38.91 198.76 38.91 201.52 34.06 198.76 29.22"/><polygon class="cls-10" points="198.76 19.52 193.25 19.52 190.49 24.37 193.25 29.22 198.76 29.22 201.52 24.37 198.76 19.52"/><polygon class="cls-2" points="223.59 43.76 218.07 43.76 215.32 48.61 218.07 53.46 223.59 53.46 226.35 48.61 223.59 43.76"/><polygon class="cls-2" points="223.59 34.06 218.07 34.06 215.32 38.91 218.07 43.76 223.59 43.76 226.35 38.91 223.59 34.06"/><polygon class="cls-9" points="198.76 38.91 193.25 38.91 190.49 43.76 193.25 48.61 198.76 48.61 201.52 43.76 198.76 38.91"/><polygon class="cls-2" points="207.04 43.76 201.52 43.76 198.76 48.61 201.52 53.46 207.04 53.46 209.8 48.61 207.04 43.76"/><polygon class="cls-2" points="207.04 34.06 201.52 34.06 198.76 38.91 201.52 43.76 207.04 43.76 209.8 38.91 207.04 34.06"/><polygon class="cls-2" points="165.66 9.82 160.14 9.82 157.38 14.67 160.14 19.52 165.66 19.52 168.42 14.67 165.66 9.82"/><polygon class="cls-10" points="165.66 0.13 160.14 0.13 157.38 4.97 160.14 9.82 165.66 9.82 168.42 4.97 165.66 0.13"/><polygon class="cls-11" points="173.94 14.67 168.42 14.67 165.66 19.52 168.42 24.37 173.94 24.37 176.7 19.52 173.94 14.67"/><polygon class="cls-12" points="207.04 14.67 201.52 14.67 198.76 19.52 201.52 24.37 207.04 24.37 209.8 19.52 207.04 14.67"/><polygon class="cls-13" points="190.49 14.67 184.97 14.67 182.21 19.52 184.97 24.37 190.49 24.37 193.25 19.52 190.49 14.67"/><polygon class="cls-10" points="190.49 4.97 184.97 4.97 182.21 9.82 184.97 14.67 190.49 14.67 193.25 9.82 190.49 4.97"/><polygon class="cls-11" points="198.76 9.82 193.25 9.82 190.49 14.67 193.25 19.52 198.76 19.52 201.52 14.67 198.76 9.82"/><polygon class="cls-13" points="198.76 0.13 193.25 0.13 190.49 4.97 193.25 9.82 198.76 9.82 201.52 4.97 198.76 0.13"/><polygon class="cls-2" points="173.94 4.97 168.42 4.97 165.66 9.82 168.42 14.67 173.94 14.67 176.7 9.82 173.94 4.97"/><polygon class="cls-2" points="182.21 9.82 176.7 9.82 173.94 14.67 176.7 19.52 182.21 19.52 184.97 14.67 182.21 9.82"/><polygon class="cls-2" points="182.21 0.13 176.7 0.13 173.94 4.97 176.7 9.82 182.21 9.82 184.97 4.97 182.21 0.13"/><polygon class="cls-2" points="223.59 4.97 218.07 4.97 215.32 9.82 218.07 14.67 223.59 14.67 226.35 9.82 223.59 4.97"/><polygon class="cls-2" points="231.87 9.82 226.35 9.82 223.59 14.67 226.35 19.52 231.87 19.52 234.63 14.67 231.87 9.82"/><polygon class="cls-2" points="231.87 0.13 226.35 0.13 223.59 4.97 226.35 9.82 231.87 9.82 234.63 4.97 231.87 0.13"/><polygon class="cls-12" points="215.32 9.82 209.8 9.82 207.04 14.67 209.8 19.52 215.32 19.52 218.07 14.67 215.32 9.82"/><polygon class="cls-3" points="215.32 38.91 209.8 38.91 207.04 43.76 209.8 48.61 215.32 48.61 218.07 43.76 215.32 38.91"/><polygon class="cls-4" points="215.32 48.61 209.8 48.61 207.04 53.46 209.8 58.31 215.32 58.31 218.07 53.46 215.32 48.61"/><polygon class="cls-4" points="223.59 53.46 218.07 53.46 215.32 58.31 218.07 63.16 223.59 63.16 226.35 58.31 223.59 53.46"/><polygon class="cls-4" points="215.32 87.4 209.8 87.4 207.04 92.25 209.8 97.09 215.32 97.09 218.07 92.25 215.32 87.4"/><polygon class="cls-6" points="223.59 63.16 218.07 63.16 215.32 68 218.07 72.85 223.59 72.85 226.35 68 223.59 63.16"/><polygon class="cls-6" points="231.87 68 226.35 68 223.59 72.85 226.35 77.7 231.87 77.7 234.63 72.85 231.87 68"/><polygon class="cls-2" points="215.32 68 209.8 68 207.04 72.85 209.8 77.7 215.32 77.7 218.07 72.85 215.32 68"/><polygon class="cls-6" points="215.32 58.31 209.8 58.31 207.04 63.16 209.8 68 215.32 68 218.07 63.16 215.32 58.31"/><polygon class="cls-4" points="231.87 77.7 226.35 77.7 223.59 82.55 226.35 87.4 231.87 87.4 234.63 82.55 231.87 77.7"/><polygon class="cls-6" points="215.32 77.7 209.8 77.7 207.04 82.55 209.8 87.4 215.32 87.4 218.07 82.55 215.32 77.7"/><polygon class="cls-4" points="223.59 82.55 218.07 82.55 215.32 87.4 218.07 92.25 223.59 92.25 226.35 87.4 223.59 82.55"/><polygon class="cls-2" points="223.59 72.85 218.07 72.85 215.32 77.7 218.07 82.55 223.59 82.55 226.35 77.7 223.59 72.85"/><polygon class="cls-9" points="231.87 58.31 226.35 58.31 223.59 63.16 226.35 68 231.87 68 234.63 63.16 231.87 58.31"/><polygon class="cls-2" points="240.14 63.16 234.63 63.16 231.87 68 234.63 72.85 240.14 72.85 242.9 68 240.14 63.16"/><polygon class="cls-9" points="240.14 53.46 234.63 53.46 231.87 58.31 234.63 63.16 240.14 63.16 242.9 58.31 240.14 53.46"/><line class="cls-2" x1="242.9" y1="68" x2="240.14" y2="72.85"/><polygon class="cls-10" points="231.87 48.61 226.35 48.61 223.59 53.46 226.35 58.31 231.87 58.31 234.63 53.46 231.87 48.61"/><polygon class="cls-10" points="231.87 38.91 226.35 38.91 223.59 43.76 226.35 48.61 231.87 48.61 234.63 43.76 231.87 38.91"/><polygon class="cls-10" points="240.14 34.06 234.63 34.06 231.87 38.91 234.63 43.76 240.14 43.76 242.9 38.91 240.14 34.06"/><polygon class="cls-10" points="240.14 24.37 234.63 24.37 231.87 29.22 234.63 34.06 240.14 34.06 242.9 29.22 240.14 24.37"/><polygon class="cls-9" points="240.14 43.76 234.63 43.76 231.87 48.61 234.63 53.46 240.14 53.46 242.9 48.61 240.14 43.76"/><polygon class="cls-2" points="248.42 48.61 242.9 48.61 240.14 53.46 242.9 58.31 248.42 58.31 251.18 53.46 248.42 48.61"/><polygon class="cls-2" points="248.42 38.91 242.9 38.91 240.14 43.76 242.9 48.61 248.42 48.61 251.18 43.76 248.42 38.91"/><polygon class="cls-11" points="240.14 14.67 234.63 14.67 231.87 19.52 234.63 24.37 240.14 24.37 242.9 19.52 240.14 14.67"/><polygon class="cls-2" points="231.87 97.09 226.35 97.09 223.59 101.94 226.35 106.79 231.87 106.79 234.63 101.94 231.87 97.09"/><polygon class="cls-2" points="240.14 101.94 234.63 101.94 231.87 106.79 234.63 111.64 240.14 111.64 242.9 106.79 240.14 101.94"/><polygon class="cls-2" points="240.14 92.25 234.63 92.25 231.87 97.09 234.63 101.94 240.14 101.94 242.9 97.09 240.14 92.25"/><polygon class="cls-7" points="223.59 101.94 218.07 101.94 215.32 106.79 218.07 111.64 223.59 111.64 226.35 106.79 223.59 101.94"/><polygon class="cls-2" points="223.59 92.25 218.07 92.25 215.32 97.09 218.07 101.94 223.59 101.94 226.35 97.09 223.59 92.25"/><polygon class="cls-2" points="248.42 106.79 242.9 106.79 240.14 111.64 242.9 116.49 248.42 116.49 251.18 111.64 248.42 106.79"/><polygon class="cls-2" points="231.87 106.79 226.35 106.79 223.59 111.64 226.35 116.49 231.87 116.49 234.63 111.64 231.87 106.79"/><polygon class="cls-2" points="231.87 87.4 226.35 87.4 223.59 92.25 226.35 97.09 231.87 97.09 234.63 92.25 231.87 87.4"/><polygon class="cls-2" points="240.14 82.55 234.63 82.55 231.87 87.4 234.63 92.25 240.14 92.25 242.9 87.4 240.14 82.55"/><polygon class="cls-7" points="107.73 72.85 102.21 72.85 99.45 77.7 102.21 82.55 107.73 82.55 110.49 77.7 107.73 72.85"/><polygon class="cls-2" points="207.04 63.16 201.52 63.16 198.76 68 201.52 72.85 207.04 72.85 209.8 68 207.04 63.16"/><polygon class="cls-2" points="240.14 72.85 234.63 72.85 231.87 77.7 234.63 82.55 240.14 82.55 242.9 77.7 240.14 72.85"/><polygon class="cls-2" points="223.59 24.37 218.07 24.37 215.32 29.22 218.07 34.06 223.59 34.06 226.35 29.22 223.59 24.37"/><polygon class="cls-2" points="248.42 9.82 242.9 9.82 240.14 14.67 242.9 19.52 248.42 19.52 251.18 14.67 248.42 9.82"/><polygon class="cls-2" points="248.42 0.13 242.9 0.13 240.14 4.97 242.9 9.82 248.42 9.82 251.18 4.97 248.42 0.13"/><polygon class="cls-2" points="256.7 14.67 251.18 14.67 248.42 19.52 251.18 24.37 256.7 24.37 259.45 19.52 256.7 14.67"/><polygon class="cls-2" points="256.7 4.97 251.18 4.97 248.42 9.82 251.18 14.67 256.7 14.67 259.45 9.82 256.7 4.97"/><polygon class="cls-2" points="264.97 9.82 259.45 9.82 256.7 14.67 259.45 19.52 264.97 19.52 267.73 14.67 264.97 9.82"/><polygon class="cls-2" points="264.97 0.13 259.45 0.13 256.7 4.97 259.45 9.82 264.97 9.82 267.73 4.97 264.97 0.13"/><polygon class="cls-10" points="248.64 19.52 243.13 19.52 240.37 24.37 243.13 29.22 248.64 29.22 251.4 24.37 248.64 19.52"/></g></g></svg>