<svg xmlns="http://www.w3.org/2000/svg" viewBox="0 0 160 160"><defs><style>.cls-1{fill:#74d7ca;}.cls-2{fill:#51b7c4;}.cls-3{fill:#fff;}</style></defs><title>Asset 25main</title><g id="Layer_2" data-name="Layer 2"><g id="Layer_1-2" data-name="Layer 1"><circle class="cls-1" cx="80" cy="80" r="80"/><circle class="cls-2" cx="47.63" cy="77.26" r="40.88"/><circle class="cls-2" cx="82.48" cy="24.07" r="19.71"/><circle class="cls-2" cx="122.57" cy="80.92" r="30.79"/><circle class="cls-2" cx="91.77" cy="127.88" r="22.06"/><circle class="cls-2" cx="54" cy="133.2" r="13.16"/><circle class="cls-2" cx="118.35" cy="31.69" r="14.77"/><circle class="cls-2" cx="50.9" cy="24.59" r="10.06"/><circle class="cls-2" cx="126.41" cy="124.4" r="10.68"/><circle class="cls-2" cx="91.84" cy="52.19" r="7.84"/><circle class="cls-3" cx="29.78" cy="52.19" r="7.84"/><circle class="cls-3" cx="27.03" cy="75.92" r="14.33"/><circle class="cls-3" cx="61.97" cy="65.17" r="19.47"/><circle class="cls-3" cx="49.93" cy="100.88" r="15.81"/><circle class="cls-3" cx="110.01" cy="75.92" r="14.33"/><circle class="cls-3" cx="86.97" cy="121.23" r="9.52"/><circle class="cls-3" cx="135.93" cy="71.11" r="9.52"/><circle class="cls-3" cx="130.86" cy="94.17" r="9.52"/><circle class="cls-3" cx="72.87" cy="22.2" r="7.13"/><circle class="cls-3" cx="74.28" cy="91.78" r="7.13"/><circle class="cls-3" cx="112.73" cy="98.94" r="7.13"/><circle class="cls-3" cx="50.68" cy="130.75" r="7.13"/><circle class="cls-3" cx="143.44" cy="84.65" r="4.47"/><circle class="cls-3" cx="74.28" cy="34.65" r="4.47"/><circle class="cls-3" cx="76.95" cy="133.2" r="4.47"/><circle class="cls-3" cx="74.28" cy="34.65" r="4.47"/><circle class="cls-3" cx="109" cy="33.07" r="4.47"/><circle class="cls-3" cx="25.31" cy="98.94" r="4.47"/><circle class="cls-3" cx="124.34" cy="60.03" r="3.34"/><circle class="cls-3" cx="82.48" cy="80.18" r="3.34"/><circle class="cls-3" cx="88.51" cy="52.19" r="3.34"/><circle class="cls-3" cx="46.49" cy="26.19" r="3.99"/><circle class="cls-3" cx="122.57" cy="123.62" r="3.99"/><circle class="cls-3" cx="98.2" cy="111.71" r="3.99"/><circle class="cls-3" cx="104.76" cy="123.87" r="6.63"/><circle class="cls-3" cx="119.86" cy="25.58" r="6.63"/><circle class="cls-3" cx="84" cy="12.39" r="6.63"/><circle class="cls-3" cx="89.45" cy="140.76" r="7.56"/><circle class="cls-3" cx="119.2" cy="38.98" r="5.38"/><circle class="cls-3" cx="88.51" cy="28.63" r="7.56"/><circle class="cls-3" cx="130.86" cy="120.46" r="3.78"/><circle class="cls-3" cx="102.19" cy="135.81" r="3.78"/><circle class="cls-3" cx="130.19" cy="128.73" r="3.78"/><circle class="cls-3" cx="42.5" cy="46.46" r="3.78"/><circle class="cls-3" cx="51.41" cy="19.02" r="3.78"/><circle class="cls-3" cx="55.19" cy="27.13" r="3.78"/><circle class="cls-3" cx="94.21" cy="55.05" r="2.57"/><circle class="cls-3" cx="94.35" cy="49.43" r="2.57"/><circle class="cls-3" cx="127.68" cy="33.61" r="2.57"/><circle class="cls-3" cx="60.87" cy="127.61" r="2.57"/><circle class="cls-3" cx="61.44" cy="135.08" r="3.63"/><circle class="cls-3" cx="54.66" cy="141.52" r="3.63"/></g></g></svg>