<svg xmlns="http://www.w3.org/2000/svg" viewBox="0 0 276.16 161"><defs><style>.cls-1{fill:#036160;}.cls-1,.cls-2,.cls-3,.cls-4,.cls-5,.cls-6{stroke:#000;stroke-miterlimit:10;opacity:0.6;}.cls-2{fill:#00a1be;}.cls-3{fill:#3eb8c3;}.cls-4{fill:#efe9de;}.cls-5{fill:#a7d937;}.cls-6{fill:#89b600;}</style></defs><title>Asset 22main</title><g id="Layer_2" data-name="Layer 2"><g id="Layer_1-2" data-name="Layer 1"><path class="cls-1" d="M2.94,31.53H272.71c-65.53-8.49-86-29.84-107.95-31-6.63-.36-28.48,14.54-41.47,12.92C108.05,11.54,16.9,31,2.94,31.53"/><path class="cls-2" d="M272.79,56.74c-20.44-3.45-89.63-11-112.53-14-19.89-2.57-26.53-20.34-41.07-18.66C76.52,29,57.36,51.53,3.16,56.74"/><path class="cls-3" d="M272.79,82c-39-12-70.86-16.72-87.4-13.53-18.9,3.66-52.76,5.08-56.33,3.45-26.13-2.58-36.1-25.29-51.52-25-22.68.44-38.13,19.42-45.07,22.24C27.11,71.29,3.41,79.07,2.94,82"/><path class="cls-4" d="M2.94,107.16H272.79c-3.79-1.15-9.54-2.94-16.41-5.29-17.52-6-21.22-8.43-27.95-7.93-8.53.63-8.53,5-17.68,6.2-9.72,1.31-34.81-4.25-47.07-7.41-8.88-2.29-35.28-13-55.22-14-19.15-1-34.17,16.79-61.15,19.53C30.38,100,32.27,96.88,2.94,107.16Z"/><path class="cls-5" d="M2.94,132.37H272.79C154,118.76,173.3,98.3,129.6,98.3,108,98.3,11.26,132.37,2.94,132.37"/><path class="cls-6" d="M3.09,160.5H272.94c-39.4.14-26.37-5.35-46.51-9.66-26.32-5.63-40.35-27.33-60.47-25.68-20.33,1.67-66.42,26-94.41,29.48-14.93,1.86-58.77,4.82-68.46,5.86"/></g></g></svg>