<svg xmlns="http://www.w3.org/2000/svg" viewBox="0 0 270 160"><defs><style>.cls-1{fill:#a9eefe;}.cls-2{fill:#78dbfe;}.cls-3{fill:#fec39c;}.cls-4{fill:#fda76b;}.cls-5{fill:#fea76b;}.cls-6{fill:#a8eefe;}.cls-7{fill:#fbc49e;}.cls-8{fill:#fba76d;}.cls-9{fill:#df6500;}.cls-10{fill:#0e95dd;}.cls-11{fill:#1197dd;}.cls-12{fill:#0b93dc;}.cls-13{fill:#df6602;}</style></defs><title>Asset 23main</title><g id="Layer_2" data-name="Layer 2"><g id="Layer_1-2" data-name="Layer 1"><path class="cls-1" d="M240.53,49.56a93.29,93.29,0,0,0-19.89,1.56C203.38,54,188,59.73,174.77,69.31c-6.8,4.87-43.29,42-52.61,55-19.8,19.57-43.8,32.65-75.52,34.8-5.82.4-11.36.87-17.38.88,0-10.76,0-22,0-32.72,15.72-.29,31.21-1.43,46.17-5.73a111.74,111.74,0,0,0,36.19-17.71c7.83-5.79,41.29-43.23,67.27-55.8,18.84-9.11,40-12.9,61.64-13.28C240.59,39.85,240.45,43.7,240.53,49.56Z"/><path class="cls-2" d="M79.28,97.14a213.47,213.47,0,0,1-50,5.68c.09-10.74-.1-22.5,0-33.24,7.43,0,13,0,18.83,0,13.22-.06,25.83-2.39,38.35-5.23C105.12,60.1,121.18,51.76,136.31,42c15.83-10.2,32.37-19.38,52-24.24,16.89-4.18,34.24-5.39,51.71-6.06q0,6.85,0,13.73c-15,.53-29.78,2.07-44,5.84-16.63,4.4-54.51,29.64-58.8,33.44C132.59,68.49,96.8,93.07,79.28,97.14Z"/><path class="cls-3" d="M144.11,100.22c3.26-5.42,7.78-10.07,12.83-14.42,1.61,1.14,3.51,2.08,4.78,3.43,12.2,12.93,28.17,21.09,47,26,10.27,2.7,21.48,3.91,31.83,4.71,0,11.52,0,21.52,0,34.18-31.68-.4-57.69-11.62-77.3-31.62A197.61,197.61,0,0,1,144.11,100.22Z"/><path class="cls-4" d="M240.54,120c-10.92-.8-21.56-2-31.83-4.71-18.82-5-34.79-13.11-47-26-1.27-1.35-3.17-2.29-4.78-3.43a92.78,92.78,0,0,1,17.83-16.49c20.14,10.28,42.47,14,65.76,14.88C240.38,96,240.69,108.17,240.54,120Z"/><path class="cls-5" d="M125.74,31a71.4,71.4,0,0,1-14.81,6.35c-1.5-1-1.5-1-2.31-1.57C86.21,19,58.75,14.24,29.21,14c-.06-4.13.07-9.91,0-14,29.07.22,57.07,4.58,81,19.51C115.73,23,121.39,26.39,125.74,31Z"/><path class="cls-6" d="M216.66,2.05c-19.56,1.79-38.48,5.22-56.29,12.32C148.3,19.18,116.65,35.45,111.69,37c-.24.11-.5.21-.77.32h0c-6.67,2.86-12.64,4-20.26,6l-.07-.05c-2.58.65-4.46,1.09-5,1.18a319.88,319.88,0,0,1-56.38,5c.08,7-.08,13.08,0,20.07,7.56,0,12.59,0,18.83,0,13.22-.06,25.83-2.39,38.35-5.23C105.12,60.1,121.18,51.76,136.31,42c15.83-10.2,32.37-19.38,52-24.24,16.89-4.18,34.24-5.39,51.71-6.06l.45-10.45C232.5,1.22,224.61,1.33,216.66,2.05Z"/><path class="cls-3" d="M110.93,37.34h0c-.87-.56-1.49-1-2.3-1.56C86.21,19,58.75,14.24,29.21,14c-.08,4.77.08,9.28,0,14,5.57,0,8.64-.21,12.88.12C59.9,29.62,76.54,33.73,90.6,43.33l.07.05C98.29,41.36,104.26,40.2,110.93,37.34Z"/><path class="cls-7" d="M137.18,64.73c-5.77,4.22-8.12,5.56-13.13,9.15,3.25,3,5.84,7,8.23,10.4,4.9-4.79,13.05-12,13.05-12C142.16,69.27,142.07,69.21,137.18,64.73Z"/><path class="cls-8" d="M160.16,60,153,53.83c-8,5.24-10.63,7-15.81,10.9,4.08,3.77,5.43,4.93,8.15,7.52C145.33,72.25,153.91,64.73,160.16,60Z"/><rect class="cls-9" x="240.53" y="84.19" width="29.47" height="69.97"/><rect class="cls-10" y="49.51" width="29.26" height="53.31"/><rect class="cls-11" y="127.28" width="29.26" height="32.72"/><rect class="cls-12" x="240.53" y="1.26" width="29.47" height="48.3"/><rect class="cls-13" width="29.21" height="28.08"/></g></g></svg>