<svg xmlns="http://www.w3.org/2000/svg" viewBox="0 0 271.84 160.82"><defs><style>.cls-1{fill:#3fa9f5;stroke:#fff;stroke-miterlimit:10;}</style></defs><title>Asset 32main</title><g id="Layer_2" data-name="Layer 2"><g id="Layer_1-2" data-name="Layer 1"><ellipse class="cls-1" cx="21.11" cy="141.82" rx="6.29" ry="6.36" transform="translate(-121.77 129.76) rotate(-76.71)"/><ellipse class="cls-1" cx="32.3" cy="122.13" rx="6.29" ry="6.36" transform="translate(-93.98 125.49) rotate(-76.71)"/><ellipse class="cls-1" cx="50.02" cy="114.58" rx="6.29" ry="6.36" transform="translate(-72.98 136.92) rotate(-76.71)"/><ellipse class="cls-1" cx="81.47" cy="91.76" rx="6.29" ry="6.36" transform="translate(-26.56 149.95) rotate(-76.71)"/><ellipse class="cls-1" cx="96.31" cy="111.98" rx="6.29" ry="6.36" transform="translate(-34.81 179.97) rotate(-76.71)"/><ellipse class="cls-1" cx="73.74" cy="105.37" rx="6.29" ry="6.36" transform="translate(-45.77 152.91) rotate(-76.71)"/><ellipse class="cls-1" cx="60.61" cy="91.71" rx="6.29" ry="6.36" transform="translate(-42.58 129.61) rotate(-76.71)"/><ellipse class="cls-1" cx="54.87" cy="102.19" rx="6.29" ry="6.36" transform="translate(-57.2 132.1) rotate(-76.71)"/><ellipse class="cls-1" cx="55.86" cy="84.13" rx="6.29" ry="6.36" transform="translate(-38.86 119.15) rotate(-76.71)"/><ellipse class="cls-1" cx="86.49" cy="125.87" rx="6.29" ry="6.36" transform="translate(-55.89 181.11) rotate(-76.71)"/><ellipse class="cls-1" cx="34.66" cy="107.17" rx="6.29" ry="6.36" transform="translate(-77.61 116.26) rotate(-76.71)"/><ellipse class="cls-1" cx="66.31" cy="121.1" rx="6.29" ry="6.36" transform="translate(-66.8 157.79) rotate(-76.71)"/><ellipse class="cls-1" cx="52.52" cy="139.83" rx="6.29" ry="6.36" transform="translate(-95.64 158.8) rotate(-76.71)"/><ellipse class="cls-1" cx="206.18" cy="33.16" rx="6.29" ry="6.36" transform="matrix(0.23, -0.97, 0.97, 0.23, 126.51, 226.19)"/><ellipse class="cls-1" cx="230.23" cy="40.71" rx="6.29" ry="6.36" transform="translate(137.69 255.41) rotate(-76.71)"/><ellipse class="cls-1" cx="238.95" cy="18.69" rx="6.29" ry="6.36" transform="translate(165.82 246.94) rotate(-76.71)"/><ellipse class="cls-1" cx="189.97" cy="17.04" rx="6.29" ry="6.36" transform="translate(129.71 198) rotate(-76.71)"/><ellipse class="cls-1" cx="264.98" cy="6.79" rx="6.29" ry="6.36" transform="translate(197.45 263.12) rotate(-76.71)"/><ellipse class="cls-1" cx="111.28" cy="76.3" rx="6.29" ry="6.36" transform="translate(11.44 167.06) rotate(-76.71)"/><ellipse class="cls-1" cx="94.11" cy="81.82" rx="6.29" ry="6.36" transform="translate(-7.15 154.61) rotate(-76.71)"/><ellipse class="cls-1" cx="93.01" cy="98.28" rx="6.29" ry="6.36" transform="translate(-24.02 166.2) rotate(-76.71)"/><ellipse class="cls-1" cx="51.97" cy="127.74" rx="6.29" ry="6.36" transform="translate(-84.29 148.95) rotate(-76.71)"/><ellipse class="cls-1" cx="77.97" cy="150.15" rx="6.29" ry="6.36" transform="translate(-86.08 191.52) rotate(-76.71)"/><ellipse class="cls-1" cx="96.89" cy="153.26" rx="6.29" ry="6.36" transform="translate(-74.54 212.33) rotate(-76.71)"/><ellipse class="cls-1" cx="107.98" cy="141.19" rx="6.29" ry="6.36" transform="translate(-54.25 213.82) rotate(-76.71)"/><ellipse class="cls-1" cx="98.88" cy="128.8" rx="6.29" ry="6.36" transform="translate(-49.2 195.42) rotate(-76.71)"/><ellipse class="cls-1" cx="22.73" cy="86.86" rx="6.29" ry="6.36" transform="translate(-67.04 89.01) rotate(-76.71)"/><ellipse class="cls-1" cx="91.83" cy="145.61" rx="6.29" ry="6.36" transform="translate(-70.99 201.5) rotate(-76.71)"/><ellipse class="cls-1" cx="34.66" cy="147.08" rx="6.29" ry="6.36" transform="translate(-116.08 136.51) rotate(-72.73)"/><ellipse class="cls-1" cx="20.2" cy="152.92" rx="6.29" ry="6.36" transform="translate(-133.26 137.42) rotate(-76.71)"/><ellipse class="cls-1" cx="6.86" cy="154.03" rx="6.29" ry="6.36" transform="translate(-144.62 125.29) rotate(-76.71)"/><ellipse class="cls-1" cx="43.13" cy="151.87" rx="6.29" ry="6.36" transform="translate(-114.59 158.94) rotate(-76.71)"/><ellipse class="cls-1" cx="72.66" cy="129.06" rx="6.29" ry="6.36" transform="translate(-69.65 170.1) rotate(-76.71)"/><ellipse class="cls-1" cx="69.97" cy="140.44" rx="6.29" ry="6.36" transform="translate(-82.8 176.25) rotate(-76.71)"/><ellipse class="cls-1" cx="160.73" cy="59.46" rx="6.29" ry="6.36" transform="translate(65.91 202.22) rotate(-76.71)"/><ellipse class="cls-1" cx="160.73" cy="59.46" rx="6.29" ry="6.36" transform="translate(65.91 202.22) rotate(-76.71)"/><ellipse class="cls-1" cx="153.94" cy="76.5" rx="6.29" ry="6.36" transform="translate(44.1 208.73) rotate(-76.71)"/><ellipse class="cls-1" cx="128.71" cy="90" rx="6.29" ry="6.36" transform="translate(11.54 194.57) rotate(-76.71)"/><ellipse class="cls-1" cx="137.21" cy="70.76" rx="6.29" ry="6.36" transform="translate(36.81 188.03) rotate(-76.71)"/><ellipse class="cls-1" cx="111.15" cy="91.49" rx="6.29" ry="6.36" transform="translate(-3.44 178.64) rotate(-76.71)"/><ellipse class="cls-1" cx="139.93" cy="52.76" rx="6.29" ry="6.36" transform="translate(56.41 176.82) rotate(-76.71)"/><ellipse class="cls-1" cx="179.96" cy="80.85" rx="6.29" ry="6.36" transform="translate(59.9 237.4) rotate(-76.71)"/><ellipse class="cls-1" cx="186.97" cy="63.88" rx="6.29" ry="6.36" transform="translate(81.82 231.16) rotate(-76.71)"/><ellipse class="cls-1" cx="156.9" cy="36.31" rx="6.29" ry="6.36" transform="translate(85.5 180.65) rotate(-76.71)"/><ellipse class="cls-1" cx="178.41" cy="44.75" rx="6.29" ry="6.36" transform="matrix(0.23, -0.97, 0.97, 0.23, 93.84, 208.1)"/><ellipse class="cls-1" cx="228.4" cy="20.76" rx="6.29" ry="6.36" transform="translate(155.69 238.27) rotate(-76.71)"/><ellipse class="cls-1" cx="160.62" cy="59.24" rx="6.29" ry="6.36" transform="translate(66.04 201.94) rotate(-76.71)"/><ellipse class="cls-1" cx="160.62" cy="59.24" rx="6.29" ry="6.36" transform="translate(66.04 201.94) rotate(-76.71)"/><ellipse class="cls-1" cx="160.62" cy="59.24" rx="6.29" ry="6.36" transform="translate(66.04 201.94) rotate(-76.71)"/><ellipse class="cls-1" cx="160.62" cy="59.24" rx="6.29" ry="6.36" transform="translate(66.04 201.94) rotate(-76.71)"/><ellipse class="cls-1" cx="160.62" cy="59.24" rx="6.29" ry="6.36" transform="translate(66.04 201.94) rotate(-76.71)"/><ellipse class="cls-1" cx="132.18" cy="19.96" rx="6.29" ry="6.36" transform="translate(82.37 144.01) rotate(-76.71)"/><ellipse class="cls-1" cx="76.78" cy="64.81" rx="6.29" ry="6.36" transform="translate(-3.94 124.63) rotate(-76.71)"/><ellipse class="cls-1" cx="191.3" cy="136.85" rx="6.29" ry="6.36" transform="translate(14.13 291.56) rotate(-76.71)"/><ellipse class="cls-1" cx="43.97" cy="133.95" rx="6.29" ry="6.36" transform="translate(-96.5 145.94) rotate(-76.71)"/><ellipse class="cls-1" cx="123.53" cy="111.95" rx="6.29" ry="6.36" transform="translate(-13.82 206.43) rotate(-76.71)"/><ellipse class="cls-1" cx="99.75" cy="57.98" rx="6.29" ry="6.36" transform="translate(20.39 141.73) rotate(-76.71)"/><ellipse class="cls-1" cx="118.93" cy="58.58" rx="6.29" ry="6.36" transform="translate(34.57 160.86) rotate(-76.71)"/><ellipse class="cls-1" cx="56.58" cy="114.5" rx="6.29" ry="6.36" transform="translate(-67.86 143.24) rotate(-76.71)"/><ellipse class="cls-1" cx="60.42" cy="146" rx="6.29" ry="6.36" transform="translate(-95.56 171.25) rotate(-76.71)"/><ellipse class="cls-1" cx="93.07" cy="139.09" rx="6.29" ry="6.36" transform="translate(-63.69 197.69) rotate(-76.71)"/><ellipse class="cls-1" cx="80.96" cy="137.49" rx="6.29" ry="6.36" transform="translate(-71.45 184.68) rotate(-76.71)"/><ellipse class="cls-1" cx="62.17" cy="132.14" rx="6.29" ry="6.36" transform="translate(-80.72 162.27) rotate(-76.71)"/><ellipse class="cls-1" cx="41.2" cy="124.23" rx="6.29" ry="6.36" transform="translate(-89.18 135.77) rotate(-76.71)"/><ellipse class="cls-1" cx="46.35" cy="144.83" rx="6.29" ry="6.36" transform="translate(-105.26 156.64) rotate(-76.71)"/><ellipse class="cls-1" cx="37.08" cy="136.85" rx="6.29" ry="6.36" transform="translate(-104.63 141.47) rotate(-76.71)"/><ellipse class="cls-1" cx="31.9" cy="131.1" rx="6.29" ry="6.36" transform="translate(-103.02 132) rotate(-76.71)"/><ellipse class="cls-1" cx="78.09" cy="83.68" rx="6.29" ry="6.36" transform="translate(-21.3 140.44) rotate(-76.71)"/><ellipse class="cls-1" cx="236" cy="129.47" rx="6.29" ry="6.36" transform="translate(55.75 329.39) rotate(-76.71)"/><ellipse class="cls-1" cx="107.18" cy="109.72" rx="6.29" ry="6.36" transform="translate(-24.25 188.81) rotate(-76.71)"/><ellipse class="cls-1" cx="107.86" cy="122.9" rx="6.29" ry="6.36" transform="translate(-36.55 199.62) rotate(-76.71)"/><ellipse class="cls-1" cx="93.43" cy="121.05" rx="6.29" ry="6.36" transform="translate(-45.86 184.14) rotate(-76.71)"/><ellipse class="cls-1" cx="96.15" cy="137.21" rx="6.29" ry="6.36" transform="translate(-59.5 199.24) rotate(-76.71)"/><ellipse class="cls-1" cx="88.12" cy="118.97" rx="6.29" ry="6.36" transform="translate(-47.92 177.38) rotate(-76.71)"/><ellipse class="cls-1" cx="82.86" cy="103.98" rx="6.29" ry="6.36" transform="translate(-37.38 160.72) rotate(-76.71)"/><ellipse class="cls-1" cx="68.99" cy="97.79" rx="6.29" ry="6.36" transform="translate(-42.04 142.45) rotate(-76.71)"/><ellipse class="cls-1" cx="82.76" cy="113.97" rx="6.29" ry="6.36" transform="translate(-47.18 168.31) rotate(-76.71)"/><ellipse class="cls-1" cx="86.26" cy="132.28" rx="6.29" ry="6.36" transform="translate(-62.3 185.82) rotate(-76.71)"/><ellipse class="cls-1" cx="79.45" cy="127.99" rx="6.29" ry="6.36" transform="translate(-63.38 175.89) rotate(-76.71)"/><ellipse class="cls-1" cx="75.55" cy="116.83" rx="6.29" ry="6.36" transform="translate(-55.52 163.49) rotate(-76.71)"/><ellipse class="cls-1" cx="39.75" cy="29.1" rx="6.29" ry="6.36" transform="translate(2.29 61.1) rotate(-76.71)"/><ellipse class="cls-1" cx="58.26" cy="122.09" rx="6.29" ry="6.36" transform="translate(-73.96 150.72) rotate(-76.71)"/><ellipse class="cls-1" cx="57.76" cy="137.21" rx="6.29" ry="6.36" transform="translate(-89.05 161.87) rotate(-76.71)"/><ellipse class="cls-1" cx="39.75" cy="113.28" rx="6.29" ry="6.36" transform="translate(-79.63 125.92) rotate(-76.71)"/><ellipse class="cls-1" cx="115.15" cy="119.72" rx="6.29" ry="6.36" transform="translate(-27.83 204.27) rotate(-76.71)"/><ellipse class="cls-1" cx="126.44" cy="127.29" rx="6.29" ry="6.36" transform="translate(-26.51 221.09) rotate(-76.71)"/></g></g></svg>