<svg xmlns="http://www.w3.org/2000/svg" viewBox="0 0 160 160"><defs><style>.cls-1,.cls-4,.cls-5,.cls-6{fill:none;}.cls-2{fill:#ff8c00;}.cls-3{fill:#a05d56;}.cls-4{stroke:#ff8c00;}.cls-4,.cls-5,.cls-6{stroke-linecap:round;stroke-linejoin:round;stroke-width:0;}.cls-5{stroke:#3b5570;}.cls-6{stroke:#3a546e;}.cls-7{fill:#3a546e;}.cls-8{fill:#c3c7ca;}.cls-9{fill:#fcfdfd;}</style></defs><title>Asset 26main</title><g id="Layer_2" data-name="Layer 2"><g id="Layer_1-2" data-name="Layer 1"><path class="cls-1" d="M78,31.77c.53,0,1.06,0,1.59,0C79.06,31.73,78.54,31.74,78,31.77Z"/><path class="cls-1" d="M79.86,31.73c.61,0,1.22,0,1.83,0C81.11,31.75,80.51,31.73,79.86,31.73Z"/><path class="cls-1" d="M92.32,33.49a2.18,2.18,0,0,0-.72-.31,2.18,2.18,0,0,1,.72.31Z"/><path class="cls-2" d="M19.91,143c-.91,1-1.2,1.8.09,2.85a96.82,96.82,0,0,0,23.32,13.9c1.27.54,2,.29,2.45-.95,2.81-7.28,5.82-14.36,8.43-21.85a63.47,63.47,0,0,1-18.79-11.28C29.86,131.1,25.2,137.31,19.91,143Z"/><path class="cls-2" d="M115.15,157.17c.58,1.42,1.26,1.9,2.86,1.2a97.12,97.12,0,0,0,22.72-14.15c.82-.67,1.28-1.39.37-2.35-5.34-5.6-10.16-11.67-15.88-16.92-5.75,4.61-11.77,8.81-18.75,11.48C109.37,143.34,112.28,150.24,115.15,157.17Z"/><path class="cls-2" d="M1.35,115.76c-1.44.73-1.71,1.62-.89,3a90.83,90.83,0,0,0,15.65,19.94c1,.93,1.82,1.31,2.92.15,5.07-5.28,10.3-10.42,14.94-16.08C29,117.57,24,112.35,21,105.69Q11.2,110.73,1.35,115.76Z"/><path class="cls-2" d="M159.1,114.29c-6.48-3-12.67-6.64-19.34-9.31a80.5,80.5,0,0,1-13,17.17c4.5,5.54,9.94,10.19,14.84,15.35.89.94,1.59.64,2.39-.14a88.63,88.63,0,0,0,15.57-20.77C160.1,115.65,160.33,114.86,159.1,114.29Z"/><path class="cls-2" d="M58.47,134.44Q55.16,143.2,51.82,152c-.65,1.71.15,2.41,1.73,2.92a88.88,88.88,0,0,0,23.07,4c2.06.09,2.52-.67,2.49-2.51-.08-6.24,0-12.49,0-18.73A50.55,50.55,0,0,1,58.47,134.44Z"/><path class="cls-2" d="M95.7,134.39c-.82.23-1.65.43-2.48.62a47.37,47.37,0,0,1-11.49,1.3c-.29,5.82.19,11.61.48,17.41,0,.94,0,1.78,1.5,1.7a85.5,85.5,0,0,0,23.23-4.48c1.44-.49,1.81-1.17,1.26-2.53-2.14-5.3-4.24-10.61-6.35-15.92-1.22.42-2.45.82-3.68,1.19C97.35,133.93,96.53,134.17,95.7,134.39Z"/><path class="cls-3" d="M106.47,136.43c7-2.67,13-6.87,18.75-11.48-.62-.82-1.18-1.69-1.86-2.46q-5.23-5.88-10.53-11.73l-2.89-3a44.73,44.73,0,0,1-12.48,7.95C100.15,122.75,103.24,129.62,106.47,136.43Z"/><path class="cls-3" d="M49.36,109.16c-5.1,5.13-9.43,10.89-14,16.49A63.47,63.47,0,0,0,54.2,136.93c2-4.44,3.54-7.75,5.12-11.69,1.23-3,2.83-6,3.62-9.18a44.61,44.61,0,0,1-12.62-7.68A9.93,9.93,0,0,1,49.36,109.16Z"/><path class="cls-2" d="M1.68,84c-1.19.13-1.58.78-1.38,2a86.68,86.68,0,0,0,6.38,21.45c.57,1.23,1.2,1.87,2.64,1.08,4.89-2.67,10.23-4.47,15-7.38-2.73-6.08-5-12.29-5.66-19Z"/><path class="cls-3" d="M119.76,94.92a44.14,44.14,0,0,1-8.59,11.69c2.76,3.13,11.79,12,15.62,15.54a80.5,80.5,0,0,0,13-17.17A180.64,180.64,0,0,0,119.76,94.92Z"/><path class="cls-3" d="M40,95.37a2.8,2.8,0,0,0-.71.29c-6,3.43-12.17,6.7-18.27,10,3,6.66,8,11.88,12.93,17.1l3.82-3.63c3.89-3.72,7-8.18,11.17-11.61l.12-.28A44.08,44.08,0,0,1,40,95.37Z"/><path class="cls-2" d="M149.52,106.42c1.76.87,2.19-.09,2.73-1.36a84.58,84.58,0,0,0,5.66-20.4c.27-1.7-.4-2.33-1.9-2.47-5-.47-10.1-.9-15.15-1.35,0,6.79-2.7,12.91-5,19.11C140.4,102.1,145,104.19,149.52,106.42Z"/><path class="cls-2" d="M139.71,27.55c1.16-.83.41-1.62-.25-2.34a88.51,88.51,0,0,0-16.3-14.35c-1.3-.86-2-.76-2.75.54-2.48,4.11-5,8.17-7.58,12.25,5.7,3.42,10.3,8.11,15,12.67C132.3,34,135.72,30.43,139.71,27.55Z"/><path class="cls-2" d="M103.64,19.41c1.58.63,3.14,1.3,4.65,2,.75.37,1.49.75,2.22,1.15l7-11.74c1-1.75.36-2.55-1.17-3.41C110.27,4,103.65,1.92,96.9.16c-1.12-.29-2.08-.32-2.42,1.05l-.07.33h0C93.3,7,93.05,8.2,93,8.47h0v.07h0a7.43,7.43,0,0,0-.16.78l-.07.32c0,.11,0,.22-.07.35v0c-.05.28-.12.61-.2,1l0,.22c0,.16-.06.32-.1.5l0,.23c-.12.57-.26,1.25-.42,2l-.13.65c-.06.28-.11.57-.18.88,2.41.64,4.85,1.35,7.28,2.14C100.45,18.22,102.06,18.79,103.64,19.41Z"/><line class="cls-4" x1="92.68" y1="10.03" x2="92.69" y2="9.99"/><line class="cls-4" x1="91.74" y1="14.67" x2="91.87" y2="14.02"/><line class="cls-4" x1="92.29" y1="11.99" x2="92.33" y2="11.76"/><line class="cls-4" x1="92.43" y1="11.26" x2="92.48" y2="11.04"/><path class="cls-2" d="M21.39,67.86c0-.15,0-.3,0-.45.23-2.24.55-4.47,1-6.7h0c-7-1.86-7.39-2-13.66-3.72-1.54-.43-2,.54-2.26,1.84A84.94,84.94,0,0,0,4.65,78.31c0,1.89.67,2.61,2.62,2.4,4.62-.5,9.25-.9,13.87-1.34-.08-1.57-.11-3.13-.1-4.7C21.06,72.4,21.18,70.12,21.39,67.86Z"/><path class="cls-2" d="M137.16,56.86c4.44-1.35,8.88-2.72,13.33-4,1.4-.41,2.24-.91,1.59-2.62a85.83,85.83,0,0,0-9.68-18.53c-.72-1-1.51-1.55-2.6-.68-3.59,2.88-7.74,5.06-11,8.35a79.86,79.86,0,0,1,7.56,13.93A7.31,7.31,0,0,1,137.16,56.86Z"/><path class="cls-3" d="M58.47,134.44a50.55,50.55,0,0,0,20.6,3.19q.2-9,.41-18.08v-.26a45.16,45.16,0,0,1-14.83-2.58C62.48,122.58,60.2,128.42,58.47,134.44Z"/><path class="cls-2" d="M139.63,78.15l13.83,1.13c1.82.27,1.49-1.33,1.54-2.41a73,73,0,0,0-2-19.75c-.37-1.59-.9-2.1-2.56-1.59-4.23,1.28-8.5,2.43-12.76,3.64A62,62,0,0,1,139.63,78.15Z"/><path class="cls-3" d="M81.73,136.31A47.37,47.37,0,0,0,93.22,135c.83-.19,1.66-.39,2.48-.62s1.65-.46,2.47-.71c1.23-.37,2.46-.77,3.68-1.19l-6-16.13a45.12,45.12,0,0,1-14.71,2.9C81,125,81.53,130.63,81.73,136.31Z"/><path class="cls-5" d="M101.85,132.49c-1.22.42-2.45.82-3.68,1.19"/><path class="cls-5" d="M93.22,135c.83-.19,1.66-.39,2.48-.62"/><path class="cls-3" d="M114,47.4c1.59-.39,2.37-2.12,4-2.51,3.06-3.12,7.2-5.06,9.92-8.57-4.71-4.56-9.31-9.25-15-12.67l-4.19,5.84a71.42,71.42,0,0,1-5.46,8.75A44.34,44.34,0,0,1,114,47.4Z"/><path class="cls-3" d="M135.83,100c2.33-6.2,5-12.32,5-19.11-5.54-.66-11.06-1.55-16.66-1.46A42.88,42.88,0,0,1,120.66,93,117.89,117.89,0,0,0,135.83,100Z"/><path class="cls-3" d="M34.5,80.11l-15.84,2c.68,6.66,2.93,12.87,5.66,19l15-7a42.74,42.74,0,0,1-4-14A3.83,3.83,0,0,0,34.5,80.11Z"/><path class="cls-3" d="M90.87,33.09c.41.08.46.1.7.16s.44.14.75.24c1.05.3,2.08.64,3.09,1,.26.07.52.14.78.23a25.21,25.21,0,0,1,5.47,2.62l1-1.71c3.8-6.33,0,0,3.83-6.31,4-6.85,0,0,4-6.74-.73-.4-1.47-.78-2.22-1.15-1.51-.73-3.07-1.4-4.65-2s-3.19-1.19-4.8-1.72c-2.43-.79-4.87-1.5-7.28-2.14-.26,1.27-.47,2.34-.66,3.26l-.05.25c-.09.45-.17.85-.25,1.23l0,.17c-.09.4-.16.76-.22,1.07l0,.11-.11.56,0,.11c0,.15-.06.3-.09.42h0c0,.21-.08.38-.11.53v.05a5.53,5.53,0,0,1-.15.74h0l0,.18,0,.11c0,.28-.16.78-.34,1.7v0l-1.29,6.38.16.06c.87.17,1.73.35,2.58.56Z"/><line class="cls-6" x1="89.83" y1="24.07" x2="89.83" y2="24.06"/><line class="cls-6" x1="89.42" y1="26.09" x2="89.43" y2="26.06"/><line class="cls-6" x1="90.19" y1="22.31" x2="90.21" y2="22.2"/><line class="cls-6" x1="89.77" y1="24.36" x2="89.8" y2="24.25"/><line class="cls-6" x1="90.1" y1="22.74" x2="90.1" y2="22.73"/><line class="cls-6" x1="89.98" y1="23.32" x2="89.99" y2="23.27"/><path class="cls-2" d="M26.88,54.55c.55-1.4,1.17-2.77,1.84-4.11,1.35-2.68,2.9-5.28,4.51-7.84-3.39-2.81-6.6-4.76-9.81-7.26-1.08-.84-1.84-.34-2.58.7a73.17,73.17,0,0,0-8.45,17c-.53,1.42-.25,2.28,1.47,2.69,3.89.94,7.73,2.06,11.59,3.11.2-.73.42-1.46.66-2.18S26.6,55.25,26.88,54.55Z"/><path class="cls-3" d="M137.16,56.86a7.31,7.31,0,0,0-.81-3.59,79.86,79.86,0,0,0-7.56-13.93l-10.71,7.27c-2.27,1.88-2.86,1.56-2.78,2.44a43.27,43.27,0,0,1,6.83,12.72Z"/><path class="cls-3" d="M124.33,77.39c15,.74-.38,0,10.16.56,5.13.28-10.65-.58,5.14.2a62,62,0,0,0-1.91-19l-15.16,4a42.82,42.82,0,0,1,1.82,12.36C124.38,76.14,124.36,76.77,124.33,77.39Z"/><path class="cls-3" d="M36.73,64c-8.87-2-13-3-14.32-3.29h0c-.43,2.23-.75,4.46-1,6.7,0,.15,0,.3,0,.45-.21,2.26-.33,4.54-.35,6.81,0,1.57,0,3.13.1,4.7.39,0,11.38-.82,14.12-1.07-.06-.92-.1-1.85-.1-2.79A43.33,43.33,0,0,1,36.73,64Z"/><polygon class="cls-7" points="22.41 60.71 22.41 60.71 22.4 60.7 22.41 60.71"/><path class="cls-6" d="M22.41,60.71c-.43,2.23-.75,4.46-1,6.7"/><path class="cls-6" d="M21,74.67c0-2.27.14-4.55.35-6.81"/><path class="cls-7" d="M22.4,60.7Z"/><path class="cls-3" d="M33.23,42.6c-1.61,2.56-3.16,5.16-4.51,7.84-.67,1.34-1.29,2.71-1.84,4.11-.28.7-.53,1.41-.77,2.12s-.46,1.45-.66,2.18c4.13,1.22,7.57,2.35,11.77,3.5a43.2,43.2,0,0,1,6.19-12.18A80.09,80.09,0,0,0,33.23,42.6Z"/><path class="cls-5" d="M25.45,58.85c.2-.73.42-1.46.66-2.18"/><path class="cls-5" d="M26.88,54.55c.55-1.4,1.17-2.77,1.84-4.11"/><path class="cls-3" d="M55.48,38.79l0,0-4.24-6A62.15,62.15,0,0,0,39.35,43.91c3,2.29,4,2.92,5.71,4.11A44.62,44.62,0,0,1,55.48,38.79Z"/><path class="cls-3" d="M70.23,32.73c-.65-3.84,0,0-.69-4-5.41.4-10.09,2.77-14.73,5.26l2.44,3.78a45,45,0,0,1,12.83-4.95Z"/><path class="cls-2" d="M51.27,32.82c-2.19-3.54-1.46-2.39-3.45-5.42C46.86,26,46.2,26,45,27c-2.42,2-5,3.86-7.28,6.05-6.15,6-6.05,6.33,1.68,10.85A62.15,62.15,0,0,1,51.27,32.82Z"/><path class="cls-2" d="M87.05,28.13l.63-3.56c.43-2.41.16-3.11-2.69-3.29a71.4,71.4,0,0,0-8.53,0c-6.62.37-6-.28-5,6.87A42.12,42.12,0,0,1,87.05,28.13Z"/><path class="cls-2" d="M69.22,26.53c-.73-4-1-4.05-5.07-2.7a65.59,65.59,0,0,0-8,3.1c-4.74,2.32-4.49,2.14-1.38,7,4.64-2.49,9.32-4.86,14.73-5.26C69.44,28,69.38,27.4,69.22,26.53Z"/><path class="cls-8" d="M55.48,38.79l0,0h0Z"/><path class="cls-8" d="M55.48,38.79l0,0h0l0,0Z"/><path class="cls-3" d="M71.5,28.13c.22,1.44.47,2.78.68,4.23l.36,0A44.34,44.34,0,0,1,78,31.77c.56,0,1.08,0,1.59,0h.29c.65,0,1.25,0,1.83,0l1.4.1c1,.07,2.09.17,3.12.32l.22,0c.16-1.21.46-2.88.62-4.08A42.12,42.12,0,0,0,71.5,28.13Z"/><path class="cls-9" d="M100.75,38.16h0l0,0Z"/></g></g></svg>