<svg xmlns="http://www.w3.org/2000/svg" viewBox="0 0 280 280"><defs><style>.cls-1{fill:#73cad2;}.cls-2{fill:#f4e09e;}.cls-3{fill:#e18e95;}.cls-4{fill:#02a0af;}.cls-5{fill:gray;}.cls-6{fill:#ecc851;}.cls-7{fill:#cb333f;}.cls-8{fill:#f0d479;}.cls-9{fill:#d45b65;}.cls-10{fill:#6798a3;}.cls-11{fill:#34b3be;}.cls-12{fill:#fefefe;}.cls-13{fill:#649290;}.cls-14{fill:#6ebca7;}.cls-15{fill:#dc806a;}.cls-16{fill:#f4d7d9;}</style></defs><title>Asset 13</title><g id="Layer_2" data-name="Layer 2"><g id="Layer_1-2" data-name="Layer 1"><path class="cls-1" d="M96.78,125.36c-4.56-.64-9-1.72-13.53-2.65q-30-6.18-59.63-13.91a83.41,83.41,0,0,1-9.32-2.56c.31-1.45.51-2.93.93-4.35A108.29,108.29,0,0,1,19.8,89.5c1.14-2.62,2.27-5.27,3.55-7.82s2.78-5.07,4.15-7.59a116.12,116.12,0,0,1,6.72-10.45c2-2.94,4.37-5.63,6.64-8.38a135.13,135.13,0,0,1,12-12.41,58.4,58.4,0,0,1,4.92-4.1c2.69-2,5.37-4,8.07-6a128.46,128.46,0,0,1,12.27-7.57C81,23.52,84,22.18,87,20.79a127.11,127.11,0,0,1,17.39-6.29,122.88,122.88,0,0,1,27.79-4.63,4.67,4.67,0,0,0,1.21-.31c.18,2.41.38,4.83.52,7.25.36,6.28.62,12.56,1.05,18.84.65,9.22,1.42,18.43,2.13,27.65.05.74.07,1.47.18,2.22a85.73,85.73,0,0,0,1.43-11.41c.63-8.38.85-16.79,1.1-25.19.19-6.46,0-12.91.25-19.36,2.21,0,4.42.2,6.62.25a94,94,0,0,1,10.09.79,125.53,125.53,0,0,1,25.5,6,104.54,104.54,0,0,1,17,7.3c-.24.52-.45,1.07-.72,1.57l-6.66,12.18-.32.58v0a5,5,0,0,1-.33.65v0a5.69,5.69,0,0,0-.82,1l-.2.33c-.56.76-1,1.52-1.62,2.42-6.77,10.68-14.37,20.65-24.1,28.87-7.49,6.33-15.7,11.23-25.47,13.15a51.09,51.09,0,0,1-.59-5.33c0-4.08-1-8-1-12.35a3.73,3.73,0,0,0-.64,1.69,18.4,18.4,0,0,1-1.61,5c-.9,1.86-2.67,2.26-3.86.81a16.5,16.5,0,0,1-2.12-3.33A86.13,86.13,0,0,1,124,57.13c-2.13-7.23-4.08-14.51-5.73-21.87a31.81,31.81,0,0,0-1.73-6.57,4.3,4.3,0,0,0,.09,1.24c.89,4.43,1.87,8.86,2.67,13.31,1.11,6.16,2.4,12.29,3.33,18.49.5,3.36,1.11,6.75,1.87,10.07.63,2.78.54,5.63,1.22,8.36a20.79,20.79,0,0,1,.92,5.42,10.09,10.09,0,0,1-3.14-.28,59.78,59.78,0,0,1-20.8-6.9L96.1,74.78c.25.78.79,1,1.19,1.25a80.29,80.29,0,0,0,7.29,4.79,115.3,115.3,0,0,0,23.31,11.09c.68,4.4,1.26,8.82,2.1,13.19.34,1.8-.17,3.64.71,5.46.53,1.1.11,2.66.12,4a10.35,10.35,0,0,1-2.53,1.55c-7.77,2.71-15.57,5.31-23.51,7.46C102.14,124.29,99.55,125.23,96.78,125.36Z"/><path class="cls-2" d="M143.22,220.43a36.26,36.26,0,0,0-1.24,7.44c-1,8.77-1.43,17.57-1.72,26.39-.18,5.4,0,10.8-.26,16.19a125.52,125.52,0,0,1-20.49-1.6,127.64,127.64,0,0,1-21.32-5.24,129.64,129.64,0,0,1-22.41-10A125.62,125.62,0,0,1,52.1,236.39a122,122,0,0,1-14-14.93c-1.23-1.6-2.9-2.94-3.41-5,.12-.55.63-.68,1-1A247,247,0,0,1,73.8,193a149.77,149.77,0,0,1,15.67-6.49c0,.67-.41,1.05-.8,1.48-1.88,2.08-3.77,4.14-5.6,6.26-4.86,5.63-9.91,11.1-15,16.54-3.54,3.78-7.11,7.54-10.67,11.31-.19.21-.52.43-.12.85a4.22,4.22,0,0,0,.62-.42,124.86,124.86,0,0,1,10.28-8.66,170.36,170.36,0,0,1,25.62-16.61,132.82,132.82,0,0,1,18.52-7.87c2.47-.85,4.92-1.94,7.62-2-.76,1.26-1.49,2.55-2.28,3.8-5.08,8-10.07,16.16-14.8,24.42-4.53,7.89-9,15.83-13.43,23.76a4.83,4.83,0,0,0-.86,2.16,9.55,9.55,0,0,0,2.07-3c6.94-10.94,14.69-21.22,24.43-29.86A77.59,77.59,0,0,1,128.23,199c2.66-1.51,5.4-2.9,8.1-4.34l.27,0,5,7.35.31.92c.12,2,.2,4.1.38,6.15.28,3.25.62,6.49.94,9.74Z"/><path class="cls-3" d="M12.39,112.68a284.89,284.89,0,0,1,46,14,83.92,83.92,0,0,1,9.08,4.08,1,1,0,0,1-.85.33c-3.37.12-6.69.78-10.06,1-5.89.46-11.78,1-17.68,1.13-7,.18-14,0-21,.05a3.07,3.07,0,0,0-1.68.17c2.57.27,5.08.55,7.59.77,5.72.5,11.39,1.42,17,2.48A182.84,182.84,0,0,1,65.19,143c.7.24,1.62.15,2,1-.45.14-.89.32-1.35.42-12.18,2.79-24.49,4.83-36.84,6.69L15,152.83l0,.31L29,151.69c16.08-1.48,32.19-2.7,48.71-3.82-3.08-1.55-6-2.28-8.65-3.77a2.52,2.52,0,0,1,1.57-.63c4.88-1,9.71-2.29,14.52-3.64-.13-.62-.61-.68-1-.86-4.61-2.37-9.24-4.72-13.85-7.1-.49-.25-1.17-.29-1.31-1,5.71-1,11.43-1.91,17.13-3,3.58-.66,7.12-1.51,10.67-2.28,2.89.28,5.7,1,8.54,1.51,4.55.82,9.07,1.79,13.66,2.38,0,.07,0,.15,0,.23-.56.16-1.13.29-1.68.48-7.12,2.38-14.26,4.69-21.5,6.71l-10.18,2.9c.38.23.6.36.81.5,3.39,2.15,7,4,10.26,6.31a2.61,2.61,0,0,1-1.52.35c-4.91-.09-9.79.64-14.7.66a3.23,3.23,0,0,0-1.75.47c6.16,3.06,12.33,5.83,18,9.57,3.64,2.4,7.54,4.44,10.77,7.45-1.26,2.32-3.22,4.09-4.79,6.18-2.51,3.35-5.55,6.28-7.94,9.74h0l-.29.27-.62.28a199.16,199.16,0,0,0-27.69,10.07A265.71,265.71,0,0,0,32,210.22c-.44.28-.93.48-1.39.72a2.65,2.65,0,0,1-.33-.34,131.42,131.42,0,0,1-15-32.25,130.78,130.78,0,0,1-5.13-51.16C10.67,122.31,11.44,117.49,12.39,112.68Z"/><path class="cls-1" d="M203.29,91.3a58.45,58.45,0,0,0,10.3-3.51A213.49,213.49,0,0,0,248,69.85c.49-.3,1-.54,1.54-.81a126.56,126.56,0,0,1,12.63,24.85,132.86,132.86,0,0,1,8,35.56c.49,5.38.35,10.79.32,16.19a1.94,1.94,0,0,1-.24,1.37l-6.51-.35c-4.3-.48-8.62-.66-12.94-.86-5-.37-9.93-.67-14.88-1.11q-12.94-1.16-25.88-2.45c-7.21-.72-14.41-1.47-21.6-2.32s-14.36-1.83-21.53-2.8c-3.56-.48-7.1-1.06-10.65-1.59,2-3.06,4.35-5.8,6.55-8.69,5.26-6.9,10.76-13.62,16.23-20.35.76-.93,2-1.61,2.06-3.06l1.89-1.3c3.71-1.73,7.36-3.61,10.89-5.68,2.2-1.3,4.62-2.24,6.57-3.94Z"/><path class="cls-2" d="M152.57,190.27c3.22-.14,6.43-.41,9.66-.35a74.82,74.82,0,0,1,24,4.67,121.84,121.84,0,0,1,26.7,13.82,192.51,192.51,0,0,1,20.68,16,26.46,26.46,0,0,1,3.24,3c-.16.21-.29.44-.47.64a131.49,131.49,0,0,1-30.52,24.61,115.6,115.6,0,0,1-19.31,9.15l-6.7-16.45c0-.28,0-.58-.33-.71v0c0-.27,0-.55-.33-.66l0,0a3.3,3.3,0,0,0-.44-1.82c-.91-2-1.79-4.07-2.7-6.09-4-8.82-8.05-17.59-13.76-25.47-1.28-1.76-2.48-3.66-4.44-4.81h0l-.33-.34,0,0-.36-.34-.92-.95-.32-.33h0a5.24,5.24,0,0,0-1.52-2.22l-.12-.34c-.53-3.61-1-7.23-1.85-10.8A1.71,1.71,0,0,1,152.57,190.27Z"/><path class="cls-4" d="M133.43,9.56a4.67,4.67,0,0,1-1.21.31,122.88,122.88,0,0,0-27.79,4.63A127.11,127.11,0,0,0,87,20.79c-3,1.39-6.07,2.73-8.93,4.38a128.46,128.46,0,0,0-12.27,7.57c-2.7,2-5.38,4-8.07,6a58.4,58.4,0,0,0-4.92,4.1,135.13,135.13,0,0,0-12,12.41c-2.27,2.75-4.62,5.44-6.64,8.38A116.12,116.12,0,0,0,27.5,74.09c-1.37,2.52-2.87,5-4.15,7.59s-2.41,5.2-3.55,7.82a108.29,108.29,0,0,0-4.57,12.39c-.42,1.42-.62,2.9-.93,4.35-3-.45-5.93-1.51-8.9-2.21-1-.25-.41-1-.29-1.39A117.91,117.91,0,0,1,11,85.58Q39.77,21,108.27,3.68A125.45,125.45,0,0,1,131.5.27c1.27-.07,1.62.26,1.62,1.51C133.13,4.37,133.32,7,133.43,9.56Z"/><path class="cls-5" d="M270.26,147a1.94,1.94,0,0,0,.24-1.37c0-5.4.17-10.81-.32-16.19a132.86,132.86,0,0,0-8-35.56A126.56,126.56,0,0,0,249.51,69c2.38-1.58,4.78-3.13,7.12-4.77.92-.64,1.18,0,1.55.58A138.63,138.63,0,0,1,266.08,79a135.73,135.73,0,0,1,13.06,45.22c4,38.15-5.91,72.36-29.31,102.73-.9,1.17-1.52,1.44-2.68.3-1.85-1.8-4.16-3.1-5.86-5.08a101,101,0,0,0,11.5-16.62,97.73,97.73,0,0,0,7.5-14.83A125.14,125.14,0,0,0,270.26,147Z"/><path class="cls-2" d="M252.79,205.54a101,101,0,0,1-11.5,16.62c-2.48-1.35-4.48-3.34-6.71-5A194.38,194.38,0,0,0,199,195.44a129,129,0,0,0-33.63-10.51,89.23,89.23,0,0,0-13.85-1.34l-.12,0-1.17-8.22c4.77-.26,9.5.42,14.25.69a50.71,50.71,0,0,1,5.2.38c4.32.66,8.63,1.5,13,1.84a21.2,21.2,0,0,0,5.13,1.34c3.27.73,6.47,1.77,9.82,2.07h0c.22.42.61.32,1,.33h0a2,2,0,0,0,1.92.64h0c.22.4.61.33,1,.33h0c.26.42.67.32,1,.32h.19c.24.39.64.33,1,.33h0c.22.4.61.32,1,.33h0c.24.41.65.31,1,.33,1.76.52,3.57.94,5.29,1.59,7.31,2.79,14.58,5.69,21.66,9C239.49,198.12,246.19,201.73,252.79,205.54Z"/><path class="cls-6" d="M34.7,216.43c.51,2.09,2.18,3.43,3.41,5a122,122,0,0,0,14,14.93,125.62,125.62,0,0,0,23.68,17.19,129.64,129.64,0,0,0,22.41,10,127.64,127.64,0,0,0,21.32,5.24,125.52,125.52,0,0,0,20.49,1.6c0,2.65,0,5.3.07,7.95,0,1.23-.28,1.61-1.57,1.6a141.78,141.78,0,0,1-40.34-6.39,139.46,139.46,0,0,1-45.1-23.84,144.55,144.55,0,0,1-15.26-14,126.51,126.51,0,0,1-10.56-12.85c-.25-.34-.83-.78-.22-1.2C29.58,220,31.88,217.81,34.7,216.43Z"/><path class="cls-5" d="M199.29,23.88a104.54,104.54,0,0,0-17-7.3,125.53,125.53,0,0,0-25.5-6,94,94,0,0,0-10.09-.79c-2.2-.05-4.41-.2-6.62-.25,0-2.71,0-5.41-.08-8.11C140,.19,140.42,0,141.54,0a140.42,140.42,0,0,1,99,42.52,142.7,142.7,0,0,1,12.14,14.29c.62.84.75,1.31-.25,2-2.21,1.46-4.33,3.06-6.48,4.6-.73-.31-1.05-1-1.48-1.6A103.17,103.17,0,0,0,232.42,48c-.32-.35-.62-.72-.95-1.06a122.5,122.5,0,0,0-19.55-15.84A86.65,86.65,0,0,0,199.29,23.88Z"/><path class="cls-5" d="M186.52,261.81a115.6,115.6,0,0,0,19.31-9.15,131.49,131.49,0,0,0,30.52-24.61c.18-.2.31-.43.47-.64a86.19,86.19,0,0,1,6.7,5.82c.83.71-.08,1.12-.44,1.51A133.41,133.41,0,0,1,224,252a139.59,139.59,0,0,1-62.17,26.27,128,128,0,0,1-13.26,1.44c-1.3.08-1.61-.33-1.62-1.55,0-2.59-.19-5.18-.3-7.78,3.13-.3,6.27-.54,9.39-.93a69.53,69.53,0,0,0,10.8-1.88A99,99,0,0,0,186.52,261.81Z"/><path class="cls-7" d="M12.39,112.68c-1,4.81-1.72,9.63-2.24,14.51a130.78,130.78,0,0,0,5.13,51.16,131.42,131.42,0,0,0,15,32.25,2.65,2.65,0,0,0,.33.34c-2.42,1.61-4.85,3.2-7.24,4.84-1,.71-1.16-.24-1.48-.73a136.63,136.63,0,0,1-12-23.41A140,140,0,0,1,2.82,112c.23-1.13.57-1.33,1.67-1C7.1,111.6,9.75,112.11,12.39,112.68Z"/><path class="cls-3" d="M232.42,48a103.17,103.17,0,0,1,12.06,13.77c.43.58.75,1.29,1.48,1.6Q228.1,76.29,209.2,87.63c-2,1.19-3.94,2.44-5.91,3.67l-2.83,1.21c-.76.2-1.52.4-2.28.62a62,62,0,0,1-9.41,2.06,1.1,1.1,0,0,1,.11-.29c5.74-6.77,11.65-13.37,17.65-19.9,3.9-4.25,8-8.34,11.85-12.59.81-.89,2-1.64,2.16-3l1.87-1.8a.63.63,0,0,0,.69-.33h0l.32-.33h0l.33-.33h0l.33-.33h0l.33-.33v0l.33-.33h0c.23-.08.26-.19,0-.32Z"/><path class="cls-1" d="M166.85,267.57a69.53,69.53,0,0,1-10.8,1.88c-3.12.39-6.26.63-9.39.93-.53-2.23-.29-4.51-.47-6.77-.49-6.27-.69-12.56-1.09-18.84-.5-7.7-1.08-15.4-1.63-23.09a11.06,11.06,0,0,0-.25-1.25l0-1.55c.73-3.1,1.55-6.18,2.52-9.21a1.59,1.59,0,0,1,.79,1c2.77,5.69,5.8,11.24,8.15,17.14a224.21,224.21,0,0,1,7.4,21.19c.78,2.71,1.63,5.41,2.45,8.12v0c0,.47-.13,1,.32,1.33a.23.23,0,0,1,0,.18c0,.49-.15,1,.32,1.39Z"/><path class="cls-8" d="M94,181.59l.62-.28.29-.27h0a7.4,7.4,0,0,0,1.24-.17c4.39-1.31,8.92-2,13.36-3.14,3.38-.83,6.85-1.06,10.23-1.85l.89.09c1.39,1.48,2.77,3,4.16,4.43-1.38,2-3.06,3.89-3.81,6.3a1.48,1.48,0,0,0-1,.67c-2.7.09-5.15,1.18-7.62,2a132.82,132.82,0,0,0-18.52,7.87,170.36,170.36,0,0,0-25.62,16.61,124.86,124.86,0,0,0-10.28,8.66,4.22,4.22,0,0,1-.62.42c-.4-.42-.07-.64.12-.85,3.56-3.77,7.13-7.53,10.67-11.31,5.08-5.44,10.13-10.91,15-16.54,1.83-2.12,3.72-4.18,5.6-6.26.39-.43.85-.81.8-1.48A13.84,13.84,0,0,0,94,181.59Z"/><path class="cls-9" d="M67.18,144.06c-.37-.89-1.29-.8-2-1a182.84,182.84,0,0,0-24.35-6.29c-5.64-1.06-11.31-2-17-2.48-2.51-.22-5-.5-7.59-.77a3.07,3.07,0,0,1,1.68-.17c7,0,14,.13,21-.05,5.9-.14,11.79-.67,17.68-1.13,3.37-.27,6.69-.93,10.06-1a1,1,0,0,0,.85-.33l1.56.11c.14.72.82.76,1.31,1,4.61,2.38,9.24,4.73,13.85,7.1.35.18.83.24,1,.86-4.81,1.35-9.64,2.61-14.52,3.64a2.52,2.52,0,0,0-1.57.63Z"/><path class="cls-10" d="M119,129.5c-4.59-.59-9.11-1.56-13.66-2.38-2.84-.52-5.65-1.23-8.54-1.51a2.27,2.27,0,0,1-.06-.25c2.77-.13,5.36-1.07,8-1.79,7.94-2.15,15.74-4.75,23.51-7.46a10.35,10.35,0,0,0,2.53-1.55c.16.32.57.42.63.86.4,3.19,1.08,6.34,1.26,9.56a14.11,14.11,0,0,0-3.49,1C125.82,127.14,122.55,128.66,119,129.5Z"/><path class="cls-1" d="M152.57,190.27a1.71,1.71,0,0,0-.09.3,14.49,14.49,0,0,0-5.45,1l-.3,0-.48-.63c-1.91-2.47-4.18-4.67-5.88-7.32l11.06,0,.12,0Z"/><path class="cls-2" d="M232.42,48l-7.71,7.36c0,.1,0,.21,0,.32h0l-.33.33v0l-.33.33h0l-.33.33h0l-.33.33h0l-.32.33h0a.68.68,0,0,0-.69.33l-1.87,1.8a6.67,6.67,0,0,0-.8.5c-4.84,4.18-9.6,8.44-14.65,12.39a285.71,285.71,0,0,1-27.33,19.29L167.36,98l-.6.1L156.63,98a2.17,2.17,0,0,0-.07-.24c4.11-5.84,7.76-12,11.51-18q9.21-14.89,17.65-30.25a74.65,74.65,0,0,0,4.91-9.38h0c.28-.54.35-.76.65-1.28v0l.33-.65v0l.32-.58,6.66-12.18c.27-.5.48-1.05.72-1.57a86.65,86.65,0,0,1,12.63,7.23A122.5,122.5,0,0,1,231.47,47C231.8,47.29,232.1,47.66,232.42,48Z"/><path class="cls-11" d="M132.71,125c-.18-3.22-.86-6.37-1.26-9.56-.06-.44-.47-.54-.63-.86,0-1.34.41-2.9-.12-4-.88-1.82-.37-3.66-.71-5.46-.84-4.37-1.42-8.79-2.1-13.19h0a90.06,90.06,0,0,0,12.17,3.52h0c0,.42,0,.84,0,1.26q.76,6.87,1.54,13.75c.32,2.63.63,5.27.95,7.91a5.46,5.46,0,0,0,.3,2.27c0,.69,0,1.38.12,2.06.37,3.08.81,6.15,1.14,9.24.19,1.77-.12,2-1.91,1.65-.1,0-.2-.09-.3-.1-2.66-.33-5.26-1.12-8-1.11l-.33-.35A34.66,34.66,0,0,0,132.71,125Z"/><path class="cls-11" d="M126.68,85.58a20.79,20.79,0,0,0-.92-5.42c-.68-2.73-.59-5.58-1.22-8.36-.76-3.32-1.37-6.71-1.87-10.07-.93-6.2-2.22-12.33-3.33-18.49-.8-4.45-1.78-8.88-2.67-13.31a4.3,4.3,0,0,1-.09-1.24,31.81,31.81,0,0,1,1.73,6.57c1.65,7.36,3.6,14.64,5.73,21.87a86.13,86.13,0,0,0,5.19,13.94,16.5,16.5,0,0,0,2.12,3.33c1.19,1.45,3,1,3.86-.81a18.4,18.4,0,0,0,1.61-5,3.73,3.73,0,0,1,.64-1.69c0,4.3,1,8.27,1,12.35a51.09,51.09,0,0,0,.59,5.33h0a29.32,29.32,0,0,1-9.18,1c-1,0-2,0-3,.06A.85.85,0,0,1,126.68,85.58Z"/><path class="cls-12" d="M91.16,71.5l-.22-.16a.79.79,0,0,1,.18-.14s.11,0,.11.08A1.87,1.87,0,0,1,91.16,71.5Z"/><path class="cls-13" d="M146.73,191.53l.3,0c.07.2.08.45.21.59,2.66,2.85,4.7,6.17,7.09,9.23l.12.34c.07.53.13,1.06.19,1.59-2.85-.85-5,.2-6.68,2.48-.82,1.12-1.46,2.36-2.18,3.56-1.3-2.11-2.36-4.36-3.85-6.35-.11-.31-.21-.61-.31-.92l-.66-9.23C143,192.74,144.75,191.72,146.73,191.53Z"/><path class="cls-3" d="M136.33,194.68a64.15,64.15,0,0,0-6.11-8.08c-.4-.43-.71-.92-1.06-1.38a51.44,51.44,0,0,1,10.77-1.33c.24,3,.79,5.91.78,8.9-1.16,1.09-2.73,1.31-4.11,1.93Z"/><path class="cls-14" d="M141.93,203c1.49,2,2.55,4.24,3.85,6.35,0,.11,0,.22,0,.33-1,3-1.79,6.11-2.52,9.21-.32-3.25-.66-6.49-.94-9.74C142.13,207.09,142.05,205,141.93,203Z"/><path class="cls-15" d="M136.6,194.72c1.38-.62,3-.84,4.11-1.93l.25.05.66,9.23Z"/><path class="cls-12" d="M88.16,242.11c0,.59-.19,1-.9,1.72.23-.91.36-1.42.91-1.71Z"/><polygon class="cls-8" points="55.07 224.62 55.14 224.48 55.21 224.54 55.07 224.62"/><path class="cls-8" d="M55.07,224.61l-.32.32h0Z"/><path class="cls-8" d="M54.11,225.57l-.07.13.07-.13Z"/><path class="cls-12" d="M88.17,242.12a.58.58,0,0,1,0-.14s.06,0,.09,0l-.15.15Z"/><path class="cls-8" d="M54.43,225.25l-.32.32h0l.32-.32Z"/><path class="cls-9" d="M96.8,146.63l.86.22a4.68,4.68,0,0,0,.54.55q6,4.28,12,8.53c1.15.81,2,2,3.42,2.48a3,3,0,0,0,.47.63c4.43,3.43,8.6,7.15,12.7,11,.93.87,1.69,2.06,3,2.45.07.95,1.24,1.2,1.4,2.1A10.08,10.08,0,0,1,128,175a54.28,54.28,0,0,0-7.4,1l-.89-.09c0-.6-.52-.9-.87-1.28a70.65,70.65,0,0,0-11.23-9.48c-3.23-3-7.13-5-10.77-7.45-5.66-3.74-11.83-6.51-18-9.57a3.23,3.23,0,0,1,1.75-.47c4.91,0,9.79-.75,14.7-.66A2.61,2.61,0,0,0,96.8,146.63Z"/><path class="cls-15" d="M107.59,165.13a70.65,70.65,0,0,1,11.23,9.48c.35.38.83.68.87,1.28-3.38.79-6.85,1-10.23,1.85-4.44,1.1-9,1.83-13.36,3.14a7.4,7.4,0,0,1-1.24.17c2.39-3.46,5.43-6.39,7.94-9.74C104.37,169.22,106.33,167.45,107.59,165.13Z"/><path class="cls-1" d="M133,132.07l-13.94-2.34c0-.08,0-.16,0-.23,3.51-.84,6.78-2.36,10.18-3.51a14.11,14.11,0,0,1,3.49-1,34.66,34.66,0,0,1,.94,7Z"/><path class="cls-16" d="M14,153.27h-1.7v-.1h1.65Z"/><path class="cls-15" d="M94.87,181l-.29.27Z"/><path class="cls-3" d="M202.7,183.24h-.19a1.19,1.19,0,0,0-1-.32h0c-.23-.39-.62-.32-1-.33h0a2.46,2.46,0,0,0-1.92-.64h0c-.24-.36-.61-.32-1-.33h0c-4.89-1.7-10-2.61-15-3.77-10.75-2-21.53-3.62-32.5-3.55l-.27-.28q-.85-6.33-1.72-12.66l-1.74-12.82c.83-1.17,1.67-2.33,2.51-3.5l.39-.13c1,0,2.11-.12,3.16-.13,23.14-.18,46.28-.26,69.42.29,9.62.23,19.24.61,28.87.92,4.31.41,8.63.65,13,.63l6.51.35a125.14,125.14,0,0,1-10,43.7,97.73,97.73,0,0,1-7.5,14.83c-6.6-3.81-13.3-7.42-20.18-10.69-7.08-3.36-14.35-6.26-21.66-9-1.72-.65-3.53-1.07-5.29-1.59a1.18,1.18,0,0,0-1-.33h0c-.24-.35-.62-.32-1-.33h0C203.45,183.22,203.06,183.26,202.7,183.24Z"/><path class="cls-14" d="M134,132.36c2.71,0,5.31.78,8,1.11.1,0,.2.08.3.1,1.79.33,2.1.12,1.91-1.65-.33-3.09-.77-6.16-1.14-9.24-.08-.68-.08-1.37-.12-2.06.55-.18,1.12-.33,1.65-.55,11.77-4.83,23.32-10.15,34.68-15.87a4.44,4.44,0,0,1,1.88-.77c0,1.45-1.3,2.13-2.06,3.06-5.47,6.73-11,13.45-16.23,20.35-2.2,2.89-4.58,5.63-6.55,8.69l-.31.09c-3.26-.52-6.53-1-9.79-1.57-1.62-.27-1.79-.06-1.55,1.63.42,3.12.78,6.24,1.17,9.37l-10.19,0C134.94,140.86,134.33,136.63,134,132.36Z"/><path class="cls-13" d="M181.11,103.43a4.44,4.44,0,0,0-1.88.77c-11.36,5.72-22.91,11-34.68,15.87-.53.22-1.1.37-1.65.55a5.63,5.63,0,0,1-.31-2.27,2.13,2.13,0,0,0,.91-.85c1.6-2.36,3.25-4.67,4.78-7.07.71-1.13,1.86-2.05,1.94-3.53l1.27-1a118.6,118.6,0,0,0,15.27-7.9l.6-.1a35.18,35.18,0,0,0,5.23-.12c5.07-.65,10.17-1.07,15.19-2.09,0,.6-.47.89-.78,1.3-1.3,1.72-3,3.15-4,5.09Z"/><path class="cls-10" d="M183,102.13c1-1.94,2.7-3.37,4-5.09.31-.41.8-.7.78-1.3l.65-.32.33-.26v0a62,62,0,0,0,9.41-2.06c.76-.22,1.52-.42,2.28-.62-2,1.7-4.37,2.64-6.57,3.94C190.36,98.52,186.71,100.4,183,102.13Z"/><path class="cls-3" d="M166.85,267.57,165.2,260c0-.48.08-1-.32-1.39a.23.23,0,0,0,0-.18c0-.46.14-1-.32-1.33h0a26.42,26.42,0,0,0-.93-5.29c-2.11-11.1-4.25-22.19-6.27-33.31-.87-4.83-1.88-9.64-2.43-14.53h1l.32.33c.31.32.61.64.92.95l.36.34,0,0c0,.2.11.34.33.34h0c0,.59.38,1,.67,1.4a264.51,264.51,0,0,1,19,33.57,15.22,15.22,0,0,0,1.69,3.22l0,0a.72.72,0,0,0,.33.66v0a.79.79,0,0,0,.33.71l6.7,16.45A99,99,0,0,1,166.85,267.57Z"/><path class="cls-14" d="M154.33,201.37c-2.39-3.06-4.43-6.38-7.09-9.23-.13-.14-.14-.39-.21-.59a14.49,14.49,0,0,1,5.45-1C153.31,194.14,153.8,197.76,154.33,201.37Z"/><path class="cls-15" d="M156,203.93h-1c-.09-.21-.19-.42-.29-.63-.06-.53-.12-1.06-.19-1.59A5.24,5.24,0,0,1,156,203.93Z"/><path class="cls-12" d="M179.5,244.67a.72.72,0,0,1-.33-.66C179.5,244.12,179.49,244.4,179.5,244.67Z"/><path class="cls-12" d="M179.82,245.36a.79.79,0,0,1-.33-.71C179.82,244.78,179.81,245.08,179.82,245.36Z"/><path class="cls-12" d="M157.86,205.86c-.22,0-.31-.14-.33-.34Z"/><path class="cls-12" d="M157.55,205.54l-.36-.34Z"/><path class="cls-15" d="M156.27,204.25l-.32-.33Z"/><path class="cls-14" d="M151.43,183.56l-11.06,0H140l-.3-.57a45,45,0,0,0-.7-7.14,1.86,1.86,0,0,1,.1-.25c3.68-.07,7.37.2,11-.3l.09,0Z"/><path class="cls-16" d="M182.71,178.25l0-.36c5,1.16,10.1,2.07,15,3.77-3.35-.3-6.55-1.34-9.82-2.07A21.2,21.2,0,0,1,182.71,178.25Z"/><path class="cls-16" d="M198.6,182a2.46,2.46,0,0,1,1.92.64A2,2,0,0,1,198.6,182Z"/><path class="cls-16" d="M202.7,183.24c.36,0,.75,0,1,.33C203.34,183.57,202.94,183.63,202.7,183.24Z"/><path class="cls-16" d="M203.69,183.56c.35,0,.73,0,1,.33C204.3,183.88,203.91,184,203.69,183.56Z"/><path class="cls-16" d="M204.64,183.88a1.18,1.18,0,0,1,1,.33C205.29,184.19,204.88,184.29,204.64,183.88Z"/><path class="cls-16" d="M197.64,181.65c.36,0,.73,0,1,.33C198.25,182,197.86,182.07,197.64,181.65Z"/><path class="cls-16" d="M200.51,182.6c.35,0,.74-.06,1,.33C201.12,182.93,200.73,183,200.51,182.6Z"/><path class="cls-16" d="M201.46,182.92a1.19,1.19,0,0,1,1,.32C202.13,183.24,201.72,183.34,201.46,182.92Z"/><path class="cls-15" d="M188.43,95.42l-.65.32c-5,1-10.12,1.44-15.19,2.09a35.18,35.18,0,0,1-5.23.12l10.4-6.37a285.71,285.71,0,0,0,27.33-19.29c5-4,9.81-8.21,14.65-12.39a6.67,6.67,0,0,1,.8-.5c-.2,1.37-1.35,2.12-2.16,3-3.89,4.25-7.95,8.34-11.85,12.59-6,6.53-11.91,13.13-17.65,19.9a1.1,1.1,0,0,0-.11.29v0Z"/><path class="cls-15" d="M222.41,57.6a.68.68,0,0,1,.69-.33A.63.63,0,0,1,222.41,57.6Z"/><path class="cls-15" d="M223.09,57.28l.32-.33Z"/><path class="cls-15" d="M223.4,57l.33-.33Z"/><path class="cls-15" d="M224,56.32l.33-.33Z"/><path class="cls-15" d="M224.36,56l.33-.33Z"/><path class="cls-15" d="M224.67,55.69c0-.11,0-.22,0-.32C224.93,55.5,224.9,55.61,224.67,55.69Z"/><path class="cls-15" d="M223.72,56.64l.33-.33Z"/><path class="cls-10" d="M154.64,203.3c.1.21.2.42.29.63.55,4.89,1.56,9.7,2.43,14.53,2,11.12,4.16,22.21,6.27,33.31a26.42,26.42,0,0,1,.93,5.29c-.82-2.7-1.67-5.4-2.45-8.11a224.21,224.21,0,0,0-7.4-21.19c-2.35-5.9-5.38-11.45-8.15-17.14a1.59,1.59,0,0,0-.79-1c0-.11,0-.22,0-.33.72-1.2,1.36-2.44,2.18-3.56C149.61,203.5,151.79,202.45,154.64,203.3Z"/><path class="cls-10" d="M164.88,258.56c.4.4.3.91.32,1.39C164.73,259.57,164.89,259.05,164.88,258.56Z"/><path class="cls-10" d="M164.55,257.05c.46.36.29.87.32,1.33C164.42,258,164.55,257.52,164.55,257.05Z"/><path class="cls-15" d="M139.73,183l.3.57a1.6,1.6,0,0,1-.1.31,51.44,51.44,0,0,0-10.77,1.33l-.26-.07-4.16-4.74c-1.39-1.47-2.77-2.95-4.16-4.43a54.28,54.28,0,0,1,7.4-1c0,.68-.92,1-.69,1.79l5.77-.57.26.06A84.66,84.66,0,0,0,139.73,183Z"/><path class="cls-2" d="M124.74,180.41l4.16,4.74-8,1.56C121.68,184.3,123.36,182.45,124.74,180.41Z"/><path class="cls-10" d="M139.93,183.89a1.6,1.6,0,0,0,.1-.31h.34c1.7,2.65,4,4.85,5.88,7.32l.48.63c-2,.19-3.77,1.21-5.77,1.31l-.25-.05C140.72,189.8,140.17,186.85,139.93,183.89Z"/><path class="cls-1" d="M151.49,106c-.43.31-.85.63-1.27,1a16.85,16.85,0,0,0-3.91,1.66,19.45,19.45,0,0,1-4.66,1.88q-.77-6.89-1.54-13.75c-.05-.42,0-.84,0-1.26a87.35,87.35,0,0,0,16.49,2.32,2.17,2.17,0,0,1,.07.24A67.94,67.94,0,0,0,151.49,106Z"/><path class="cls-14" d="M151.49,106a67.94,67.94,0,0,1,5.14-8l10.13.06A118.6,118.6,0,0,1,151.49,106Z"/><path class="cls-1" d="M127.9,91.91q-.51-3.12-1-6.24c1,0,2-.1,3-.06a29.32,29.32,0,0,0,9.18-1c.33,3.6.67,7.2,1,10.8A90.06,90.06,0,0,1,127.9,91.91Z"/><path class="cls-2" d="M134,132.36c.35,4.27,1,8.5,1.62,12.72a2.67,2.67,0,0,0-.09.26l-12.38.29q4.53-6.12,9-12.24c.31-.42.58-.88.86-1.32l.62-.06Z"/><path class="cls-10" d="M141.65,110.44a19.45,19.45,0,0,0,4.66-1.88,16.85,16.85,0,0,1,3.91-1.66c-.08,1.48-1.23,2.4-1.94,3.53-1.53,2.4-3.18,4.71-4.78,7.07a2.13,2.13,0,0,1-.91.85Q142.13,114.39,141.65,110.44Z"/><path class="cls-15" d="M123.13,145.63l12.38-.29c.08.79.13,1.57.25,2.35q1.06,6.93,1.69,13.92a3.45,3.45,0,0,0-1,1.18c-2.19,3.23-4.4,6.45-6.6,9.67-1.35-.39-2.11-1.58-3-2.45-4.1-3.82-8.27-7.54-12.7-11a3,3,0,0,1-.47-.63c.22-1.34,1.37-2.09,2.08-3.11,2.27-3.27,5-6.18,7.17-9.56Z"/><path class="cls-3" d="M122.86,145.74c-2.14,3.38-4.9,6.29-7.17,9.56-.71,1-1.86,1.77-2.08,3.11-1.39-.48-2.27-1.67-3.42-2.48q-6-4.25-12-8.53a4.68,4.68,0,0,1-.54-.55c1.9-.15,3.79-.35,5.68-.42C109.85,146.18,116.35,146,122.86,145.74Z"/><path class="cls-3" d="M129.82,172.46c2.2-3.22,4.41-6.44,6.6-9.67a3.45,3.45,0,0,1,1-1.18c.24,2,.45,4,.71,5.94.28,2.17.59,4.34.89,6.51,0,.1-.07.19-.11.29a40.66,40.66,0,0,0-7.07.45l1.19,1.44-5.77.57c-.23-.78.7-1.11.69-1.79a10.08,10.08,0,0,0,3.24-.46C131.06,173.66,129.89,173.41,129.82,172.46Z"/><path class="cls-10" d="M139.05,174.06c-.3-2.17-.61-4.34-.89-6.51-.26-2-.47-4-.71-5.94q-.63-7-1.69-13.92c-.12-.78-.17-1.56-.25-2.35a2.67,2.67,0,0,1,.09-.26l10.19,0,.11,0a19,19,0,0,0,.54,3.51l1.74,12.82q.85,6.33,1.72,12.66Z"/><path class="cls-2" d="M156,135.62c-1.86,2.53-3.74,5.06-5.59,7.6a3.93,3.93,0,0,0-1,1.73l-.39.13h-3l-.11,0c-.39-3.13-.75-6.25-1.17-9.37-.24-1.69-.07-1.9,1.55-1.63C149.43,134.59,152.7,135.1,156,135.62Z"/><path class="cls-1" d="M139.05,174.06H149.9l.27.28v1c-3.67.5-7.36.23-11,.3-.06-.42-.12-.85-.19-1.27C139,174.25,139,174.16,139.05,174.06Z"/><path class="cls-15" d="M145.9,145.07h3c-.84,1.17-1.68,2.33-2.51,3.5A19,19,0,0,1,145.9,145.07Z"/><path class="cls-3" d="M188.43,95.42l.33-.26Z"/><path class="cls-2" d="M139.73,183a84.66,84.66,0,0,1-6.41-6.71l5.71-.43A45,45,0,0,1,139.73,183Z"/></g></g></svg>